ISO-10303-21;
HEADER;
/* Generated by software containing ST-Developer
 * from STEP Tools, Inc. (www.steptools.com) 
 */

FILE_DESCRIPTION(
/* description */ (''),
/* implementation_level */ '2;1');

FILE_NAME(
/* name */ 'Bottom.step',
/* time_stamp */ '2026-08-02T22:44:47-04:00',
/* author */ (''),
/* organization */ (''),
/* preprocessor_version */ 'ST-DEVELOPER v20.1',
/* originating_system */ 'Autodesk Translation Framework v15.8.0.0',
/* authorisation */ '');

FILE_SCHEMA (('AUTOMOTIVE_DESIGN { 1 0 10303 214 3 1 1 }'));
ENDSEC;

DATA;
#10=MECHANICAL_DESIGN_GEOMETRIC_PRESENTATION_REPRESENTATION('',(#13),#1811);
#11=SHAPE_REPRESENTATION_RELATIONSHIP('SRR','None',#1818,#12);
#12=ADVANCED_BREP_SHAPE_REPRESENTATION('',(#14),#1810);
#13=STYLED_ITEM('',(#1827),#14);
#14=MANIFOLD_SOLID_BREP('Bottom',#1031);
#15=B_SPLINE_CURVE_WITH_KNOTS('',3,(#1575,#1576,#1577,#1578,#1579,#1580,
#1581,#1582,#1583,#1584,#1585),.UNSPECIFIED.,.F.,.F.,(4,2,3,2,4),(-0.162875311161848,
-0.0967802378433957,0.,0.0967802378433958,0.162875311161848),
 .UNSPECIFIED.);
#16=B_SPLINE_CURVE_WITH_KNOTS('',3,(#1591,#1592,#1593,#1594,#1595,#1596,
#1597,#1598,#1599,#1600,#1601),.UNSPECIFIED.,.F.,.F.,(4,2,3,2,4),(-0.110907335294439,
-0.096780237843396,0.,0.0967802378433957,0.110907335294439),
 .UNSPECIFIED.);
#17=B_SPLINE_CURVE_WITH_KNOTS('',3,(#1604,#1605,#1606,#1607,#1608,#1609,
#1610,#1611,#1612,#1613,#1614),.UNSPECIFIED.,.F.,.F.,(4,2,3,2,4),(-0.139531675501736,
-0.0967895278226414,0.,0.0967164672532404,0.139524773638026),
 .UNSPECIFIED.);
#18=B_SPLINE_CURVE_WITH_KNOTS('',3,(#1620,#1621,#1622,#1623,#1624,#1625,
#1626,#1627,#1628,#1629,#1630),.UNSPECIFIED.,.F.,.F.,(4,2,3,2,4),(-0.138331844595264,
-0.0967164672532406,0.,0.0967895278226416,0.138338749166316),
 .UNSPECIFIED.);
#19=B_SPLINE_CURVE_WITH_KNOTS('',3,(#1665,#1666,#1667,#1668,#1669,#1670,
#1671,#1672,#1673,#1674,#1675),.UNSPECIFIED.,.F.,.F.,(4,2,3,2,4),(-0.146933664569531,
-0.096855052572379,0.,0.0968550525723791,0.146933664569531),
 .UNSPECIFIED.);
#20=B_SPLINE_CURVE_WITH_KNOTS('',3,(#1681,#1682,#1683,#1684,#1685,#1686,
#1687,#1688,#1689,#1690,#1691),.UNSPECIFIED.,.F.,.F.,(4,2,3,2,4),(-0.146933542628325,
-0.0968550525723793,0.,0.096855052572379,0.146933542628324),
 .UNSPECIFIED.);
#21=B_SPLINE_CURVE_WITH_KNOTS('',3,(#1694,#1695,#1696,#1697,#1698,#1699,
#1700,#1701,#1702,#1703,#1704),.UNSPECIFIED.,.F.,.F.,(4,2,3,2,4),(-0.146933524194418,
-0.0968550503225099,0.,0.0968550503225099,0.146933524194418),
 .UNSPECIFIED.);
#22=B_SPLINE_CURVE_WITH_KNOTS('',3,(#1710,#1711,#1712,#1713,#1714,#1715,
#1716,#1717,#1718,#1719,#1720),.UNSPECIFIED.,.F.,.F.,(4,2,3,2,4),(-0.14693315433828,
-0.0968550503225099,0.,0.0968550503225099,0.14693315433828),
 .UNSPECIFIED.);
#23=CIRCLE('',#1047,19.499999036503);
#24=CIRCLE('',#1048,19.499999036503);
#25=CIRCLE('',#1050,19.499999036503);
#26=CIRCLE('',#1051,19.499999036503);
#27=CIRCLE('',#1053,15.9999990365);
#28=CIRCLE('',#1054,15.999999036503);
#29=CIRCLE('',#1055,15.999999036503);
#30=CIRCLE('',#1056,15.999999036503);
#31=CIRCLE('',#1058,15.9999990365);
#32=CIRCLE('',#1061,15.999999036503);
#33=CIRCLE('',#1063,15.999999036503);
#34=CIRCLE('',#1066,15.999999036503);
#35=CIRCLE('',#1076,2.5);
#36=CIRCLE('',#1077,2.5);
#37=CIRCLE('',#1079,2.5);
#38=CIRCLE('',#1080,2.5);
#39=CIRCLE('',#1082,2.5);
#40=CIRCLE('',#1083,2.5);
#41=CIRCLE('',#1085,2.5);
#42=CIRCLE('',#1086,2.5);
#43=CIRCLE('',#1088,4.5);
#44=CIRCLE('',#1090,2.5);
#45=CIRCLE('',#1091,2.5);
#46=CIRCLE('',#1093,2.5);
#47=CIRCLE('',#1094,2.5);
#48=CIRCLE('',#1096,2.5);
#49=CIRCLE('',#1097,2.5);
#50=CIRCLE('',#1099,2.5);
#51=CIRCLE('',#1100,2.5);
#52=CIRCLE('',#1102,4.5);
#53=CIRCLE('',#1103,19.4999990365);
#54=CIRCLE('',#1104,4.5);
#55=CIRCLE('',#1105,4.5);
#56=CIRCLE('',#1106,4.5);
#57=CIRCLE('',#1107,4.5);
#58=CIRCLE('',#1108,19.499999036503);
#59=CIRCLE('',#1109,4.5);
#60=CIRCLE('',#1112,4.5);
#61=CIRCLE('',#1113,4.5);
#62=CIRCLE('',#1114,4.5);
#63=CIRCLE('',#1115,19.4999990365);
#64=CIRCLE('',#1116,4.5);
#65=CIRCLE('',#1117,19.499999036503);
#66=CIRCLE('',#1118,4.5);
#67=CYLINDRICAL_SURFACE('',#1046,19.499999036503);
#68=CYLINDRICAL_SURFACE('',#1049,19.499999036503);
#69=CYLINDRICAL_SURFACE('',#1057,15.9999990365);
#70=CYLINDRICAL_SURFACE('',#1060,15.999999036503);
#71=CYLINDRICAL_SURFACE('',#1062,15.999999036503);
#72=CYLINDRICAL_SURFACE('',#1065,15.999999036503);
#73=CYLINDRICAL_SURFACE('',#1081,2.5);
#74=CYLINDRICAL_SURFACE('',#1084,2.5);
#75=CYLINDRICAL_SURFACE('',#1095,2.5);
#76=CYLINDRICAL_SURFACE('',#1098,2.5);
#77=CYLINDRICAL_SURFACE('',#1124,4.5);
#78=CYLINDRICAL_SURFACE('',#1125,4.5);
#79=CYLINDRICAL_SURFACE('',#1126,4.5);
#80=CYLINDRICAL_SURFACE('',#1127,4.5);
#81=CYLINDRICAL_SURFACE('',#1128,4.5);
#82=CYLINDRICAL_SURFACE('',#1129,4.5);
#83=CYLINDRICAL_SURFACE('',#1131,19.499999036503);
#84=CYLINDRICAL_SURFACE('',#1134,19.4999990365);
#85=FACE_OUTER_BOUND('',#131,.T.);
#86=FACE_OUTER_BOUND('',#132,.T.);
#87=FACE_OUTER_BOUND('',#133,.T.);
#88=FACE_OUTER_BOUND('',#134,.T.);
#89=FACE_OUTER_BOUND('',#135,.T.);
#90=FACE_OUTER_BOUND('',#136,.T.);
#91=FACE_OUTER_BOUND('',#137,.T.);
#92=FACE_OUTER_BOUND('',#138,.T.);
#93=FACE_OUTER_BOUND('',#139,.T.);
#94=FACE_OUTER_BOUND('',#140,.T.);
#95=FACE_OUTER_BOUND('',#141,.T.);
#96=FACE_OUTER_BOUND('',#142,.T.);
#97=FACE_OUTER_BOUND('',#143,.T.);
#98=FACE_OUTER_BOUND('',#144,.T.);
#99=FACE_OUTER_BOUND('',#145,.T.);
#100=FACE_OUTER_BOUND('',#146,.T.);
#101=FACE_OUTER_BOUND('',#147,.T.);
#102=FACE_OUTER_BOUND('',#148,.T.);
#103=FACE_OUTER_BOUND('',#149,.T.);
#104=FACE_OUTER_BOUND('',#150,.T.);
#105=FACE_OUTER_BOUND('',#151,.T.);
#106=FACE_OUTER_BOUND('',#152,.T.);
#107=FACE_OUTER_BOUND('',#153,.T.);
#108=FACE_OUTER_BOUND('',#154,.T.);
#109=FACE_OUTER_BOUND('',#155,.T.);
#110=FACE_OUTER_BOUND('',#156,.T.);
#111=FACE_OUTER_BOUND('',#157,.T.);
#112=FACE_OUTER_BOUND('',#158,.T.);
#113=FACE_OUTER_BOUND('',#159,.T.);
#114=FACE_OUTER_BOUND('',#160,.T.);
#115=FACE_OUTER_BOUND('',#161,.T.);
#116=FACE_OUTER_BOUND('',#162,.T.);
#117=FACE_OUTER_BOUND('',#163,.T.);
#118=FACE_OUTER_BOUND('',#164,.T.);
#119=FACE_OUTER_BOUND('',#165,.T.);
#120=FACE_OUTER_BOUND('',#166,.T.);
#121=FACE_OUTER_BOUND('',#167,.T.);
#122=FACE_OUTER_BOUND('',#168,.T.);
#123=FACE_OUTER_BOUND('',#169,.T.);
#124=FACE_OUTER_BOUND('',#170,.T.);
#125=FACE_OUTER_BOUND('',#171,.T.);
#126=FACE_OUTER_BOUND('',#172,.T.);
#127=FACE_OUTER_BOUND('',#173,.T.);
#128=FACE_OUTER_BOUND('',#174,.T.);
#129=FACE_OUTER_BOUND('',#175,.T.);
#130=FACE_OUTER_BOUND('',#176,.T.);
#131=EDGE_LOOP('',(#645,#646,#647,#648));
#132=EDGE_LOOP('',(#649,#650,#651,#652));
#133=EDGE_LOOP('',(#653,#654,#655,#656));
#134=EDGE_LOOP('',(#657,#658,#659,#660,#661,#662,#663,#664));
#135=EDGE_LOOP('',(#665,#666,#667,#668));
#136=EDGE_LOOP('',(#669,#670,#671,#672));
#137=EDGE_LOOP('',(#673,#674,#675,#676));
#138=EDGE_LOOP('',(#677,#678,#679,#680));
#139=EDGE_LOOP('',(#681,#682,#683,#684,#685,#686,#687,#688));
#140=EDGE_LOOP('',(#689,#690,#691,#692));
#141=EDGE_LOOP('',(#693,#694,#695,#696));
#142=EDGE_LOOP('',(#697,#698,#699,#700,#701,#702,#703,#704));
#143=EDGE_LOOP('',(#705,#706,#707,#708));
#144=EDGE_LOOP('',(#709,#710,#711,#712));
#145=EDGE_LOOP('',(#713,#714,#715,#716));
#146=EDGE_LOOP('',(#717,#718,#719,#720,#721,#722,#723,#724));
#147=EDGE_LOOP('',(#725,#726,#727,#728));
#148=EDGE_LOOP('',(#729,#730,#731,#732));
#149=EDGE_LOOP('',(#733,#734,#735,#736,#737,#738,#739));
#150=EDGE_LOOP('',(#740,#741,#742,#743,#744,#745,#746));
#151=EDGE_LOOP('',(#747,#748,#749,#750,#751,#752,#753,#754));
#152=EDGE_LOOP('',(#755,#756,#757,#758,#759,#760,#761,#762));
#153=EDGE_LOOP('',(#763,#764,#765,#766,#767,#768,#769,#770,#771,#772,#773));
#154=EDGE_LOOP('',(#774,#775,#776,#777,#778,#779,#780));
#155=EDGE_LOOP('',(#781,#782,#783,#784,#785,#786,#787));
#156=EDGE_LOOP('',(#788,#789,#790,#791,#792,#793,#794,#795));
#157=EDGE_LOOP('',(#796,#797,#798,#799,#800,#801,#802,#803));
#158=EDGE_LOOP('',(#804,#805,#806,#807,#808,#809,#810,#811,#812,#813,#814,
#815,#816,#817,#818,#819,#820,#821,#822,#823,#824,#825,#826,#827));
#159=EDGE_LOOP('',(#828,#829,#830,#831));
#160=EDGE_LOOP('',(#832,#833,#834,#835,#836,#837,#838,#839,#840,#841,#842,
#843,#844,#845,#846,#847,#848,#849,#850,#851,#852,#853,#854,#855,#856,#857,
#858,#859,#860));
#161=EDGE_LOOP('',(#861,#862,#863,#864,#865,#866,#867));
#162=EDGE_LOOP('',(#868,#869,#870,#871));
#163=EDGE_LOOP('',(#872,#873,#874,#875,#876,#877,#878));
#164=EDGE_LOOP('',(#879,#880,#881,#882,#883,#884,#885));
#165=EDGE_LOOP('',(#886,#887,#888,#889,#890,#891,#892));
#166=EDGE_LOOP('',(#893,#894,#895,#896,#897,#898));
#167=EDGE_LOOP('',(#899,#900,#901,#902,#903,#904));
#168=EDGE_LOOP('',(#905,#906,#907,#908,#909,#910));
#169=EDGE_LOOP('',(#911,#912,#913,#914,#915,#916));
#170=EDGE_LOOP('',(#917,#918,#919,#920,#921,#922,#923,#924));
#171=EDGE_LOOP('',(#925,#926,#927,#928,#929,#930,#931,#932));
#172=EDGE_LOOP('',(#933,#934,#935,#936));
#173=EDGE_LOOP('',(#937,#938,#939,#940));
#174=EDGE_LOOP('',(#941,#942,#943,#944));
#175=EDGE_LOOP('',(#945,#946,#947,#948,#949,#950,#951,#952));
#176=EDGE_LOOP('',(#953,#954,#955,#956));
#177=LINE('',#1425,#281);
#178=LINE('',#1427,#282);
#179=LINE('',#1429,#283);
#180=LINE('',#1430,#284);
#181=LINE('',#1436,#285);
#182=LINE('',#1442,#286);
#183=LINE('',#1445,#287);
#184=LINE('',#1451,#288);
#185=LINE('',#1455,#289);
#186=LINE('',#1459,#290);
#187=LINE('',#1462,#291);
#188=LINE('',#1465,#292);
#189=LINE('',#1468,#293);
#190=LINE('',#1471,#294);
#191=LINE('',#1472,#295);
#192=LINE('',#1476,#296);
#193=LINE('',#1479,#297);
#194=LINE('',#1482,#298);
#195=LINE('',#1486,#299);
#196=LINE('',#1488,#300);
#197=LINE('',#1489,#301);
#198=LINE('',#1491,#302);
#199=LINE('',#1493,#303);
#200=LINE('',#1494,#304);
#201=LINE('',#1498,#305);
#202=LINE('',#1500,#306);
#203=LINE('',#1504,#307);
#204=LINE('',#1506,#308);
#205=LINE('',#1508,#309);
#206=LINE('',#1509,#310);
#207=LINE('',#1510,#311);
#208=LINE('',#1514,#312);
#209=LINE('',#1515,#313);
#210=LINE('',#1516,#314);
#211=LINE('',#1519,#315);
#212=LINE('',#1520,#316);
#213=LINE('',#1523,#317);
#214=LINE('',#1524,#318);
#215=LINE('',#1527,#319);
#216=LINE('',#1529,#320);
#217=LINE('',#1531,#321);
#218=LINE('',#1533,#322);
#219=LINE('',#1535,#323);
#220=LINE('',#1537,#324);
#221=LINE('',#1538,#325);
#222=LINE('',#1540,#326);
#223=LINE('',#1541,#327);
#224=LINE('',#1543,#328);
#225=LINE('',#1547,#329);
#226=LINE('',#1549,#330);
#227=LINE('',#1551,#331);
#228=LINE('',#1553,#332);
#229=LINE('',#1555,#333);
#230=LINE('',#1562,#334);
#231=LINE('',#1564,#335);
#232=LINE('',#1566,#336);
#233=LINE('',#1568,#337);
#234=LINE('',#1570,#338);
#235=LINE('',#1587,#339);
#236=LINE('',#1616,#340);
#237=LINE('',#1636,#341);
#238=LINE('',#1638,#342);
#239=LINE('',#1639,#343);
#240=LINE('',#1642,#344);
#241=LINE('',#1644,#345);
#242=LINE('',#1646,#346);
#243=LINE('',#1648,#347);
#244=LINE('',#1655,#348);
#245=LINE('',#1656,#349);
#246=LINE('',#1658,#350);
#247=LINE('',#1660,#351);
#248=LINE('',#1677,#352);
#249=LINE('',#1706,#353);
#250=LINE('',#1728,#354);
#251=LINE('',#1732,#355);
#252=LINE('',#1735,#356);
#253=LINE('',#1737,#357);
#254=LINE('',#1741,#358);
#255=LINE('',#1745,#359);
#256=LINE('',#1748,#360);
#257=LINE('',#1749,#361);
#258=LINE('',#1752,#362);
#259=LINE('',#1754,#363);
#260=LINE('',#1755,#364);
#261=LINE('',#1760,#365);
#262=LINE('',#1761,#366);
#263=LINE('',#1765,#367);
#264=LINE('',#1769,#368);
#265=LINE('',#1774,#369);
#266=LINE('',#1775,#370);
#267=LINE('',#1776,#371);
#268=LINE('',#1780,#372);
#269=LINE('',#1781,#373);
#270=LINE('',#1782,#374);
#271=LINE('',#1784,#375);
#272=LINE('',#1785,#376);
#273=LINE('',#1787,#377);
#274=LINE('',#1788,#378);
#275=LINE('',#1789,#379);
#276=LINE('',#1791,#380);
#277=LINE('',#1792,#381);
#278=LINE('',#1794,#382);
#279=LINE('',#1795,#383);
#280=LINE('',#1796,#384);
#281=VECTOR('',#1139,10.);
#282=VECTOR('',#1140,10.);
#283=VECTOR('',#1141,10.);
#284=VECTOR('',#1142,10.);
#285=VECTOR('',#1149,10.);
#286=VECTOR('',#1154,10.);
#287=VECTOR('',#1157,10.);
#288=VECTOR('',#1162,10.);
#289=VECTOR('',#1165,10.);
#290=VECTOR('',#1168,10.);
#291=VECTOR('',#1171,10.);
#292=VECTOR('',#1174,10.);
#293=VECTOR('',#1177,10.);
#294=VECTOR('',#1180,10.);
#295=VECTOR('',#1181,10.);
#296=VECTOR('',#1186,10.);
#297=VECTOR('',#1189,10.);
#298=VECTOR('',#1192,10.);
#299=VECTOR('',#1195,10.);
#300=VECTOR('',#1196,10.);
#301=VECTOR('',#1197,10.);
#302=VECTOR('',#1198,10.);
#303=VECTOR('',#1199,10.);
#304=VECTOR('',#1200,10.);
#305=VECTOR('',#1205,10.);
#306=VECTOR('',#1208,10.);
#307=VECTOR('',#1211,10.);
#308=VECTOR('',#1212,10.);
#309=VECTOR('',#1213,10.);
#310=VECTOR('',#1214,10.);
#311=VECTOR('',#1215,10.);
#312=VECTOR('',#1218,10.);
#313=VECTOR('',#1219,10.);
#314=VECTOR('',#1220,10.);
#315=VECTOR('',#1223,10.);
#316=VECTOR('',#1224,10.);
#317=VECTOR('',#1227,10.);
#318=VECTOR('',#1228,10.);
#319=VECTOR('',#1231,10.);
#320=VECTOR('',#1232,10.);
#321=VECTOR('',#1233,10.);
#322=VECTOR('',#1234,10.);
#323=VECTOR('',#1235,10.);
#324=VECTOR('',#1236,10.);
#325=VECTOR('',#1237,10.);
#326=VECTOR('',#1240,10.);
#327=VECTOR('',#1241,10.);
#328=VECTOR('',#1244,10.);
#329=VECTOR('',#1247,10.);
#330=VECTOR('',#1248,10.);
#331=VECTOR('',#1249,10.);
#332=VECTOR('',#1250,10.);
#333=VECTOR('',#1251,10.);
#334=VECTOR('',#1258,10.);
#335=VECTOR('',#1259,10.);
#336=VECTOR('',#1260,10.);
#337=VECTOR('',#1261,10.);
#338=VECTOR('',#1262,10.);
#339=VECTOR('',#1269,2.5);
#340=VECTOR('',#1276,2.5);
#341=VECTOR('',#1285,10.);
#342=VECTOR('',#1286,10.);
#343=VECTOR('',#1287,10.);
#344=VECTOR('',#1290,10.);
#345=VECTOR('',#1291,10.);
#346=VECTOR('',#1292,10.);
#347=VECTOR('',#1293,10.);
#348=VECTOR('',#1300,10.);
#349=VECTOR('',#1301,10.);
#350=VECTOR('',#1302,10.);
#351=VECTOR('',#1303,10.);
#352=VECTOR('',#1310,2.5);
#353=VECTOR('',#1317,2.5);
#354=VECTOR('',#1328,10.);
#355=VECTOR('',#1331,10.);
#356=VECTOR('',#1334,10.);
#357=VECTOR('',#1335,10.);
#358=VECTOR('',#1338,10.);
#359=VECTOR('',#1343,10.);
#360=VECTOR('',#1346,10.);
#361=VECTOR('',#1347,10.);
#362=VECTOR('',#1350,10.);
#363=VECTOR('',#1351,10.);
#364=VECTOR('',#1352,10.);
#365=VECTOR('',#1357,10.);
#366=VECTOR('',#1358,10.);
#367=VECTOR('',#1361,10.);
#368=VECTOR('',#1364,10.);
#369=VECTOR('',#1369,10.);
#370=VECTOR('',#1370,10.);
#371=VECTOR('',#1371,10.);
#372=VECTOR('',#1378,10.);
#373=VECTOR('',#1379,10.);
#374=VECTOR('',#1380,10.);
#375=VECTOR('',#1383,10.);
#376=VECTOR('',#1384,10.);
#377=VECTOR('',#1387,10.);
#378=VECTOR('',#1388,10.);
#379=VECTOR('',#1389,10.);
#380=VECTOR('',#1392,10.);
#381=VECTOR('',#1393,10.);
#382=VECTOR('',#1396,10.);
#383=VECTOR('',#1397,10.);
#384=VECTOR('',#1398,10.);
#385=VERTEX_POINT('',#1423);
#386=VERTEX_POINT('',#1424);
#387=VERTEX_POINT('',#1426);
#388=VERTEX_POINT('',#1428);
#389=VERTEX_POINT('',#1432);
#390=VERTEX_POINT('',#1434);
#391=VERTEX_POINT('',#1438);
#392=VERTEX_POINT('',#1439);
#393=VERTEX_POINT('',#1441);
#394=VERTEX_POINT('',#1443);
#395=VERTEX_POINT('',#1447);
#396=VERTEX_POINT('',#1448);
#397=VERTEX_POINT('',#1450);
#398=VERTEX_POINT('',#1452);
#399=VERTEX_POINT('',#1454);
#400=VERTEX_POINT('',#1456);
#401=VERTEX_POINT('',#1458);
#402=VERTEX_POINT('',#1460);
#403=VERTEX_POINT('',#1464);
#404=VERTEX_POINT('',#1466);
#405=VERTEX_POINT('',#1470);
#406=VERTEX_POINT('',#1474);
#407=VERTEX_POINT('',#1478);
#408=VERTEX_POINT('',#1480);
#409=VERTEX_POINT('',#1484);
#410=VERTEX_POINT('',#1485);
#411=VERTEX_POINT('',#1487);
#412=VERTEX_POINT('',#1490);
#413=VERTEX_POINT('',#1492);
#414=VERTEX_POINT('',#1496);
#415=VERTEX_POINT('',#1502);
#416=VERTEX_POINT('',#1503);
#417=VERTEX_POINT('',#1505);
#418=VERTEX_POINT('',#1507);
#419=VERTEX_POINT('',#1512);
#420=VERTEX_POINT('',#1513);
#421=VERTEX_POINT('',#1518);
#422=VERTEX_POINT('',#1522);
#423=VERTEX_POINT('',#1526);
#424=VERTEX_POINT('',#1528);
#425=VERTEX_POINT('',#1530);
#426=VERTEX_POINT('',#1532);
#427=VERTEX_POINT('',#1534);
#428=VERTEX_POINT('',#1536);
#429=VERTEX_POINT('',#1545);
#430=VERTEX_POINT('',#1546);
#431=VERTEX_POINT('',#1548);
#432=VERTEX_POINT('',#1550);
#433=VERTEX_POINT('',#1552);
#434=VERTEX_POINT('',#1554);
#435=VERTEX_POINT('',#1556);
#436=VERTEX_POINT('',#1560);
#437=VERTEX_POINT('',#1561);
#438=VERTEX_POINT('',#1563);
#439=VERTEX_POINT('',#1565);
#440=VERTEX_POINT('',#1567);
#441=VERTEX_POINT('',#1569);
#442=VERTEX_POINT('',#1571);
#443=VERTEX_POINT('',#1586);
#444=VERTEX_POINT('',#1588);
#445=VERTEX_POINT('',#1590);
#446=VERTEX_POINT('',#1615);
#447=VERTEX_POINT('',#1617);
#448=VERTEX_POINT('',#1619);
#449=VERTEX_POINT('',#1633);
#450=VERTEX_POINT('',#1634);
#451=VERTEX_POINT('',#1637);
#452=VERTEX_POINT('',#1641);
#453=VERTEX_POINT('',#1643);
#454=VERTEX_POINT('',#1645);
#455=VERTEX_POINT('',#1647);
#456=VERTEX_POINT('',#1649);
#457=VERTEX_POINT('',#1653);
#458=VERTEX_POINT('',#1654);
#459=VERTEX_POINT('',#1657);
#460=VERTEX_POINT('',#1659);
#461=VERTEX_POINT('',#1661);
#462=VERTEX_POINT('',#1676);
#463=VERTEX_POINT('',#1678);
#464=VERTEX_POINT('',#1680);
#465=VERTEX_POINT('',#1705);
#466=VERTEX_POINT('',#1707);
#467=VERTEX_POINT('',#1709);
#468=VERTEX_POINT('',#1723);
#469=VERTEX_POINT('',#1725);
#470=VERTEX_POINT('',#1727);
#471=VERTEX_POINT('',#1729);
#472=VERTEX_POINT('',#1731);
#473=VERTEX_POINT('',#1734);
#474=VERTEX_POINT('',#1736);
#475=VERTEX_POINT('',#1738);
#476=VERTEX_POINT('',#1740);
#477=VERTEX_POINT('',#1744);
#478=VERTEX_POINT('',#1747);
#479=VERTEX_POINT('',#1751);
#480=VERTEX_POINT('',#1753);
#481=VERTEX_POINT('',#1757);
#482=VERTEX_POINT('',#1759);
#483=VERTEX_POINT('',#1762);
#484=VERTEX_POINT('',#1764);
#485=VERTEX_POINT('',#1766);
#486=VERTEX_POINT('',#1768);
#487=VERTEX_POINT('',#1771);
#488=VERTEX_POINT('',#1773);
#489=EDGE_CURVE('',#385,#386,#177,.T.);
#490=EDGE_CURVE('',#387,#385,#178,.T.);
#491=EDGE_CURVE('',#388,#387,#179,.T.);
#492=EDGE_CURVE('',#388,#386,#180,.T.);
#493=EDGE_CURVE('',#386,#389,#23,.T.);
#494=EDGE_CURVE('',#388,#390,#24,.T.);
#495=EDGE_CURVE('',#390,#389,#181,.T.);
#496=EDGE_CURVE('',#391,#392,#25,.T.);
#497=EDGE_CURVE('',#393,#391,#182,.T.);
#498=EDGE_CURVE('',#393,#394,#26,.T.);
#499=EDGE_CURVE('',#394,#392,#183,.T.);
#500=EDGE_CURVE('',#395,#396,#27,.F.);
#501=EDGE_CURVE('',#397,#396,#184,.T.);
#502=EDGE_CURVE('',#397,#398,#28,.F.);
#503=EDGE_CURVE('',#399,#398,#185,.T.);
#504=EDGE_CURVE('',#399,#400,#29,.F.);
#505=EDGE_CURVE('',#401,#400,#186,.T.);
#506=EDGE_CURVE('',#401,#402,#30,.F.);
#507=EDGE_CURVE('',#395,#402,#187,.T.);
#508=EDGE_CURVE('',#395,#403,#188,.T.);
#509=EDGE_CURVE('',#404,#403,#31,.T.);
#510=EDGE_CURVE('',#396,#404,#189,.F.);
#511=EDGE_CURVE('',#405,#404,#190,.T.);
#512=EDGE_CURVE('',#397,#405,#191,.T.);
#513=EDGE_CURVE('',#406,#405,#32,.T.);
#514=EDGE_CURVE('',#398,#406,#192,.T.);
#515=EDGE_CURVE('',#399,#407,#193,.T.);
#516=EDGE_CURVE('',#408,#407,#33,.T.);
#517=EDGE_CURVE('',#400,#408,#194,.F.);
#518=EDGE_CURVE('',#409,#410,#195,.T.);
#519=EDGE_CURVE('',#411,#410,#196,.T.);
#520=EDGE_CURVE('',#401,#411,#197,.T.);
#521=EDGE_CURVE('',#412,#408,#198,.T.);
#522=EDGE_CURVE('',#412,#413,#199,.T.);
#523=EDGE_CURVE('',#413,#409,#200,.T.);
#524=EDGE_CURVE('',#414,#411,#34,.T.);
#525=EDGE_CURVE('',#402,#414,#201,.F.);
#526=EDGE_CURVE('',#403,#414,#202,.T.);
#527=EDGE_CURVE('',#415,#416,#203,.T.);
#528=EDGE_CURVE('',#416,#417,#204,.T.);
#529=EDGE_CURVE('',#417,#418,#205,.T.);
#530=EDGE_CURVE('',#407,#418,#206,.T.);
#531=EDGE_CURVE('',#415,#406,#207,.T.);
#532=EDGE_CURVE('',#419,#420,#208,.T.);
#533=EDGE_CURVE('',#419,#417,#209,.T.);
#534=EDGE_CURVE('',#420,#416,#210,.T.);
#535=EDGE_CURVE('',#420,#421,#211,.T.);
#536=EDGE_CURVE('',#421,#415,#212,.T.);
#537=EDGE_CURVE('',#422,#419,#213,.T.);
#538=EDGE_CURVE('',#418,#422,#214,.T.);
#539=EDGE_CURVE('',#392,#423,#215,.T.);
#540=EDGE_CURVE('',#424,#394,#216,.T.);
#541=EDGE_CURVE('',#424,#425,#217,.T.);
#542=EDGE_CURVE('',#426,#425,#218,.T.);
#543=EDGE_CURVE('',#426,#427,#219,.T.);
#544=EDGE_CURVE('',#427,#428,#220,.T.);
#545=EDGE_CURVE('',#428,#423,#221,.T.);
#546=EDGE_CURVE('',#428,#413,#222,.T.);
#547=EDGE_CURVE('',#409,#427,#223,.T.);
#548=EDGE_CURVE('',#423,#412,#224,.T.);
#549=EDGE_CURVE('',#429,#430,#225,.T.);
#550=EDGE_CURVE('',#431,#430,#226,.T.);
#551=EDGE_CURVE('',#432,#431,#227,.T.);
#552=EDGE_CURVE('',#432,#433,#228,.T.);
#553=EDGE_CURVE('',#433,#434,#229,.T.);
#554=EDGE_CURVE('',#434,#435,#35,.T.);
#555=EDGE_CURVE('',#435,#429,#36,.T.);
#556=EDGE_CURVE('',#436,#437,#230,.T.);
#557=EDGE_CURVE('',#438,#437,#231,.T.);
#558=EDGE_CURVE('',#439,#438,#232,.T.);
#559=EDGE_CURVE('',#439,#440,#233,.T.);
#560=EDGE_CURVE('',#440,#441,#234,.T.);
#561=EDGE_CURVE('',#441,#442,#37,.T.);
#562=EDGE_CURVE('',#442,#436,#38,.T.);
#563=EDGE_CURVE('',#441,#436,#15,.T.);
#564=EDGE_CURVE('',#442,#443,#235,.T.);
#565=EDGE_CURVE('',#444,#443,#39,.T.);
#566=EDGE_CURVE('',#444,#445,#16,.T.);
#567=EDGE_CURVE('',#443,#445,#40,.T.);
#568=EDGE_CURVE('',#434,#429,#17,.T.);
#569=EDGE_CURVE('',#435,#446,#236,.T.);
#570=EDGE_CURVE('',#447,#446,#41,.T.);
#571=EDGE_CURVE('',#447,#448,#18,.T.);
#572=EDGE_CURVE('',#446,#448,#42,.T.);
#573=EDGE_CURVE('',#449,#450,#43,.T.);
#574=EDGE_CURVE('',#391,#450,#237,.T.);
#575=EDGE_CURVE('',#422,#451,#238,.T.);
#576=EDGE_CURVE('',#451,#449,#239,.T.);
#577=EDGE_CURVE('',#452,#449,#240,.T.);
#578=EDGE_CURVE('',#453,#451,#241,.T.);
#579=EDGE_CURVE('',#453,#454,#242,.T.);
#580=EDGE_CURVE('',#454,#455,#243,.T.);
#581=EDGE_CURVE('',#455,#456,#44,.T.);
#582=EDGE_CURVE('',#456,#452,#45,.T.);
#583=EDGE_CURVE('',#457,#458,#244,.T.);
#584=EDGE_CURVE('',#389,#458,#245,.T.);
#585=EDGE_CURVE('',#390,#459,#246,.T.);
#586=EDGE_CURVE('',#459,#460,#247,.T.);
#587=EDGE_CURVE('',#460,#461,#46,.T.);
#588=EDGE_CURVE('',#461,#457,#47,.T.);
#589=EDGE_CURVE('',#460,#457,#19,.T.);
#590=EDGE_CURVE('',#461,#462,#248,.T.);
#591=EDGE_CURVE('',#463,#462,#48,.T.);
#592=EDGE_CURVE('',#463,#464,#20,.T.);
#593=EDGE_CURVE('',#462,#464,#49,.T.);
#594=EDGE_CURVE('',#455,#452,#21,.T.);
#595=EDGE_CURVE('',#456,#465,#249,.T.);
#596=EDGE_CURVE('',#466,#465,#50,.T.);
#597=EDGE_CURVE('',#466,#467,#22,.T.);
#598=EDGE_CURVE('',#465,#467,#51,.T.);
#599=EDGE_CURVE('',#468,#459,#52,.T.);
#600=EDGE_CURVE('',#469,#387,#53,.T.);
#601=EDGE_CURVE('',#469,#470,#250,.T.);
#602=EDGE_CURVE('',#470,#471,#54,.T.);
#603=EDGE_CURVE('',#472,#471,#251,.T.);
#604=EDGE_CURVE('',#472,#433,#55,.T.);
#605=EDGE_CURVE('',#432,#473,#252,.T.);
#606=EDGE_CURVE('',#473,#474,#253,.T.);
#607=EDGE_CURVE('',#474,#475,#56,.T.);
#608=EDGE_CURVE('',#476,#475,#254,.T.);
#609=EDGE_CURVE('',#476,#440,#57,.T.);
#610=EDGE_CURVE('',#424,#439,#58,.T.);
#611=EDGE_CURVE('',#393,#477,#255,.T.);
#612=EDGE_CURVE('',#477,#454,#59,.T.);
#613=EDGE_CURVE('',#453,#478,#256,.T.);
#614=EDGE_CURVE('',#478,#468,#257,.T.);
#615=EDGE_CURVE('',#475,#479,#258,.T.);
#616=EDGE_CURVE('',#479,#480,#259,.T.);
#617=EDGE_CURVE('',#480,#476,#260,.T.);
#618=EDGE_CURVE('',#479,#481,#60,.T.);
#619=EDGE_CURVE('',#482,#481,#261,.T.);
#620=EDGE_CURVE('',#482,#431,#262,.T.);
#621=EDGE_CURVE('',#430,#483,#61,.T.);
#622=EDGE_CURVE('',#484,#483,#263,.T.);
#623=EDGE_CURVE('',#484,#485,#62,.T.);
#624=EDGE_CURVE('',#486,#485,#264,.T.);
#625=EDGE_CURVE('',#486,#385,#63,.T.);
#626=EDGE_CURVE('',#458,#487,#64,.T.);
#627=EDGE_CURVE('',#488,#487,#265,.T.);
#628=EDGE_CURVE('',#488,#421,#266,.T.);
#629=EDGE_CURVE('',#410,#426,#267,.T.);
#630=EDGE_CURVE('',#425,#438,#65,.T.);
#631=EDGE_CURVE('',#437,#480,#66,.T.);
#632=EDGE_CURVE('',#448,#470,#268,.T.);
#633=EDGE_CURVE('',#469,#486,#269,.T.);
#634=EDGE_CURVE('',#485,#447,#270,.T.);
#635=EDGE_CURVE('',#483,#472,#271,.T.);
#636=EDGE_CURVE('',#471,#484,#272,.T.);
#637=EDGE_CURVE('',#445,#474,#273,.T.);
#638=EDGE_CURVE('',#482,#473,#274,.T.);
#639=EDGE_CURVE('',#481,#444,#275,.T.);
#640=EDGE_CURVE('',#467,#477,#276,.T.);
#641=EDGE_CURVE('',#450,#466,#277,.T.);
#642=EDGE_CURVE('',#464,#468,#278,.T.);
#643=EDGE_CURVE('',#488,#478,#279,.T.);
#644=EDGE_CURVE('',#487,#463,#280,.T.);
#645=ORIENTED_EDGE('',*,*,#489,.F.);
#646=ORIENTED_EDGE('',*,*,#490,.F.);
#647=ORIENTED_EDGE('',*,*,#491,.F.);
#648=ORIENTED_EDGE('',*,*,#492,.T.);
#649=ORIENTED_EDGE('',*,*,#493,.F.);
#650=ORIENTED_EDGE('',*,*,#492,.F.);
#651=ORIENTED_EDGE('',*,*,#494,.T.);
#652=ORIENTED_EDGE('',*,*,#495,.T.);
#653=ORIENTED_EDGE('',*,*,#496,.F.);
#654=ORIENTED_EDGE('',*,*,#497,.F.);
#655=ORIENTED_EDGE('',*,*,#498,.T.);
#656=ORIENTED_EDGE('',*,*,#499,.T.);
#657=ORIENTED_EDGE('',*,*,#500,.T.);
#658=ORIENTED_EDGE('',*,*,#501,.F.);
#659=ORIENTED_EDGE('',*,*,#502,.T.);
#660=ORIENTED_EDGE('',*,*,#503,.F.);
#661=ORIENTED_EDGE('',*,*,#504,.T.);
#662=ORIENTED_EDGE('',*,*,#505,.F.);
#663=ORIENTED_EDGE('',*,*,#506,.T.);
#664=ORIENTED_EDGE('',*,*,#507,.F.);
#665=ORIENTED_EDGE('',*,*,#500,.F.);
#666=ORIENTED_EDGE('',*,*,#508,.T.);
#667=ORIENTED_EDGE('',*,*,#509,.F.);
#668=ORIENTED_EDGE('',*,*,#510,.F.);
#669=ORIENTED_EDGE('',*,*,#501,.T.);
#670=ORIENTED_EDGE('',*,*,#510,.T.);
#671=ORIENTED_EDGE('',*,*,#511,.F.);
#672=ORIENTED_EDGE('',*,*,#512,.F.);
#673=ORIENTED_EDGE('',*,*,#502,.F.);
#674=ORIENTED_EDGE('',*,*,#512,.T.);
#675=ORIENTED_EDGE('',*,*,#513,.F.);
#676=ORIENTED_EDGE('',*,*,#514,.F.);
#677=ORIENTED_EDGE('',*,*,#504,.F.);
#678=ORIENTED_EDGE('',*,*,#515,.T.);
#679=ORIENTED_EDGE('',*,*,#516,.F.);
#680=ORIENTED_EDGE('',*,*,#517,.F.);
#681=ORIENTED_EDGE('',*,*,#518,.T.);
#682=ORIENTED_EDGE('',*,*,#519,.F.);
#683=ORIENTED_EDGE('',*,*,#520,.F.);
#684=ORIENTED_EDGE('',*,*,#505,.T.);
#685=ORIENTED_EDGE('',*,*,#517,.T.);
#686=ORIENTED_EDGE('',*,*,#521,.F.);
#687=ORIENTED_EDGE('',*,*,#522,.T.);
#688=ORIENTED_EDGE('',*,*,#523,.T.);
#689=ORIENTED_EDGE('',*,*,#506,.F.);
#690=ORIENTED_EDGE('',*,*,#520,.T.);
#691=ORIENTED_EDGE('',*,*,#524,.F.);
#692=ORIENTED_EDGE('',*,*,#525,.F.);
#693=ORIENTED_EDGE('',*,*,#507,.T.);
#694=ORIENTED_EDGE('',*,*,#525,.T.);
#695=ORIENTED_EDGE('',*,*,#526,.F.);
#696=ORIENTED_EDGE('',*,*,#508,.F.);
#697=ORIENTED_EDGE('',*,*,#527,.T.);
#698=ORIENTED_EDGE('',*,*,#528,.T.);
#699=ORIENTED_EDGE('',*,*,#529,.T.);
#700=ORIENTED_EDGE('',*,*,#530,.F.);
#701=ORIENTED_EDGE('',*,*,#515,.F.);
#702=ORIENTED_EDGE('',*,*,#503,.T.);
#703=ORIENTED_EDGE('',*,*,#514,.T.);
#704=ORIENTED_EDGE('',*,*,#531,.F.);
#705=ORIENTED_EDGE('',*,*,#532,.F.);
#706=ORIENTED_EDGE('',*,*,#533,.T.);
#707=ORIENTED_EDGE('',*,*,#528,.F.);
#708=ORIENTED_EDGE('',*,*,#534,.F.);
#709=ORIENTED_EDGE('',*,*,#535,.F.);
#710=ORIENTED_EDGE('',*,*,#534,.T.);
#711=ORIENTED_EDGE('',*,*,#527,.F.);
#712=ORIENTED_EDGE('',*,*,#536,.F.);
#713=ORIENTED_EDGE('',*,*,#537,.F.);
#714=ORIENTED_EDGE('',*,*,#538,.F.);
#715=ORIENTED_EDGE('',*,*,#529,.F.);
#716=ORIENTED_EDGE('',*,*,#533,.F.);
#717=ORIENTED_EDGE('',*,*,#539,.F.);
#718=ORIENTED_EDGE('',*,*,#499,.F.);
#719=ORIENTED_EDGE('',*,*,#540,.F.);
#720=ORIENTED_EDGE('',*,*,#541,.T.);
#721=ORIENTED_EDGE('',*,*,#542,.F.);
#722=ORIENTED_EDGE('',*,*,#543,.T.);
#723=ORIENTED_EDGE('',*,*,#544,.T.);
#724=ORIENTED_EDGE('',*,*,#545,.T.);
#725=ORIENTED_EDGE('',*,*,#523,.F.);
#726=ORIENTED_EDGE('',*,*,#546,.F.);
#727=ORIENTED_EDGE('',*,*,#544,.F.);
#728=ORIENTED_EDGE('',*,*,#547,.F.);
#729=ORIENTED_EDGE('',*,*,#548,.F.);
#730=ORIENTED_EDGE('',*,*,#545,.F.);
#731=ORIENTED_EDGE('',*,*,#546,.T.);
#732=ORIENTED_EDGE('',*,*,#522,.F.);
#733=ORIENTED_EDGE('',*,*,#549,.T.);
#734=ORIENTED_EDGE('',*,*,#550,.F.);
#735=ORIENTED_EDGE('',*,*,#551,.F.);
#736=ORIENTED_EDGE('',*,*,#552,.T.);
#737=ORIENTED_EDGE('',*,*,#553,.T.);
#738=ORIENTED_EDGE('',*,*,#554,.T.);
#739=ORIENTED_EDGE('',*,*,#555,.T.);
#740=ORIENTED_EDGE('',*,*,#556,.T.);
#741=ORIENTED_EDGE('',*,*,#557,.F.);
#742=ORIENTED_EDGE('',*,*,#558,.F.);
#743=ORIENTED_EDGE('',*,*,#559,.T.);
#744=ORIENTED_EDGE('',*,*,#560,.T.);
#745=ORIENTED_EDGE('',*,*,#561,.T.);
#746=ORIENTED_EDGE('',*,*,#562,.T.);
#747=ORIENTED_EDGE('',*,*,#563,.T.);
#748=ORIENTED_EDGE('',*,*,#562,.F.);
#749=ORIENTED_EDGE('',*,*,#564,.T.);
#750=ORIENTED_EDGE('',*,*,#565,.F.);
#751=ORIENTED_EDGE('',*,*,#566,.T.);
#752=ORIENTED_EDGE('',*,*,#567,.F.);
#753=ORIENTED_EDGE('',*,*,#564,.F.);
#754=ORIENTED_EDGE('',*,*,#561,.F.);
#755=ORIENTED_EDGE('',*,*,#568,.T.);
#756=ORIENTED_EDGE('',*,*,#555,.F.);
#757=ORIENTED_EDGE('',*,*,#569,.T.);
#758=ORIENTED_EDGE('',*,*,#570,.F.);
#759=ORIENTED_EDGE('',*,*,#571,.T.);
#760=ORIENTED_EDGE('',*,*,#572,.F.);
#761=ORIENTED_EDGE('',*,*,#569,.F.);
#762=ORIENTED_EDGE('',*,*,#554,.F.);
#763=ORIENTED_EDGE('',*,*,#573,.T.);
#764=ORIENTED_EDGE('',*,*,#574,.F.);
#765=ORIENTED_EDGE('',*,*,#496,.T.);
#766=ORIENTED_EDGE('',*,*,#539,.T.);
#767=ORIENTED_EDGE('',*,*,#548,.T.);
#768=ORIENTED_EDGE('',*,*,#521,.T.);
#769=ORIENTED_EDGE('',*,*,#516,.T.);
#770=ORIENTED_EDGE('',*,*,#530,.T.);
#771=ORIENTED_EDGE('',*,*,#538,.T.);
#772=ORIENTED_EDGE('',*,*,#575,.T.);
#773=ORIENTED_EDGE('',*,*,#576,.T.);
#774=ORIENTED_EDGE('',*,*,#577,.T.);
#775=ORIENTED_EDGE('',*,*,#576,.F.);
#776=ORIENTED_EDGE('',*,*,#578,.F.);
#777=ORIENTED_EDGE('',*,*,#579,.T.);
#778=ORIENTED_EDGE('',*,*,#580,.T.);
#779=ORIENTED_EDGE('',*,*,#581,.T.);
#780=ORIENTED_EDGE('',*,*,#582,.T.);
#781=ORIENTED_EDGE('',*,*,#583,.T.);
#782=ORIENTED_EDGE('',*,*,#584,.F.);
#783=ORIENTED_EDGE('',*,*,#495,.F.);
#784=ORIENTED_EDGE('',*,*,#585,.T.);
#785=ORIENTED_EDGE('',*,*,#586,.T.);
#786=ORIENTED_EDGE('',*,*,#587,.T.);
#787=ORIENTED_EDGE('',*,*,#588,.T.);
#788=ORIENTED_EDGE('',*,*,#589,.T.);
#789=ORIENTED_EDGE('',*,*,#588,.F.);
#790=ORIENTED_EDGE('',*,*,#590,.T.);
#791=ORIENTED_EDGE('',*,*,#591,.F.);
#792=ORIENTED_EDGE('',*,*,#592,.T.);
#793=ORIENTED_EDGE('',*,*,#593,.F.);
#794=ORIENTED_EDGE('',*,*,#590,.F.);
#795=ORIENTED_EDGE('',*,*,#587,.F.);
#796=ORIENTED_EDGE('',*,*,#594,.T.);
#797=ORIENTED_EDGE('',*,*,#582,.F.);
#798=ORIENTED_EDGE('',*,*,#595,.T.);
#799=ORIENTED_EDGE('',*,*,#596,.F.);
#800=ORIENTED_EDGE('',*,*,#597,.T.);
#801=ORIENTED_EDGE('',*,*,#598,.F.);
#802=ORIENTED_EDGE('',*,*,#595,.F.);
#803=ORIENTED_EDGE('',*,*,#581,.F.);
#804=ORIENTED_EDGE('',*,*,#599,.T.);
#805=ORIENTED_EDGE('',*,*,#585,.F.);
#806=ORIENTED_EDGE('',*,*,#494,.F.);
#807=ORIENTED_EDGE('',*,*,#491,.T.);
#808=ORIENTED_EDGE('',*,*,#600,.F.);
#809=ORIENTED_EDGE('',*,*,#601,.T.);
#810=ORIENTED_EDGE('',*,*,#602,.T.);
#811=ORIENTED_EDGE('',*,*,#603,.F.);
#812=ORIENTED_EDGE('',*,*,#604,.T.);
#813=ORIENTED_EDGE('',*,*,#552,.F.);
#814=ORIENTED_EDGE('',*,*,#605,.T.);
#815=ORIENTED_EDGE('',*,*,#606,.T.);
#816=ORIENTED_EDGE('',*,*,#607,.T.);
#817=ORIENTED_EDGE('',*,*,#608,.F.);
#818=ORIENTED_EDGE('',*,*,#609,.T.);
#819=ORIENTED_EDGE('',*,*,#559,.F.);
#820=ORIENTED_EDGE('',*,*,#610,.F.);
#821=ORIENTED_EDGE('',*,*,#540,.T.);
#822=ORIENTED_EDGE('',*,*,#498,.F.);
#823=ORIENTED_EDGE('',*,*,#611,.T.);
#824=ORIENTED_EDGE('',*,*,#612,.T.);
#825=ORIENTED_EDGE('',*,*,#579,.F.);
#826=ORIENTED_EDGE('',*,*,#613,.T.);
#827=ORIENTED_EDGE('',*,*,#614,.T.);
#828=ORIENTED_EDGE('',*,*,#615,.T.);
#829=ORIENTED_EDGE('',*,*,#616,.T.);
#830=ORIENTED_EDGE('',*,*,#617,.T.);
#831=ORIENTED_EDGE('',*,*,#608,.T.);
#832=ORIENTED_EDGE('',*,*,#618,.T.);
#833=ORIENTED_EDGE('',*,*,#619,.F.);
#834=ORIENTED_EDGE('',*,*,#620,.T.);
#835=ORIENTED_EDGE('',*,*,#550,.T.);
#836=ORIENTED_EDGE('',*,*,#621,.T.);
#837=ORIENTED_EDGE('',*,*,#622,.F.);
#838=ORIENTED_EDGE('',*,*,#623,.T.);
#839=ORIENTED_EDGE('',*,*,#624,.F.);
#840=ORIENTED_EDGE('',*,*,#625,.T.);
#841=ORIENTED_EDGE('',*,*,#489,.T.);
#842=ORIENTED_EDGE('',*,*,#493,.T.);
#843=ORIENTED_EDGE('',*,*,#584,.T.);
#844=ORIENTED_EDGE('',*,*,#626,.T.);
#845=ORIENTED_EDGE('',*,*,#627,.F.);
#846=ORIENTED_EDGE('',*,*,#628,.T.);
#847=ORIENTED_EDGE('',*,*,#536,.T.);
#848=ORIENTED_EDGE('',*,*,#531,.T.);
#849=ORIENTED_EDGE('',*,*,#513,.T.);
#850=ORIENTED_EDGE('',*,*,#511,.T.);
#851=ORIENTED_EDGE('',*,*,#509,.T.);
#852=ORIENTED_EDGE('',*,*,#526,.T.);
#853=ORIENTED_EDGE('',*,*,#524,.T.);
#854=ORIENTED_EDGE('',*,*,#519,.T.);
#855=ORIENTED_EDGE('',*,*,#629,.T.);
#856=ORIENTED_EDGE('',*,*,#542,.T.);
#857=ORIENTED_EDGE('',*,*,#630,.T.);
#858=ORIENTED_EDGE('',*,*,#557,.T.);
#859=ORIENTED_EDGE('',*,*,#631,.T.);
#860=ORIENTED_EDGE('',*,*,#616,.F.);
#861=ORIENTED_EDGE('',*,*,#632,.T.);
#862=ORIENTED_EDGE('',*,*,#601,.F.);
#863=ORIENTED_EDGE('',*,*,#633,.T.);
#864=ORIENTED_EDGE('',*,*,#624,.T.);
#865=ORIENTED_EDGE('',*,*,#634,.T.);
#866=ORIENTED_EDGE('',*,*,#570,.T.);
#867=ORIENTED_EDGE('',*,*,#572,.T.);
#868=ORIENTED_EDGE('',*,*,#635,.T.);
#869=ORIENTED_EDGE('',*,*,#603,.T.);
#870=ORIENTED_EDGE('',*,*,#636,.T.);
#871=ORIENTED_EDGE('',*,*,#622,.T.);
#872=ORIENTED_EDGE('',*,*,#637,.T.);
#873=ORIENTED_EDGE('',*,*,#606,.F.);
#874=ORIENTED_EDGE('',*,*,#638,.F.);
#875=ORIENTED_EDGE('',*,*,#619,.T.);
#876=ORIENTED_EDGE('',*,*,#639,.T.);
#877=ORIENTED_EDGE('',*,*,#565,.T.);
#878=ORIENTED_EDGE('',*,*,#567,.T.);
#879=ORIENTED_EDGE('',*,*,#640,.T.);
#880=ORIENTED_EDGE('',*,*,#611,.F.);
#881=ORIENTED_EDGE('',*,*,#497,.T.);
#882=ORIENTED_EDGE('',*,*,#574,.T.);
#883=ORIENTED_EDGE('',*,*,#641,.T.);
#884=ORIENTED_EDGE('',*,*,#596,.T.);
#885=ORIENTED_EDGE('',*,*,#598,.T.);
#886=ORIENTED_EDGE('',*,*,#642,.T.);
#887=ORIENTED_EDGE('',*,*,#614,.F.);
#888=ORIENTED_EDGE('',*,*,#643,.F.);
#889=ORIENTED_EDGE('',*,*,#627,.T.);
#890=ORIENTED_EDGE('',*,*,#644,.T.);
#891=ORIENTED_EDGE('',*,*,#591,.T.);
#892=ORIENTED_EDGE('',*,*,#593,.T.);
#893=ORIENTED_EDGE('',*,*,#563,.F.);
#894=ORIENTED_EDGE('',*,*,#560,.F.);
#895=ORIENTED_EDGE('',*,*,#609,.F.);
#896=ORIENTED_EDGE('',*,*,#617,.F.);
#897=ORIENTED_EDGE('',*,*,#631,.F.);
#898=ORIENTED_EDGE('',*,*,#556,.F.);
#899=ORIENTED_EDGE('',*,*,#571,.F.);
#900=ORIENTED_EDGE('',*,*,#634,.F.);
#901=ORIENTED_EDGE('',*,*,#623,.F.);
#902=ORIENTED_EDGE('',*,*,#636,.F.);
#903=ORIENTED_EDGE('',*,*,#602,.F.);
#904=ORIENTED_EDGE('',*,*,#632,.F.);
#905=ORIENTED_EDGE('',*,*,#568,.F.);
#906=ORIENTED_EDGE('',*,*,#553,.F.);
#907=ORIENTED_EDGE('',*,*,#604,.F.);
#908=ORIENTED_EDGE('',*,*,#635,.F.);
#909=ORIENTED_EDGE('',*,*,#621,.F.);
#910=ORIENTED_EDGE('',*,*,#549,.F.);
#911=ORIENTED_EDGE('',*,*,#566,.F.);
#912=ORIENTED_EDGE('',*,*,#639,.F.);
#913=ORIENTED_EDGE('',*,*,#618,.F.);
#914=ORIENTED_EDGE('',*,*,#615,.F.);
#915=ORIENTED_EDGE('',*,*,#607,.F.);
#916=ORIENTED_EDGE('',*,*,#637,.F.);
#917=ORIENTED_EDGE('',*,*,#594,.F.);
#918=ORIENTED_EDGE('',*,*,#580,.F.);
#919=ORIENTED_EDGE('',*,*,#612,.F.);
#920=ORIENTED_EDGE('',*,*,#640,.F.);
#921=ORIENTED_EDGE('',*,*,#597,.F.);
#922=ORIENTED_EDGE('',*,*,#641,.F.);
#923=ORIENTED_EDGE('',*,*,#573,.F.);
#924=ORIENTED_EDGE('',*,*,#577,.F.);
#925=ORIENTED_EDGE('',*,*,#589,.F.);
#926=ORIENTED_EDGE('',*,*,#586,.F.);
#927=ORIENTED_EDGE('',*,*,#599,.F.);
#928=ORIENTED_EDGE('',*,*,#642,.F.);
#929=ORIENTED_EDGE('',*,*,#592,.F.);
#930=ORIENTED_EDGE('',*,*,#644,.F.);
#931=ORIENTED_EDGE('',*,*,#626,.F.);
#932=ORIENTED_EDGE('',*,*,#583,.F.);
#933=ORIENTED_EDGE('',*,*,#629,.F.);
#934=ORIENTED_EDGE('',*,*,#518,.F.);
#935=ORIENTED_EDGE('',*,*,#547,.T.);
#936=ORIENTED_EDGE('',*,*,#543,.F.);
#937=ORIENTED_EDGE('',*,*,#630,.F.);
#938=ORIENTED_EDGE('',*,*,#541,.F.);
#939=ORIENTED_EDGE('',*,*,#610,.T.);
#940=ORIENTED_EDGE('',*,*,#558,.T.);
#941=ORIENTED_EDGE('',*,*,#620,.F.);
#942=ORIENTED_EDGE('',*,*,#638,.T.);
#943=ORIENTED_EDGE('',*,*,#605,.F.);
#944=ORIENTED_EDGE('',*,*,#551,.T.);
#945=ORIENTED_EDGE('',*,*,#575,.F.);
#946=ORIENTED_EDGE('',*,*,#537,.T.);
#947=ORIENTED_EDGE('',*,*,#532,.T.);
#948=ORIENTED_EDGE('',*,*,#535,.T.);
#949=ORIENTED_EDGE('',*,*,#628,.F.);
#950=ORIENTED_EDGE('',*,*,#643,.T.);
#951=ORIENTED_EDGE('',*,*,#613,.F.);
#952=ORIENTED_EDGE('',*,*,#578,.T.);
#953=ORIENTED_EDGE('',*,*,#625,.F.);
#954=ORIENTED_EDGE('',*,*,#633,.F.);
#955=ORIENTED_EDGE('',*,*,#600,.T.);
#956=ORIENTED_EDGE('',*,*,#490,.T.);
#957=PLANE('',#1045);
#958=PLANE('',#1052);
#959=PLANE('',#1059);
#960=PLANE('',#1064);
#961=PLANE('',#1067);
#962=PLANE('',#1068);
#963=PLANE('',#1069);
#964=PLANE('',#1070);
#965=PLANE('',#1071);
#966=PLANE('',#1072);
#967=PLANE('',#1073);
#968=PLANE('',#1074);
#969=PLANE('',#1075);
#970=PLANE('',#1078);
#971=PLANE('',#1087);
#972=PLANE('',#1089);
#973=PLANE('',#1092);
#974=PLANE('',#1101);
#975=PLANE('',#1110);
#976=PLANE('',#1111);
#977=PLANE('',#1119);
#978=PLANE('',#1120);
#979=PLANE('',#1121);
#980=PLANE('',#1122);
#981=PLANE('',#1123);
#982=PLANE('',#1130);
#983=PLANE('',#1132);
#984=PLANE('',#1133);
#985=ADVANCED_FACE('',(#85),#957,.T.);
#986=ADVANCED_FACE('',(#86),#67,.T.);
#987=ADVANCED_FACE('',(#87),#68,.T.);
#988=ADVANCED_FACE('',(#88),#958,.T.);
#989=ADVANCED_FACE('',(#89),#69,.F.);
#990=ADVANCED_FACE('',(#90),#959,.F.);
#991=ADVANCED_FACE('',(#91),#70,.F.);
#992=ADVANCED_FACE('',(#92),#71,.F.);
#993=ADVANCED_FACE('',(#93),#960,.F.);
#994=ADVANCED_FACE('',(#94),#72,.F.);
#995=ADVANCED_FACE('',(#95),#961,.F.);
#996=ADVANCED_FACE('',(#96),#962,.F.);
#997=ADVANCED_FACE('',(#97),#963,.F.);
#998=ADVANCED_FACE('',(#98),#964,.F.);
#999=ADVANCED_FACE('',(#99),#965,.F.);
#1000=ADVANCED_FACE('',(#100),#966,.T.);
#1001=ADVANCED_FACE('',(#101),#967,.F.);
#1002=ADVANCED_FACE('',(#102),#968,.F.);
#1003=ADVANCED_FACE('',(#103),#969,.T.);
#1004=ADVANCED_FACE('',(#104),#970,.T.);
#1005=ADVANCED_FACE('',(#105),#73,.F.);
#1006=ADVANCED_FACE('',(#106),#74,.F.);
#1007=ADVANCED_FACE('',(#107),#971,.T.);
#1008=ADVANCED_FACE('',(#108),#972,.T.);
#1009=ADVANCED_FACE('',(#109),#973,.T.);
#1010=ADVANCED_FACE('',(#110),#75,.F.);
#1011=ADVANCED_FACE('',(#111),#76,.F.);
#1012=ADVANCED_FACE('',(#112),#974,.F.);
#1013=ADVANCED_FACE('',(#113),#975,.T.);
#1014=ADVANCED_FACE('',(#114),#976,.T.);
#1015=ADVANCED_FACE('',(#115),#977,.T.);
#1016=ADVANCED_FACE('',(#116),#978,.T.);
#1017=ADVANCED_FACE('',(#117),#979,.T.);
#1018=ADVANCED_FACE('',(#118),#980,.T.);
#1019=ADVANCED_FACE('',(#119),#981,.T.);
#1020=ADVANCED_FACE('',(#120),#77,.T.);
#1021=ADVANCED_FACE('',(#121),#78,.T.);
#1022=ADVANCED_FACE('',(#122),#79,.T.);
#1023=ADVANCED_FACE('',(#123),#80,.T.);
#1024=ADVANCED_FACE('',(#124),#81,.T.);
#1025=ADVANCED_FACE('',(#125),#82,.T.);
#1026=ADVANCED_FACE('',(#126),#982,.F.);
#1027=ADVANCED_FACE('',(#127),#83,.T.);
#1028=ADVANCED_FACE('',(#128),#983,.T.);
#1029=ADVANCED_FACE('',(#129),#984,.T.);
#1030=ADVANCED_FACE('',(#130),#84,.T.);
#1031=CLOSED_SHELL('',(#985,#986,#987,#988,#989,#990,#991,#992,#993,#994,
#995,#996,#997,#998,#999,#1000,#1001,#1002,#1003,#1004,#1005,#1006,#1007,
#1008,#1009,#1010,#1011,#1012,#1013,#1014,#1015,#1016,#1017,#1018,#1019,
#1020,#1021,#1022,#1023,#1024,#1025,#1026,#1027,#1028,#1029,#1030));
#1032=DERIVED_UNIT_ELEMENT(#1034,1.);
#1033=DERIVED_UNIT_ELEMENT(#1813,-3.);
#1034=(
MASS_UNIT()
NAMED_UNIT(*)
SI_UNIT(.KILO.,.GRAM.)
);
#1035=DERIVED_UNIT((#1032,#1033));
#1036=MEASURE_REPRESENTATION_ITEM('density measure',
POSITIVE_RATIO_MEASURE(7850.),#1035);
#1037=PROPERTY_DEFINITION_REPRESENTATION(#1042,#1039);
#1038=PROPERTY_DEFINITION_REPRESENTATION(#1043,#1040);
#1039=REPRESENTATION('material name',(#1041),#1810);
#1040=REPRESENTATION('density',(#1036),#1810);
#1041=DESCRIPTIVE_REPRESENTATION_ITEM('Steel','Steel');
#1042=PROPERTY_DEFINITION('material property','material name',#1820);
#1043=PROPERTY_DEFINITION('material property','density of part',#1820);
#1044=AXIS2_PLACEMENT_3D('',#1421,#1135,#1136);
#1045=AXIS2_PLACEMENT_3D('',#1422,#1137,#1138);
#1046=AXIS2_PLACEMENT_3D('',#1431,#1143,#1144);
#1047=AXIS2_PLACEMENT_3D('',#1433,#1145,#1146);
#1048=AXIS2_PLACEMENT_3D('',#1435,#1147,#1148);
#1049=AXIS2_PLACEMENT_3D('',#1437,#1150,#1151);
#1050=AXIS2_PLACEMENT_3D('',#1440,#1152,#1153);
#1051=AXIS2_PLACEMENT_3D('',#1444,#1155,#1156);
#1052=AXIS2_PLACEMENT_3D('',#1446,#1158,#1159);
#1053=AXIS2_PLACEMENT_3D('',#1449,#1160,#1161);
#1054=AXIS2_PLACEMENT_3D('',#1453,#1163,#1164);
#1055=AXIS2_PLACEMENT_3D('',#1457,#1166,#1167);
#1056=AXIS2_PLACEMENT_3D('',#1461,#1169,#1170);
#1057=AXIS2_PLACEMENT_3D('',#1463,#1172,#1173);
#1058=AXIS2_PLACEMENT_3D('',#1467,#1175,#1176);
#1059=AXIS2_PLACEMENT_3D('',#1469,#1178,#1179);
#1060=AXIS2_PLACEMENT_3D('',#1473,#1182,#1183);
#1061=AXIS2_PLACEMENT_3D('',#1475,#1184,#1185);
#1062=AXIS2_PLACEMENT_3D('',#1477,#1187,#1188);
#1063=AXIS2_PLACEMENT_3D('',#1481,#1190,#1191);
#1064=AXIS2_PLACEMENT_3D('',#1483,#1193,#1194);
#1065=AXIS2_PLACEMENT_3D('',#1495,#1201,#1202);
#1066=AXIS2_PLACEMENT_3D('',#1497,#1203,#1204);
#1067=AXIS2_PLACEMENT_3D('',#1499,#1206,#1207);
#1068=AXIS2_PLACEMENT_3D('',#1501,#1209,#1210);
#1069=AXIS2_PLACEMENT_3D('',#1511,#1216,#1217);
#1070=AXIS2_PLACEMENT_3D('',#1517,#1221,#1222);
#1071=AXIS2_PLACEMENT_3D('',#1521,#1225,#1226);
#1072=AXIS2_PLACEMENT_3D('',#1525,#1229,#1230);
#1073=AXIS2_PLACEMENT_3D('',#1539,#1238,#1239);
#1074=AXIS2_PLACEMENT_3D('',#1542,#1242,#1243);
#1075=AXIS2_PLACEMENT_3D('',#1544,#1245,#1246);
#1076=AXIS2_PLACEMENT_3D('',#1557,#1252,#1253);
#1077=AXIS2_PLACEMENT_3D('',#1558,#1254,#1255);
#1078=AXIS2_PLACEMENT_3D('',#1559,#1256,#1257);
#1079=AXIS2_PLACEMENT_3D('',#1572,#1263,#1264);
#1080=AXIS2_PLACEMENT_3D('',#1573,#1265,#1266);
#1081=AXIS2_PLACEMENT_3D('',#1574,#1267,#1268);
#1082=AXIS2_PLACEMENT_3D('',#1589,#1270,#1271);
#1083=AXIS2_PLACEMENT_3D('',#1602,#1272,#1273);
#1084=AXIS2_PLACEMENT_3D('',#1603,#1274,#1275);
#1085=AXIS2_PLACEMENT_3D('',#1618,#1277,#1278);
#1086=AXIS2_PLACEMENT_3D('',#1631,#1279,#1280);
#1087=AXIS2_PLACEMENT_3D('',#1632,#1281,#1282);
#1088=AXIS2_PLACEMENT_3D('',#1635,#1283,#1284);
#1089=AXIS2_PLACEMENT_3D('',#1640,#1288,#1289);
#1090=AXIS2_PLACEMENT_3D('',#1650,#1294,#1295);
#1091=AXIS2_PLACEMENT_3D('',#1651,#1296,#1297);
#1092=AXIS2_PLACEMENT_3D('',#1652,#1298,#1299);
#1093=AXIS2_PLACEMENT_3D('',#1662,#1304,#1305);
#1094=AXIS2_PLACEMENT_3D('',#1663,#1306,#1307);
#1095=AXIS2_PLACEMENT_3D('',#1664,#1308,#1309);
#1096=AXIS2_PLACEMENT_3D('',#1679,#1311,#1312);
#1097=AXIS2_PLACEMENT_3D('',#1692,#1313,#1314);
#1098=AXIS2_PLACEMENT_3D('',#1693,#1315,#1316);
#1099=AXIS2_PLACEMENT_3D('',#1708,#1318,#1319);
#1100=AXIS2_PLACEMENT_3D('',#1721,#1320,#1321);
#1101=AXIS2_PLACEMENT_3D('',#1722,#1322,#1323);
#1102=AXIS2_PLACEMENT_3D('',#1724,#1324,#1325);
#1103=AXIS2_PLACEMENT_3D('',#1726,#1326,#1327);
#1104=AXIS2_PLACEMENT_3D('',#1730,#1329,#1330);
#1105=AXIS2_PLACEMENT_3D('',#1733,#1332,#1333);
#1106=AXIS2_PLACEMENT_3D('',#1739,#1336,#1337);
#1107=AXIS2_PLACEMENT_3D('',#1742,#1339,#1340);
#1108=AXIS2_PLACEMENT_3D('',#1743,#1341,#1342);
#1109=AXIS2_PLACEMENT_3D('',#1746,#1344,#1345);
#1110=AXIS2_PLACEMENT_3D('',#1750,#1348,#1349);
#1111=AXIS2_PLACEMENT_3D('',#1756,#1353,#1354);
#1112=AXIS2_PLACEMENT_3D('',#1758,#1355,#1356);
#1113=AXIS2_PLACEMENT_3D('',#1763,#1359,#1360);
#1114=AXIS2_PLACEMENT_3D('',#1767,#1362,#1363);
#1115=AXIS2_PLACEMENT_3D('',#1770,#1365,#1366);
#1116=AXIS2_PLACEMENT_3D('',#1772,#1367,#1368);
#1117=AXIS2_PLACEMENT_3D('',#1777,#1372,#1373);
#1118=AXIS2_PLACEMENT_3D('',#1778,#1374,#1375);
#1119=AXIS2_PLACEMENT_3D('',#1779,#1376,#1377);
#1120=AXIS2_PLACEMENT_3D('',#1783,#1381,#1382);
#1121=AXIS2_PLACEMENT_3D('',#1786,#1385,#1386);
#1122=AXIS2_PLACEMENT_3D('',#1790,#1390,#1391);
#1123=AXIS2_PLACEMENT_3D('',#1793,#1394,#1395);
#1124=AXIS2_PLACEMENT_3D('',#1797,#1399,#1400);
#1125=AXIS2_PLACEMENT_3D('',#1798,#1401,#1402);
#1126=AXIS2_PLACEMENT_3D('',#1799,#1403,#1404);
#1127=AXIS2_PLACEMENT_3D('',#1800,#1405,#1406);
#1128=AXIS2_PLACEMENT_3D('',#1801,#1407,#1408);
#1129=AXIS2_PLACEMENT_3D('',#1802,#1409,#1410);
#1130=AXIS2_PLACEMENT_3D('',#1803,#1411,#1412);
#1131=AXIS2_PLACEMENT_3D('',#1804,#1413,#1414);
#1132=AXIS2_PLACEMENT_3D('',#1805,#1415,#1416);
#1133=AXIS2_PLACEMENT_3D('',#1806,#1417,#1418);
#1134=AXIS2_PLACEMENT_3D('',#1807,#1419,#1420);
#1135=DIRECTION('axis',(0.,0.,1.));
#1136=DIRECTION('refdir',(1.,0.,0.));
#1137=DIRECTION('center_axis',(-0.999999939686231,0.,-0.000347314748100092));
#1138=DIRECTION('ref_axis',(-0.000347314748100092,-1.51023655613526E-18,
0.999999939686231));
#1139=DIRECTION('',(-0.000347314748100092,0.,0.999999939686231));
#1140=DIRECTION('',(0.,1.,0.));
#1141=DIRECTION('',(0.000347314748100092,1.51023655613526E-18,-0.999999939686231));
#1142=DIRECTION('',(0.,1.,0.));
#1143=DIRECTION('center_axis',(0.,1.,0.));
#1144=DIRECTION('ref_axis',(-0.999999999194724,0.,-4.01316770946476E-5));
#1145=DIRECTION('center_axis',(0.,1.,0.));
#1146=DIRECTION('ref_axis',(-0.999999999194724,0.,-4.01316770946476E-5));
#1147=DIRECTION('center_axis',(-9.87656429741912E-34,1.,-3.96363089507731E-38));
#1148=DIRECTION('ref_axis',(-0.999999999194724,-9.87656430537248E-34,-4.01316770946476E-5));
#1149=DIRECTION('',(0.,1.,0.));
#1150=DIRECTION('center_axis',(0.,1.,0.));
#1151=DIRECTION('ref_axis',(-6.42326718164044E-8,0.,0.999999999999998));
#1152=DIRECTION('center_axis',(0.,1.,0.));
#1153=DIRECTION('ref_axis',(-6.42326718164044E-8,0.,0.999999999999998));
#1154=DIRECTION('',(0.,1.,0.));
#1155=DIRECTION('center_axis',(1.26625863494641E-38,1.,-1.97136223535235E-31));
#1156=DIRECTION('ref_axis',(-6.42326718164044E-8,1.97136223535235E-31,0.999999999999998));
#1157=DIRECTION('',(0.,1.,0.));
#1158=DIRECTION('center_axis',(2.6615066717227E-22,1.,-9.25187517068093E-18));
#1159=DIRECTION('ref_axis',(1.,-2.6615066717227E-22,0.));
#1160=DIRECTION('center_axis',(-2.6615066717227E-22,-1.,9.25187517068093E-18));
#1161=DIRECTION('ref_axis',(2.87672133651222E-5,0.,-0.999999999586224));
#1162=DIRECTION('',(0.000347314748100092,-9.25187470510352E-18,-0.999999939686231));
#1163=DIRECTION('center_axis',(-2.6615066717227E-22,-1.,9.25187517068093E-18));
#1164=DIRECTION('ref_axis',(-0.999999999194724,0.,-4.01316770946476E-5));
#1165=DIRECTION('',(-1.,2.66150669148161E-22,2.13566540062166E-13));
#1166=DIRECTION('center_axis',(-2.6615066717227E-22,-1.,9.25187517068093E-18));
#1167=DIRECTION('ref_axis',(-6.42326718164044E-8,0.,0.999999999999998));
#1168=DIRECTION('',(-0.000347314747989951,9.25187470510352E-18,0.999999939686231));
#1169=DIRECTION('center_axis',(-2.6615066717227E-22,-1.,9.25187517068093E-18));
#1170=DIRECTION('ref_axis',(0.999999999194724,0.,4.01316776721914E-5));
#1171=DIRECTION('',(0.999999969043522,2.03592998314654E-21,0.000248823141213036));
#1172=DIRECTION('center_axis',(0.,1.,0.));
#1173=DIRECTION('ref_axis',(2.87672133651222E-5,0.,-0.999999999586224));
#1174=DIRECTION('',(0.,1.,0.));
#1175=DIRECTION('center_axis',(-2.6615066717227E-22,-1.,9.25187517068093E-18));
#1176=DIRECTION('ref_axis',(2.87672133651222E-5,0.,-0.999999999586224));
#1177=DIRECTION('',(0.,-1.,0.));
#1178=DIRECTION('center_axis',(-0.999999939686231,0.,-0.000347314748100092));
#1179=DIRECTION('ref_axis',(-0.000347314748100092,-1.51023655613526E-18,
0.999999939686231));
#1180=DIRECTION('',(0.000347314748100092,-9.25187470510352E-18,-0.999999939686231));
#1181=DIRECTION('',(0.,1.,0.));
#1182=DIRECTION('center_axis',(0.,1.,0.));
#1183=DIRECTION('ref_axis',(-0.999999999194724,0.,-4.01316770946476E-5));
#1184=DIRECTION('center_axis',(-2.6615066717227E-22,-1.,9.25187517068093E-18));
#1185=DIRECTION('ref_axis',(-0.999999999194724,0.,-4.01316770946476E-5));
#1186=DIRECTION('',(0.,1.,0.));
#1187=DIRECTION('center_axis',(0.,1.,0.));
#1188=DIRECTION('ref_axis',(-6.42326718164044E-8,0.,0.999999999999998));
#1189=DIRECTION('',(0.,1.,0.));
#1190=DIRECTION('center_axis',(-2.6615066717227E-22,-1.,9.25187517068093E-18));
#1191=DIRECTION('ref_axis',(-6.42326718164044E-8,0.,0.999999999999998));
#1192=DIRECTION('',(0.,-1.,0.));
#1193=DIRECTION('center_axis',(0.999999939686231,0.,0.000347314747989951));
#1194=DIRECTION('ref_axis',(0.000347314747989951,1.72968732980242E-18,-0.999999939686231));
#1195=DIRECTION('',(0.,1.,0.));
#1196=DIRECTION('',(-0.000347314747989951,9.25187470510352E-18,0.999999939686231));
#1197=DIRECTION('',(0.,1.,0.));
#1198=DIRECTION('',(-0.000347314747989951,9.25187470510352E-18,0.999999939686231));
#1199=DIRECTION('',(0.,-1.,0.));
#1200=DIRECTION('',(0.000347314747989951,0.,-0.999999939686231));
#1201=DIRECTION('center_axis',(0.,1.,0.));
#1202=DIRECTION('ref_axis',(0.999999999194724,0.,4.01316776721914E-5));
#1203=DIRECTION('center_axis',(-2.6615066717227E-22,-1.,9.25187517068093E-18));
#1204=DIRECTION('ref_axis',(0.999999999194724,0.,4.01316776721914E-5));
#1205=DIRECTION('',(0.,-1.,0.));
#1206=DIRECTION('center_axis',(0.000248823141213036,0.,-0.999999969043522));
#1207=DIRECTION('ref_axis',(-0.999999969043522,-5.37416720844381E-18,-0.000248823141213036));
#1208=DIRECTION('',(0.999999969043522,2.03592998314654E-21,0.000248823141213036));
#1209=DIRECTION('center_axis',(2.13566540062166E-13,0.,1.));
#1210=DIRECTION('ref_axis',(1.,4.20538298829469E-18,-2.13566540062166E-13));
#1211=DIRECTION('',(0.,-1.,0.));
#1212=DIRECTION('',(1.,0.,-2.13566540062166E-13));
#1213=DIRECTION('',(0.,1.,0.));
#1214=DIRECTION('',(-1.,2.66150669148161E-22,2.13566540062166E-13));
#1215=DIRECTION('',(-1.,2.66150669148161E-22,2.13566540062166E-13));
#1216=DIRECTION('center_axis',(0.,-1.,0.));
#1217=DIRECTION('ref_axis',(-1.,0.,0.));
#1218=DIRECTION('',(-1.,0.,2.13566540062166E-13));
#1219=DIRECTION('',(0.,0.,-1.));
#1220=DIRECTION('',(0.,0.,-1.));
#1221=DIRECTION('center_axis',(-1.,0.,0.));
#1222=DIRECTION('ref_axis',(0.,1.,0.));
#1223=DIRECTION('',(0.,1.,0.));
#1224=DIRECTION('',(0.,-9.25187517068093E-18,-1.));
#1225=DIRECTION('center_axis',(1.,0.,0.));
#1226=DIRECTION('ref_axis',(0.,-1.,0.));
#1227=DIRECTION('',(0.,-1.,0.));
#1228=DIRECTION('',(0.,9.25187517068093E-18,1.));
#1229=DIRECTION('center_axis',(0.999999939686231,0.,0.000347314747989951));
#1230=DIRECTION('ref_axis',(0.000347314747989951,1.72968732980242E-18,-0.999999939686231));
#1231=DIRECTION('',(0.000347314747989951,0.,-0.999999939686231));
#1232=DIRECTION('',(-0.000347314747989951,-1.72968732980242E-18,0.999999939686231));
#1233=DIRECTION('',(0.,1.,0.));
#1234=DIRECTION('',(0.000347314747989951,0.,-0.999999939686231));
#1235=DIRECTION('',(0.,-1.,0.));
#1236=DIRECTION('',(-0.000347314747989951,0.,0.999999939686231));
#1237=DIRECTION('',(0.,1.,0.));
#1238=DIRECTION('center_axis',(0.,-1.,0.));
#1239=DIRECTION('ref_axis',(0.,0.,-1.));
#1240=DIRECTION('',(-1.,0.,0.));
#1241=DIRECTION('',(1.,0.,0.));
#1242=DIRECTION('center_axis',(0.,0.,1.));
#1243=DIRECTION('ref_axis',(-1.,0.,0.));
#1244=DIRECTION('',(-1.,0.,0.));
#1245=DIRECTION('center_axis',(0.999999969043522,0.,0.000248823141213007));
#1246=DIRECTION('ref_axis',(0.,-1.,0.));
#1247=DIRECTION('',(0.,1.,0.));
#1248=DIRECTION('',(0.000248823141213007,0.,-0.999999969043522));
#1249=DIRECTION('',(0.,1.,0.));
#1250=DIRECTION('',(0.000248823141213007,0.,-0.999999969043522));
#1251=DIRECTION('',(0.,1.,0.));
#1252=DIRECTION('center_axis',(-0.999999969043522,0.,-0.000248823141213007));
#1253=DIRECTION('ref_axis',(0.000248823141213178,0.,-0.999999969043522));
#1254=DIRECTION('center_axis',(-0.999999969043522,0.,-0.000248823141213007));
#1255=DIRECTION('ref_axis',(0.000248823141213178,0.,-0.999999969043522));
#1256=DIRECTION('center_axis',(0.999999969043522,0.,0.000248823141213192));
#1257=DIRECTION('ref_axis',(0.,-1.,0.));
#1258=DIRECTION('',(0.,1.,0.));
#1259=DIRECTION('',(0.000248823141213192,0.,-0.999999969043522));
#1260=DIRECTION('',(0.,1.,0.));
#1261=DIRECTION('',(0.000248823141213192,0.,-0.999999969043522));
#1262=DIRECTION('',(0.,1.,0.));
#1263=DIRECTION('center_axis',(-0.999999969043522,0.,-0.000248823141213192));
#1264=DIRECTION('ref_axis',(0.000248823141213178,0.,-0.999999969043522));
#1265=DIRECTION('center_axis',(-0.999999969043522,0.,-0.000248823141213192));
#1266=DIRECTION('ref_axis',(0.000248823141213178,0.,-0.999999969043522));
#1267=DIRECTION('center_axis',(-0.999999969043522,0.,-0.000248823141213178));
#1268=DIRECTION('ref_axis',(0.000248823141213178,0.,-0.999999969043522));
#1269=DIRECTION('',(-0.999999969043522,0.,-0.000248823141213178));
#1270=DIRECTION('center_axis',(0.999999969043522,0.,0.000248823141213192));
#1271=DIRECTION('ref_axis',(0.000248823141213178,0.,-0.999999969043522));
#1272=DIRECTION('center_axis',(0.999999969043522,0.,0.000248823141213192));
#1273=DIRECTION('ref_axis',(0.000248823141213178,0.,-0.999999969043522));
#1274=DIRECTION('center_axis',(-0.999999969043522,0.,-0.000248823141213178));
#1275=DIRECTION('ref_axis',(0.000248823141213178,0.,-0.999999969043522));
#1276=DIRECTION('',(-0.999999969043522,0.,-0.000248823141213178));
#1277=DIRECTION('center_axis',(0.999999969043522,0.,0.000248823141213007));
#1278=DIRECTION('ref_axis',(0.000248823141213178,0.,-0.999999969043522));
#1279=DIRECTION('center_axis',(0.999999969043522,0.,0.000248823141213007));
#1280=DIRECTION('ref_axis',(0.000248823141213178,0.,-0.999999969043522));
#1281=DIRECTION('center_axis',(0.,1.,0.));
#1282=DIRECTION('ref_axis',(-1.,0.,0.));
#1283=DIRECTION('center_axis',(0.,1.,0.));
#1284=DIRECTION('ref_axis',(-1.,0.,0.));
#1285=DIRECTION('',(0.,0.,1.));
#1286=DIRECTION('',(1.,0.,-2.13566540062166E-13));
#1287=DIRECTION('',(0.,0.,1.));
#1288=DIRECTION('center_axis',(-1.,0.,0.));
#1289=DIRECTION('ref_axis',(0.,-1.,0.));
#1290=DIRECTION('',(0.,1.,0.));
#1291=DIRECTION('',(0.,1.,0.));
#1292=DIRECTION('',(0.,0.,1.));
#1293=DIRECTION('',(0.,1.,0.));
#1294=DIRECTION('center_axis',(1.,0.,0.));
#1295=DIRECTION('ref_axis',(0.,0.,1.));
#1296=DIRECTION('center_axis',(1.,0.,0.));
#1297=DIRECTION('ref_axis',(0.,0.,1.));
#1298=DIRECTION('center_axis',(-1.,0.,0.));
#1299=DIRECTION('ref_axis',(0.,-1.,0.));
#1300=DIRECTION('',(0.,1.,0.));
#1301=DIRECTION('',(0.,0.,1.));
#1302=DIRECTION('',(0.,0.,1.));
#1303=DIRECTION('',(0.,1.,0.));
#1304=DIRECTION('center_axis',(1.,0.,0.));
#1305=DIRECTION('ref_axis',(0.,0.,1.));
#1306=DIRECTION('center_axis',(1.,0.,0.));
#1307=DIRECTION('ref_axis',(0.,0.,1.));
#1308=DIRECTION('center_axis',(1.,0.,0.));
#1309=DIRECTION('ref_axis',(0.,0.,1.));
#1310=DIRECTION('',(1.,0.,0.));
#1311=DIRECTION('center_axis',(-1.,0.,0.));
#1312=DIRECTION('ref_axis',(0.,0.,1.));
#1313=DIRECTION('center_axis',(-1.,0.,0.));
#1314=DIRECTION('ref_axis',(0.,0.,1.));
#1315=DIRECTION('center_axis',(1.,0.,0.));
#1316=DIRECTION('ref_axis',(0.,0.,1.));
#1317=DIRECTION('',(1.,0.,0.));
#1318=DIRECTION('center_axis',(-1.,0.,0.));
#1319=DIRECTION('ref_axis',(0.,0.,1.));
#1320=DIRECTION('center_axis',(-1.,0.,0.));
#1321=DIRECTION('ref_axis',(0.,0.,1.));
#1322=DIRECTION('center_axis',(2.6615066717227E-22,1.,-9.25187517068093E-18));
#1323=DIRECTION('ref_axis',(1.,-2.6615066717227E-22,0.));
#1324=DIRECTION('center_axis',(-2.6615066717227E-22,-1.,9.25187517068093E-18));
#1325=DIRECTION('ref_axis',(-1.,0.,0.));
#1326=DIRECTION('center_axis',(2.66150667172582E-22,1.,-9.25187517068093E-18));
#1327=DIRECTION('ref_axis',(2.87672133651222E-5,-9.25187517450914E-18,-0.999999999586224));
#1328=DIRECTION('',(0.000248823141213007,0.,-0.999999969043522));
#1329=DIRECTION('center_axis',(-2.6615066717227E-22,-1.,9.25187517068093E-18));
#1330=DIRECTION('ref_axis',(-1.,0.,0.));
#1331=DIRECTION('',(-0.999999969043522,0.,-0.000248823141213036));
#1332=DIRECTION('center_axis',(-2.6615066717227E-22,-1.,9.25187517068093E-18));
#1333=DIRECTION('ref_axis',(-1.,0.,0.));
#1334=DIRECTION('',(0.999999969043522,5.37416720844381E-18,0.000248823141213036));
#1335=DIRECTION('',(0.000248823141213192,0.,-0.999999969043522));
#1336=DIRECTION('center_axis',(-2.6615066717227E-22,-1.,9.25187517068093E-18));
#1337=DIRECTION('ref_axis',(-1.,0.,0.));
#1338=DIRECTION('',(-0.999999969043522,-4.81482486096809E-33,-0.000248823141213036));
#1339=DIRECTION('center_axis',(-2.6615066717227E-22,-1.,9.25187517068093E-18));
#1340=DIRECTION('ref_axis',(-1.,0.,0.));
#1341=DIRECTION('center_axis',(-1.18518771569029E-33,1.,-4.75635714254255E-38));
#1342=DIRECTION('ref_axis',(0.999999999194724,1.1851877166447E-33,4.01316776721914E-5));
#1343=DIRECTION('',(0.,0.,1.));
#1344=DIRECTION('center_axis',(-2.6615066717227E-22,-1.,9.25187517068093E-18));
#1345=DIRECTION('ref_axis',(-1.,0.,0.));
#1346=DIRECTION('',(-1.,-4.20538298829469E-18,2.13566540062166E-13));
#1347=DIRECTION('',(0.,0.,1.));
#1348=DIRECTION('center_axis',(0.000248823141213192,0.,-0.999999969043522));
#1349=DIRECTION('ref_axis',(-0.999999969043522,0.,-0.000248823141213192));
#1350=DIRECTION('',(0.,1.,0.));
#1351=DIRECTION('',(0.999999969043522,0.,0.000248823141213036));
#1352=DIRECTION('',(0.,-1.,0.));
#1353=DIRECTION('center_axis',(0.,1.,0.));
#1354=DIRECTION('ref_axis',(0.999999969043522,0.,0.000248823141213036));
#1355=DIRECTION('center_axis',(0.,1.,0.));
#1356=DIRECTION('ref_axis',(-1.,0.,0.));
#1357=DIRECTION('',(0.000248823141213192,0.,-0.999999969043522));
#1358=DIRECTION('',(-0.999999969043522,0.,-0.000248823141213036));
#1359=DIRECTION('center_axis',(0.,1.,0.));
#1360=DIRECTION('ref_axis',(-1.,0.,0.));
#1361=DIRECTION('',(0.999999969043522,0.,0.000248823141213036));
#1362=DIRECTION('center_axis',(0.,1.,0.));
#1363=DIRECTION('ref_axis',(-1.,0.,0.));
#1364=DIRECTION('',(0.000248823141213007,0.,-0.999999969043522));
#1365=DIRECTION('center_axis',(0.,1.,0.));
#1366=DIRECTION('ref_axis',(2.87672133651222E-5,0.,-0.999999999586224));
#1367=DIRECTION('center_axis',(0.,1.,0.));
#1368=DIRECTION('ref_axis',(-1.,0.,0.));
#1369=DIRECTION('',(0.,0.,1.));
#1370=DIRECTION('',(1.,0.,-2.13566540062166E-13));
#1371=DIRECTION('',(1.,0.,0.));
#1372=DIRECTION('center_axis',(0.,1.,0.));
#1373=DIRECTION('ref_axis',(0.999999999194724,0.,4.01316776721914E-5));
#1374=DIRECTION('center_axis',(0.,1.,0.));
#1375=DIRECTION('ref_axis',(-1.,0.,0.));
#1376=DIRECTION('center_axis',(-0.999999969043522,0.,-0.000248823141213007));
#1377=DIRECTION('ref_axis',(0.,1.,0.));
#1378=DIRECTION('',(0.,-1.,0.));
#1379=DIRECTION('',(0.,1.,0.));
#1380=DIRECTION('',(0.,-1.,0.));
#1381=DIRECTION('center_axis',(0.000248823141213007,0.,-0.999999969043522));
#1382=DIRECTION('ref_axis',(-0.999999969043522,0.,-0.000248823141213007));
#1383=DIRECTION('',(0.,-1.,0.));
#1384=DIRECTION('',(0.,1.,0.));
#1385=DIRECTION('center_axis',(-0.999999969043522,0.,-0.000248823141213192));
#1386=DIRECTION('ref_axis',(0.,1.,0.));
#1387=DIRECTION('',(0.,-1.,0.));
#1388=DIRECTION('',(0.,-1.,0.));
#1389=DIRECTION('',(0.,-1.,0.));
#1390=DIRECTION('center_axis',(1.,0.,0.));
#1391=DIRECTION('ref_axis',(0.,1.,0.));
#1392=DIRECTION('',(0.,-1.,0.));
#1393=DIRECTION('',(0.,-1.,0.));
#1394=DIRECTION('center_axis',(1.,0.,0.));
#1395=DIRECTION('ref_axis',(0.,1.,0.));
#1396=DIRECTION('',(0.,-1.,0.));
#1397=DIRECTION('',(0.,-1.,0.));
#1398=DIRECTION('',(0.,-1.,0.));
#1399=DIRECTION('center_axis',(0.,-1.,0.));
#1400=DIRECTION('ref_axis',(-1.,0.,0.));
#1401=DIRECTION('center_axis',(0.,-1.,0.));
#1402=DIRECTION('ref_axis',(-1.,0.,0.));
#1403=DIRECTION('center_axis',(0.,-1.,0.));
#1404=DIRECTION('ref_axis',(-1.,0.,0.));
#1405=DIRECTION('center_axis',(0.,-1.,0.));
#1406=DIRECTION('ref_axis',(-1.,0.,0.));
#1407=DIRECTION('center_axis',(0.,-1.,0.));
#1408=DIRECTION('ref_axis',(-1.,0.,0.));
#1409=DIRECTION('center_axis',(0.,-1.,0.));
#1410=DIRECTION('ref_axis',(-1.,0.,0.));
#1411=DIRECTION('center_axis',(0.,0.,-1.));
#1412=DIRECTION('ref_axis',(1.,0.,0.));
#1413=DIRECTION('center_axis',(0.,1.,0.));
#1414=DIRECTION('ref_axis',(0.999999999194724,0.,4.01316776721914E-5));
#1415=DIRECTION('center_axis',(0.000248823141213036,0.,-0.999999969043522));
#1416=DIRECTION('ref_axis',(-0.999999969043522,-5.37416720844381E-18,-0.000248823141213036));
#1417=DIRECTION('center_axis',(2.13566540062166E-13,0.,1.));
#1418=DIRECTION('ref_axis',(1.,4.20538298829469E-18,-2.13566540062166E-13));
#1419=DIRECTION('center_axis',(0.,1.,0.));
#1420=DIRECTION('ref_axis',(2.87672133651222E-5,0.,-0.999999999586224));
#1421=CARTESIAN_POINT('',(0.,0.,0.));
#1422=CARTESIAN_POINT('Origin',(-31.4916400639463,5.02291774397131E-17,
-8.57093668795287));
#1423=CARTESIAN_POINT('',(-31.4916400639463,9.,-8.57093668795287));
#1424=CARTESIAN_POINT('',(-31.4999999843002,9.,15.4992183958254));
#1425=CARTESIAN_POINT('',(-31.4937775989517,9.,-2.41647625073173));
#1426=CARTESIAN_POINT('',(-31.4916400639463,5.0234353573357E-17,-8.57093668795287));
#1427=CARTESIAN_POINT('',(-31.4916400639463,5.0234353573357E-17,-8.57093668795287));
#1428=CARTESIAN_POINT('',(-31.4999999843002,1.38775471278424E-17,15.4992183958254));
#1429=CARTESIAN_POINT('',(-31.4999999843002,1.38775471278424E-17,15.4992183958254));
#1430=CARTESIAN_POINT('',(-31.4999999843002,1.38775471278424E-17,15.4992183958254));
#1431=CARTESIAN_POINT('Origin',(-12.0000009635,1.38775471278424E-17,15.50000096349));
#1432=CARTESIAN_POINT('',(-12.0000000000066,9.,34.9999999999965));
#1433=CARTESIAN_POINT('Origin',(-12.0000009635,9.,15.50000096349));
#1434=CARTESIAN_POINT('',(-11.9999999999991,1.38775471278424E-17,34.999999999993));
#1435=CARTESIAN_POINT('Origin',(-12.0000009635,1.38775471278424E-17,15.50000096349));
#1436=CARTESIAN_POINT('',(-11.9999999999991,1.38775471278424E-17,34.999999999993));
#1437=CARTESIAN_POINT('Origin',(21.00000096349,1.38775471278424E-17,15.5000009634901));
#1438=CARTESIAN_POINT('',(20.9999997109454,9.,34.9999999999965));
#1439=CARTESIAN_POINT('',(40.4916400639389,9.,16.0709366879539));
#1440=CARTESIAN_POINT('Origin',(21.00000096349,9.,15.5000009634901));
#1441=CARTESIAN_POINT('',(20.9999997109529,1.38775471278463E-17,34.999999999993));
#1442=CARTESIAN_POINT('',(20.9999997109529,1.38775471278463E-17,34.999999999993));
#1443=CARTESIAN_POINT('',(40.4916400639389,1.38775471278425E-17,16.0709366879539));
#1444=CARTESIAN_POINT('Origin',(21.00000096349,1.38775471278424E-17,15.5000009634901));
#1445=CARTESIAN_POINT('',(40.4916400639389,1.38775471278425E-17,16.0709366879539));
#1446=CARTESIAN_POINT('Origin',(4.49999999999495,3.5,3.75000000000004));
#1447=CARTESIAN_POINT('',(-12.0003108838614,3.5,-24.000000100279));
#1448=CARTESIAN_POINT('',(-27.9916587327168,3.5,-8.51657715369464));
#1449=CARTESIAN_POINT('Origin',(-12.0000009635001,3.5,-8.00000096349998));
#1450=CARTESIAN_POINT('',(-28.0000001953984,3.5,15.5004339974437));
#1451=CARTESIAN_POINT('',(-27.9937777256351,3.5,-2.41550369880446));
#1452=CARTESIAN_POINT('',(-11.9999999999998,3.5,31.499999999993));
#1453=CARTESIAN_POINT('Origin',(-12.0000009635,3.5,15.50000096349));
#1454=CARTESIAN_POINT('',(20.9999997109522,3.5,31.499999999993));
#1455=CARTESIAN_POINT('',(-3.74999999999948,3.5,31.4999999999983));
#1456=CARTESIAN_POINT('',(36.9916587327094,3.5,16.0165771536947));
#1457=CARTESIAN_POINT('Origin',(21.00000096349,3.5,15.5000009634901));
#1458=CARTESIAN_POINT('',(37.0000001953883,3.5,-8.00043399744197));
#1459=CARTESIAN_POINT('',(36.993777725627,3.5,9.91550369880343));
#1460=CARTESIAN_POINT('',(21.5165275495461,3.5,-23.991660334998));
#1461=CARTESIAN_POINT('Origin',(21.0000009634899,3.5,-8.00000096349995));
#1462=CARTESIAN_POINT('',(13.038367010951,3.5,-23.9937698976006));
#1463=CARTESIAN_POINT('Origin',(-12.0000009635001,5.55113919137266E-17,
-8.00000096349998));
#1464=CARTESIAN_POINT('',(-12.0003108838614,9.,-24.000000100279));
#1465=CARTESIAN_POINT('',(-12.0003108838614,-1.2490016507502E-16,-24.000000100279));
#1466=CARTESIAN_POINT('',(-27.9916587327168,9.,-8.51657715369463));
#1467=CARTESIAN_POINT('Origin',(-12.0000009635001,9.,-8.00000096349998));
#1468=CARTESIAN_POINT('',(-27.9916587327172,5.55113919137266E-17,-8.51657715365835));
#1469=CARTESIAN_POINT('Origin',(-27.9916402750445,5.02291774397131E-17,
-8.56972108633452));
#1470=CARTESIAN_POINT('',(-28.0000001953984,9.,15.5004339974437));
#1471=CARTESIAN_POINT('',(-27.9937777256351,9.,-2.41550369880446));
#1472=CARTESIAN_POINT('',(-28.0000001953984,1.38775471278424E-17,15.5004339974437));
#1473=CARTESIAN_POINT('Origin',(-12.0000009635,1.38775471278424E-17,15.50000096349));
#1474=CARTESIAN_POINT('',(-11.9999999999998,9.,31.499999999993));
#1475=CARTESIAN_POINT('Origin',(-12.0000009635,9.,15.50000096349));
#1476=CARTESIAN_POINT('',(-11.9999999999998,1.38775471278424E-17,31.499999999993));
#1477=CARTESIAN_POINT('Origin',(21.00000096349,1.38775471278424E-17,15.5000009634901));
#1478=CARTESIAN_POINT('',(20.9999997109522,9.,31.499999999993));
#1479=CARTESIAN_POINT('',(20.9999997109522,1.38775471278463E-17,31.499999999993));
#1480=CARTESIAN_POINT('',(36.9916587327094,9.,16.0165771536947));
#1481=CARTESIAN_POINT('Origin',(21.00000096349,9.,15.5000009634901));
#1482=CARTESIAN_POINT('',(36.9916587327098,1.38775471278424E-17,16.0165771536585));
#1483=CARTESIAN_POINT('Origin',(36.9916402750371,1.38775471278426E-17,16.069721086336));
#1484=CARTESIAN_POINT('',(36.9986601241864,5.,-4.14205732681171));
#1485=CARTESIAN_POINT('',(36.9986601241864,9.,-4.14205732681171));
#1486=CARTESIAN_POINT('',(36.9986601241864,5.5,-4.14205732681171));
#1487=CARTESIAN_POINT('',(37.0000001953883,9.,-8.00043399744197));
#1488=CARTESIAN_POINT('',(36.993777725627,9.,9.91550369880343));
#1489=CARTESIAN_POINT('',(37.0000001953883,5.55113919137266E-17,-8.00043399744197));
#1490=CARTESIAN_POINT('',(36.9965762355728,9.,1.8579426731883));
#1491=CARTESIAN_POINT('',(36.993777725627,9.,9.91550369880343));
#1492=CARTESIAN_POINT('',(36.9965762355728,5.,1.8579426731883));
#1493=CARTESIAN_POINT('',(36.9965762355728,5.5,1.8579426731883));
#1494=CARTESIAN_POINT('',(36.9946289712281,5.,7.46456962630634));
#1495=CARTESIAN_POINT('Origin',(21.0000009634899,5.55113919137266E-17,-8.00000096349995));
#1496=CARTESIAN_POINT('',(21.5165275495461,9.,-23.991660334998));
#1497=CARTESIAN_POINT('Origin',(21.0000009634899,9.,-8.00000096349995));
#1498=CARTESIAN_POINT('',(21.5165275495097,5.55113919137266E-17,-23.9916603349984));
#1499=CARTESIAN_POINT('Origin',(21.5698302015102,5.55113919137228E-17,-23.9916470720646));
#1500=CARTESIAN_POINT('',(13.038367010951,9.,-23.9937698976006));
#1501=CARTESIAN_POINT('Origin',(-11.9999999999998,-1.24900090270321E-16,
31.5000000000001));
#1502=CARTESIAN_POINT('',(-3.4999999217689,8.99999979883432,31.4999999999965));
#1503=CARTESIAN_POINT('',(-3.4999999217689,5.59000007599592,31.4999999999965));
#1504=CARTESIAN_POINT('',(-3.4999999217689,2.79500003799796,31.4999999999983));
#1505=CARTESIAN_POINT('',(5.74999987147748,5.59000007599592,31.4999999999965));
#1506=CARTESIAN_POINT('',(-3.12500006426155,5.59000007599592,31.4999999999982));
#1507=CARTESIAN_POINT('',(5.74999987147748,8.99999979883432,31.4999999999965));
#1508=CARTESIAN_POINT('',(5.74999987147748,4.49999989941716,31.4999999999963));
#1509=CARTESIAN_POINT('',(-3.74999999999948,9.,31.4999999999983));
#1510=CARTESIAN_POINT('',(-3.74999999999948,9.,31.4999999999983));
#1511=CARTESIAN_POINT('Origin',(5.74999987147748,5.59000007599592,34.9999999999965));
#1512=CARTESIAN_POINT('',(5.74999987147748,5.59000007599592,34.9999999999965));
#1513=CARTESIAN_POINT('',(-3.4999999217689,5.59000007599592,34.9999999999965));
#1514=CARTESIAN_POINT('',(-3.1250000642608,5.59000007599592,34.9999999999982));
#1515=CARTESIAN_POINT('',(5.74999987147748,5.59000007599592,34.9999999999965));
#1516=CARTESIAN_POINT('',(-3.4999999217689,5.59000007599592,34.9999999999965));
#1517=CARTESIAN_POINT('Origin',(-3.4999999217689,5.59000007599592,34.9999999999965));
#1518=CARTESIAN_POINT('',(-3.4999999217689,8.99999979883432,34.9999999999965));
#1519=CARTESIAN_POINT('',(-3.4999999217689,2.79500003799796,34.9999999999983));
#1520=CARTESIAN_POINT('',(-3.4999999217689,9.,19.3749999999983));
#1521=CARTESIAN_POINT('Origin',(5.74999987147748,8.99999979883432,34.9999999999965));
#1522=CARTESIAN_POINT('',(5.74999987147748,8.99999979883432,34.9999999999965));
#1523=CARTESIAN_POINT('',(5.74999987147748,4.49999989941716,34.9999999999963));
#1524=CARTESIAN_POINT('',(5.74999987147748,9.,19.3749999999983));
#1525=CARTESIAN_POINT('Origin',(40.4916400639389,1.38775471278426E-17,16.0709366879539));
#1526=CARTESIAN_POINT('',(40.496576446671,9.,1.8579426731883));
#1527=CARTESIAN_POINT('',(40.4937774301141,9.,9.91696235011248));
#1528=CARTESIAN_POINT('',(40.4999999842901,5.55113919137266E-17,-7.99921839582401));
#1529=CARTESIAN_POINT('',(40.4999999842901,5.55113919137266E-17,-7.99921839582401));
#1530=CARTESIAN_POINT('',(40.4999999842901,9.,-7.99921839582401));
#1531=CARTESIAN_POINT('',(40.4999999842901,5.55113919137266E-17,-7.99921839582401));
#1532=CARTESIAN_POINT('',(40.4986603352846,9.,-4.1420573268117));
#1533=CARTESIAN_POINT('',(40.4937774301141,9.,9.91696235011248));
#1534=CARTESIAN_POINT('',(40.4986603352846,5.,-4.14205732681171));
#1535=CARTESIAN_POINT('',(40.4986603352846,5.5,-4.1420573268117));
#1536=CARTESIAN_POINT('',(40.496576446671,5.,1.8579426731883));
#1537=CARTESIAN_POINT('',(40.4946287601299,5.,7.4657852279243));
#1538=CARTESIAN_POINT('',(40.496576446671,5.5,1.8579426731883));
#1539=CARTESIAN_POINT('Origin',(32.7493298882455,5.,-1.14205732681171));
#1540=CARTESIAN_POINT('',(49.1825831783171,5.,1.8579426731883));
#1541=CARTESIAN_POINT('',(24.9999994412065,5.,-4.14205732681171));
#1542=CARTESIAN_POINT('Origin',(40.496576446671,11.,1.8579426731883));
#1543=CARTESIAN_POINT('',(22.498288223333,9.,1.8579426731883));
#1544=CARTESIAN_POINT('Origin',(-3.99944025051901,9.,-27.4980094068017));
#1545=CARTESIAN_POINT('',(-3.99780814850323,5.85333001520612,-34.057294677873));
#1546=CARTESIAN_POINT('',(-3.99780814850322,9.,-34.057294677873));
#1547=CARTESIAN_POINT('',(-3.99780814850322,9.,-34.057294677873));
#1548=CARTESIAN_POINT('',(-3.99944025051901,9.,-27.4980094068017));
#1549=CARTESIAN_POINT('',(-3.99944025051901,9.,-27.4980094068017));
#1550=CARTESIAN_POINT('',(-3.99944025051901,-1.2490016507502E-16,-27.4980094068017));
#1551=CARTESIAN_POINT('',(-3.99944025051901,4.5,-27.4980094068017));
#1552=CARTESIAN_POINT('',(-3.99780814850322,0.,-34.057294677873));
#1553=CARTESIAN_POINT('',(-3.99944025051901,-1.2490016507502E-16,-27.4980094068017));
#1554=CARTESIAN_POINT('',(-3.99780814850323,3.14666998479388,-34.057294677873));
#1555=CARTESIAN_POINT('',(-3.99780814850322,9.,-34.057294677873));
#1556=CARTESIAN_POINT('',(-3.99895323815495,4.5,-29.4552724917333));
#1557=CARTESIAN_POINT('Origin',(-3.99833118030192,4.5,-31.9552724143421));
#1558=CARTESIAN_POINT('Origin',(-3.99833118030192,4.5,-31.9552724143421));
#1559=CARTESIAN_POINT('Origin',(21.5707010825044,9.,-27.491646963717));
#1560=CARTESIAN_POINT('',(21.5722993066832,6.04445943173221,-33.914779963007));
#1561=CARTESIAN_POINT('',(21.5722993066832,9.,-33.914779963007));
#1562=CARTESIAN_POINT('',(21.5722993066832,9.,-33.914779963007));
#1563=CARTESIAN_POINT('',(21.5707010825044,9.,-27.491646963717));
#1564=CARTESIAN_POINT('',(21.5707010825044,9.,-27.491646963717));
#1565=CARTESIAN_POINT('',(21.5707010825044,5.55113919137266E-17,-27.491646963717));
#1566=CARTESIAN_POINT('',(21.5707010825044,5.55113919137266E-17,-27.491646963717));
#1567=CARTESIAN_POINT('',(21.5722993066832,0.,-33.914779963007));
#1568=CARTESIAN_POINT('',(21.5707010825044,0.,-27.491646963717));
#1569=CARTESIAN_POINT('',(21.5722993066832,2.95554056826779,-33.914779963007));
#1570=CARTESIAN_POINT('',(21.5722993066832,9.,-33.914779963007));
#1571=CARTESIAN_POINT('',(21.5711880948685,4.5,-29.4489100486485));
#1572=CARTESIAN_POINT('Origin',(21.5718101527215,4.5,-31.9489099712574));
#1573=CARTESIAN_POINT('Origin',(21.5718101527215,4.5,-31.9489099712574));
#1574=CARTESIAN_POINT('Origin',(21.5718101527215,4.5,-31.9489099712574));
#1575=CARTESIAN_POINT('Ctrl Pts',(21.5722993066832,2.95554056826779,-33.914779963007));
#1576=CARTESIAN_POINT('Ctrl Pts',(21.5086230645222,3.12789632630541,-34.0502048002129));
#1577=CARTESIAN_POINT('Ctrl Pts',(21.4454006854305,3.32373372111537,-34.1665912278767));
#1578=CARTESIAN_POINT('Ctrl Pts',(21.3201019686419,3.83980786804405,-34.3830468166474));
#1579=CARTESIAN_POINT('Ctrl Pts',(21.2752460121964,4.17739920718868,-34.4489838406718));
#1580=CARTESIAN_POINT('Ctrl Pts',(21.2752460121964,4.5,-34.4489838406718));
#1581=CARTESIAN_POINT('Ctrl Pts',(21.2752460121964,4.82260079281132,-34.4489838406718));
#1582=CARTESIAN_POINT('Ctrl Pts',(21.3201019686419,5.16019213195596,-34.3830468166474));
#1583=CARTESIAN_POINT('Ctrl Pts',(21.4454006854305,5.67626627888463,-34.1665912278767));
#1584=CARTESIAN_POINT('Ctrl Pts',(21.5086230645222,5.87210367369458,-34.0502048002129));
#1585=CARTESIAN_POINT('Ctrl Pts',(21.5722993066832,6.04445943173221,-33.914779963007));
#1586=CARTESIAN_POINT('',(13.5711883425203,4.5,-29.4509006337783));
#1587=CARTESIAN_POINT('',(21.5711880948685,4.5,-29.4489100486485));
#1588=CARTESIAN_POINT('',(13.5723691067094,5.59918129005539,-34.196295884484));
#1589=CARTESIAN_POINT('Origin',(13.5718104003733,4.5,-31.9509005563871));
#1590=CARTESIAN_POINT('',(13.5723691067094,3.40081870994461,-34.196295884484));
#1591=CARTESIAN_POINT('Ctrl Pts',(13.5723691067094,5.59918129005539,-34.196295884484));
#1592=CARTESIAN_POINT('Ctrl Pts',(13.5842553678443,5.55575336090016,-34.217552064038));
#1593=CARTESIAN_POINT('Ctrl Pts',(13.5956914465388,5.5116045593025,-34.237598090983));
#1594=CARTESIAN_POINT('Ctrl Pts',(13.6810849400414,5.16019213195595,-34.3849475809191));
#1595=CARTESIAN_POINT('Ctrl Pts',(13.7259737042465,4.82260079281132,-34.4508622743795));
#1596=CARTESIAN_POINT('Ctrl Pts',(13.7259737042465,4.5,-34.4508622743795));
#1597=CARTESIAN_POINT('Ctrl Pts',(13.7259737042465,4.17739920718868,-34.4508622743795));
#1598=CARTESIAN_POINT('Ctrl Pts',(13.6810849400414,3.83980786804405,-34.3849475809191));
#1599=CARTESIAN_POINT('Ctrl Pts',(13.5956914465388,3.48839544069749,-34.237598090983));
#1600=CARTESIAN_POINT('Ctrl Pts',(13.5842553678443,3.44424663909985,-34.217552064038));
#1601=CARTESIAN_POINT('Ctrl Pts',(13.5723691067094,3.40081870994461,-34.196295884484));
#1602=CARTESIAN_POINT('Origin',(13.5718104003733,4.5,-31.9509005563871));
#1603=CARTESIAN_POINT('Origin',(21.5718101527215,4.5,-31.9489099712574));
#1604=CARTESIAN_POINT('Ctrl Pts',(-3.99780814850322,3.14666998479388,-34.057294677873));
#1605=CARTESIAN_POINT('Ctrl Pts',(-4.03796456700342,3.26799057973925,-34.1354136438493));
#1606=CARTESIAN_POINT('Ctrl Pts',(-4.07613295030635,3.39777280547399,-34.2039922630602));
#1607=CARTESIAN_POINT('Ctrl Pts',(-4.18385343535138,3.83978999580812,-34.3893827007165));
#1608=CARTESIAN_POINT('Ctrl Pts',(-4.22887858396122,4.17736824059119,-34.4553298572642));
#1609=CARTESIAN_POINT('Ctrl Pts',(-4.22887858396122,4.5,-34.4553298572642));
#1610=CARTESIAN_POINT('Ctrl Pts',(-4.22887858396122,4.82238822417747,-34.4553298572642));
#1611=CARTESIAN_POINT('Ctrl Pts',(-4.18392174487323,5.15973865177346,-34.3894797446937));
#1612=CARTESIAN_POINT('Ctrl Pts',(-4.07625278572906,5.60181974407508,-34.204207553788));
#1613=CARTESIAN_POINT('Ctrl Pts',(-4.03802657144046,5.73182209241947,-34.1355342652266));
#1614=CARTESIAN_POINT('Ctrl Pts',(-3.99780814850322,5.85333001520612,-34.057294677873));
#1615=CARTESIAN_POINT('',(-11.9989529905031,4.5,-29.457263076863));
#1616=CARTESIAN_POINT('',(21.5711880948685,4.5,-29.4489100486485));
#1617=CARTESIAN_POINT('',(-11.9978062787355,5.8431503355234,-34.0658044149819));
#1618=CARTESIAN_POINT('Origin',(-11.9983309326501,4.5,-31.9572629994718));
#1619=CARTESIAN_POINT('',(-11.9978062787355,3.1568496644766,-34.0658044149819));
#1620=CARTESIAN_POINT('Ctrl Pts',(-11.9978062787355,5.8431503355234,-34.0658044149819));
#1621=CARTESIAN_POINT('Ctrl Pts',(-11.9587804180684,5.72457387890553,-34.1413284389587));
#1622=CARTESIAN_POINT('Ctrl Pts',(-11.9217286996101,5.5980399753608,-34.2077435276643));
#1623=CARTESIAN_POINT('Ctrl Pts',(-11.8148889055782,5.15973865177346,-34.3913785059719));
#1624=CARTESIAN_POINT('Ctrl Pts',(-11.7698993019943,4.82238822417747,-34.4572062377853));
#1625=CARTESIAN_POINT('Ctrl Pts',(-11.7698993019943,4.5,-34.4572062377853));
#1626=CARTESIAN_POINT('Ctrl Pts',(-11.7698993019943,4.17736824059119,-34.4572062377853));
#1627=CARTESIAN_POINT('Ctrl Pts',(-11.8149572633852,3.83978999580812,-34.3912814960007));
#1628=CARTESIAN_POINT('Ctrl Pts',(-11.9218482487978,3.40155183231619,-34.2075292254041));
#1629=CARTESIAN_POINT('Ctrl Pts',(-11.958842422889,3.27523772520034,-34.1412084453576));
#1630=CARTESIAN_POINT('Ctrl Pts',(-11.9978062787355,3.1568496644766,-34.0658044149819));
#1631=CARTESIAN_POINT('Origin',(-11.9983309326501,4.5,-31.9572629994718));
#1632=CARTESIAN_POINT('Origin',(20.9999997109454,9.,34.9999999999965));
#1633=CARTESIAN_POINT('',(12.9999997109454,9.,41.5615523490436));
#1634=CARTESIAN_POINT('',(20.9999997109454,9.,41.5615544537651));
#1635=CARTESIAN_POINT('Origin',(17.0000002533197,9.,39.5000005885959));
#1636=CARTESIAN_POINT('',(20.9999997109454,9.,34.9999999999965));
#1637=CARTESIAN_POINT('',(12.9999997109454,9.,34.9999999999965));
#1638=CARTESIAN_POINT('',(-3.74999999999874,9.,34.9999999999983));
#1639=CARTESIAN_POINT('',(12.9999997109454,9.,34.9999999999965));
#1640=CARTESIAN_POINT('Origin',(12.9999997109454,9.,34.9999999999965));
#1641=CARTESIAN_POINT('',(12.9999997109454,5.91421423841595,41.5615523490436));
#1642=CARTESIAN_POINT('',(12.9999997109454,9.,41.5615523490436));
#1643=CARTESIAN_POINT('',(12.9999997109454,1.38775471278463E-17,34.9999999999965));
#1644=CARTESIAN_POINT('',(12.9999997109454,4.5,34.9999999999947));
#1645=CARTESIAN_POINT('',(12.9999997109454,0.,41.5615523490436));
#1646=CARTESIAN_POINT('',(12.9999997109454,1.38775471278463E-17,34.9999999999965));
#1647=CARTESIAN_POINT('',(12.9999997109454,3.08578576158405,41.5615523490436));
#1648=CARTESIAN_POINT('',(12.9999997109454,9.,41.5615523490436));
#1649=CARTESIAN_POINT('',(12.9999997109454,4.5,36.9999999999965));
#1650=CARTESIAN_POINT('Origin',(12.9999997109454,4.5,39.4999999999965));
#1651=CARTESIAN_POINT('Origin',(12.9999997109454,4.5,39.4999999999965));
#1652=CARTESIAN_POINT('Origin',(-12.0000000000066,9.,34.9999999999965));
#1653=CARTESIAN_POINT('',(-12.0000000000066,5.914215355175,41.5615515829523));
#1654=CARTESIAN_POINT('',(-12.0000000000066,9.,41.5615515829523));
#1655=CARTESIAN_POINT('',(-12.0000000000066,9.,41.5615515829523));
#1656=CARTESIAN_POINT('',(-12.0000000000066,9.,34.9999999999965));
#1657=CARTESIAN_POINT('',(-12.0000000000066,0.,41.5615515829523));
#1658=CARTESIAN_POINT('',(-12.0000000000066,0.,34.9999999999965));
#1659=CARTESIAN_POINT('',(-12.0000000000066,3.085784644825,41.5615515829523));
#1660=CARTESIAN_POINT('',(-12.0000000000066,9.,41.5615515829523));
#1661=CARTESIAN_POINT('',(-12.0000000000066,4.5,36.9999999999965));
#1662=CARTESIAN_POINT('Origin',(-12.0000000000066,4.5,39.4999999999965));
#1663=CARTESIAN_POINT('Origin',(-12.0000000000066,4.5,39.4999999999965));
#1664=CARTESIAN_POINT('Origin',(-12.0000000000066,4.5,39.4999999999965));
#1665=CARTESIAN_POINT('Ctrl Pts',(-12.0000000000066,3.085784644825,41.5615515829523));
#1666=CARTESIAN_POINT('Ctrl Pts',(-11.9510513275235,3.22423216918318,41.6565259781855));
#1667=CARTESIAN_POINT('Ctrl Pts',(-11.9041457740943,3.37488476718745,41.7391117890727));
#1668=CARTESIAN_POINT('Ctrl Pts',(-11.7878817168065,3.83966590984156,41.9339933183549));
#1669=CARTESIAN_POINT('Ctrl Pts',(-11.7416566180539,4.17714982475874,41.9999999999965));
#1670=CARTESIAN_POINT('Ctrl Pts',(-11.7416566180539,4.5,41.9999999999965));
#1671=CARTESIAN_POINT('Ctrl Pts',(-11.7416566180539,4.82285017524126,41.9999999999965));
#1672=CARTESIAN_POINT('Ctrl Pts',(-11.7878817168065,5.16033409015844,41.9339933183549));
#1673=CARTESIAN_POINT('Ctrl Pts',(-11.9041457740943,5.62511523281255,41.7391117890727));
#1674=CARTESIAN_POINT('Ctrl Pts',(-11.9510513275235,5.77576783081682,41.6565259781855));
#1675=CARTESIAN_POINT('Ctrl Pts',(-12.0000000000066,5.914215355175,41.5615515829523));
#1676=CARTESIAN_POINT('',(-4.00000000000656,4.5,36.9999999999965));
#1677=CARTESIAN_POINT('',(-12.0000000000066,4.5,36.9999999999965));
#1678=CARTESIAN_POINT('',(-4.00000000000656,5.91421434361487,41.5615522768777));
#1679=CARTESIAN_POINT('Origin',(-4.00000000000656,4.5,39.4999999999965));
#1680=CARTESIAN_POINT('',(-4.00000000000656,3.08578565638514,41.5615522768777));
#1681=CARTESIAN_POINT('Ctrl Pts',(-4.00000000000656,5.91421434361487,41.5615522768777));
#1682=CARTESIAN_POINT('Ctrl Pts',(-4.04894854347336,5.77576709751921,41.6565263813223));
#1683=CARTESIAN_POINT('Ctrl Pts',(-4.09585396476614,5.62511484708764,41.7391119508062));
#1684=CARTESIAN_POINT('Ctrl Pts',(-4.21211792556562,5.16033409015844,41.9339933183549));
#1685=CARTESIAN_POINT('Ctrl Pts',(-4.2583430243182,4.82285017524126,41.9999999999965));
#1686=CARTESIAN_POINT('Ctrl Pts',(-4.2583430243182,4.5,41.9999999999965));
#1687=CARTESIAN_POINT('Ctrl Pts',(-4.2583430243182,4.17714982475874,41.9999999999965));
#1688=CARTESIAN_POINT('Ctrl Pts',(-4.21211792556562,3.83966590984156,41.9339933183549));
#1689=CARTESIAN_POINT('Ctrl Pts',(-4.09585396476614,3.37488515291236,41.7391119508062));
#1690=CARTESIAN_POINT('Ctrl Pts',(-4.04894854347336,3.22423290248079,41.6565263813223));
#1691=CARTESIAN_POINT('Ctrl Pts',(-4.00000000000656,3.08578565638514,41.5615522768777));
#1692=CARTESIAN_POINT('Origin',(-4.00000000000656,4.5,39.4999999999965));
#1693=CARTESIAN_POINT('Origin',(-12.0000000000066,4.5,39.4999999999965));
#1694=CARTESIAN_POINT('Ctrl Pts',(12.9999997109454,3.08578576158406,41.5615523490436));
#1695=CARTESIAN_POINT('Ctrl Pts',(13.0489481967969,3.22423297880003,41.6565264232875));
#1696=CARTESIAN_POINT('Ctrl Pts',(13.0958535629127,3.37488519191564,41.7391119668225));
#1697=CARTESIAN_POINT('Ctrl Pts',(13.2121174148628,3.83966591404492,41.9339933207703));
#1698=CARTESIAN_POINT('Ctrl Pts',(13.2583424732714,4.1771498322583,41.9999999999965));
#1699=CARTESIAN_POINT('Ctrl Pts',(13.2583424732714,4.5,41.9999999999965));
#1700=CARTESIAN_POINT('Ctrl Pts',(13.2583424732714,4.8228501677417,41.9999999999965));
#1701=CARTESIAN_POINT('Ctrl Pts',(13.2121174148628,5.16033408595508,41.9339933207703));
#1702=CARTESIAN_POINT('Ctrl Pts',(13.0958535629127,5.62511480808436,41.7391119668225));
#1703=CARTESIAN_POINT('Ctrl Pts',(13.0489481967969,5.77576702119998,41.6565264232874));
#1704=CARTESIAN_POINT('Ctrl Pts',(12.9999997109454,5.91421423841594,41.5615523490436));
#1705=CARTESIAN_POINT('',(20.9999997109454,4.5,36.9999999999965));
#1706=CARTESIAN_POINT('',(-12.0000000000066,4.5,36.9999999999965));
#1707=CARTESIAN_POINT('',(20.9999997109454,5.91421117028088,41.5615544537651));
#1708=CARTESIAN_POINT('Origin',(20.9999997109454,4.5,39.4999999999965));
#1709=CARTESIAN_POINT('',(20.9999997109454,3.08578882971912,41.5615544537651));
#1710=CARTESIAN_POINT('Ctrl Pts',(20.9999997109454,5.91421117028088,41.5615544537651));
#1711=CARTESIAN_POINT('Ctrl Pts',(20.9510516164091,5.77576479705668,41.6565276460281));
#1712=CARTESIAN_POINT('Ctrl Pts',(20.9041466510713,5.62511363815392,41.7391124573713));
#1713=CARTESIAN_POINT('Ctrl Pts',(20.7878830917766,5.16033408595508,41.9339933207703));
#1714=CARTESIAN_POINT('Ctrl Pts',(20.7416580333681,4.8228501677417,41.9999999999965));
#1715=CARTESIAN_POINT('Ctrl Pts',(20.7416580333681,4.5,41.9999999999965));
#1716=CARTESIAN_POINT('Ctrl Pts',(20.7416580333681,4.1771498322583,41.9999999999965));
#1717=CARTESIAN_POINT('Ctrl Pts',(20.7878830917766,3.83966591404492,41.9339933207703));
#1718=CARTESIAN_POINT('Ctrl Pts',(20.9041466510713,3.37488636184608,41.7391124573713));
#1719=CARTESIAN_POINT('Ctrl Pts',(20.9510516164091,3.22423520294332,41.6565276460281));
#1720=CARTESIAN_POINT('Ctrl Pts',(20.9999997109454,3.08578882971912,41.5615544537651));
#1721=CARTESIAN_POINT('Origin',(20.9999997109454,4.5,39.4999999999965));
#1722=CARTESIAN_POINT('Origin',(4.49999999999495,1.64216542597145E-16,3.75000000000004));
#1723=CARTESIAN_POINT('',(-4.00000000000656,0.,41.5615522768777));
#1724=CARTESIAN_POINT('Origin',(-7.99999982118607,0.,39.4999991171062));
#1725=CARTESIAN_POINT('',(-11.9994400028672,-1.2490016507502E-16,-27.4999999919314));
#1726=CARTESIAN_POINT('Origin',(-12.0000009635001,5.55113919137266E-17,
-8.00000096349998));
#1727=CARTESIAN_POINT('',(-11.9978062787355,0.,-34.0658044149819));
#1728=CARTESIAN_POINT('',(-11.9994400028672,0.,-27.4999999919314));
#1729=CARTESIAN_POINT('',(-8.0935300029547,0.,-36.4990283897142));
#1730=CARTESIAN_POINT('Origin',(-8.00000011920929,0.,-32.0000004768372));
#1731=CARTESIAN_POINT('',(-7.90423132259674,0.,-36.4989812878204));
#1732=CARTESIAN_POINT('',(-11.9972005945963,-1.2490016507502E-16,-36.4999997133231));
#1733=CARTESIAN_POINT('Origin',(-8.00000011920929,0.,-32.0000004768372));
#1734=CARTESIAN_POINT('',(13.5707013301563,5.55113919137266E-17,-27.4936375488467));
#1735=CARTESIAN_POINT('',(-11.9994400028672,-1.2490016507502E-16,-27.4999999919314));
#1736=CARTESIAN_POINT('',(13.5723691067094,0.,-34.196295884484));
#1737=CARTESIAN_POINT('',(13.5707013301563,5.55113919137266E-17,-27.4936375488467));
#1738=CARTESIAN_POINT('',(17.2441930246969,0.,-36.492723777684));
#1739=CARTESIAN_POINT('Origin',(17.5000002607703,0.,-32.0000004768372));
#1740=CARTESIAN_POINT('',(17.7580432521477,0.,-36.4925959198524));
#1741=CARTESIAN_POINT('',(21.5729404907754,5.55113919137266E-17,-36.4916466851087));
#1742=CARTESIAN_POINT('Origin',(17.5000002607703,0.,-32.0000004768372));
#1743=CARTESIAN_POINT('Origin',(21.0000009634899,5.55113919137266E-17,-8.00000096349995));
#1744=CARTESIAN_POINT('',(20.9999997109454,0.,41.5615544537651));
#1745=CARTESIAN_POINT('',(20.9999997109454,0.,34.9999999999965));
#1746=CARTESIAN_POINT('Origin',(17.0000002533197,0.,39.5000005885959));
#1747=CARTESIAN_POINT('',(-4.00000000000656,0.,34.9999999999965));
#1748=CARTESIAN_POINT('',(20.9999997109529,1.38775471278463E-17,34.999999999993));
#1749=CARTESIAN_POINT('',(-4.00000000000656,0.,34.9999999999965));
#1750=CARTESIAN_POINT('Origin',(17.5729406146013,4.5,-36.4926419776735));
#1751=CARTESIAN_POINT('',(17.2441930246969,9.,-36.492723777684));
#1752=CARTESIAN_POINT('',(17.2441930246968,9.,-36.492723777684));
#1753=CARTESIAN_POINT('',(17.7580432521477,9.,-36.4925959198524));
#1754=CARTESIAN_POINT('',(13.5729407384272,9.,-36.4936372702384));
#1755=CARTESIAN_POINT('',(17.7580432521477,9.,-36.4925959198524));
#1756=CARTESIAN_POINT('Origin',(13.5707013301563,9.,-27.4936375488467));
#1757=CARTESIAN_POINT('',(13.5723691067094,9.,-34.196295884484));
#1758=CARTESIAN_POINT('Origin',(17.5000002607703,9.,-32.0000004768372));
#1759=CARTESIAN_POINT('',(13.5707013301563,9.,-27.4936375488467));
#1760=CARTESIAN_POINT('',(13.5707013301563,9.,-27.4936375488467));
#1761=CARTESIAN_POINT('',(13.0392379524216,9.,-27.4937697892378));
#1762=CARTESIAN_POINT('',(-7.90423132259674,9.,-36.4989812878204));
#1763=CARTESIAN_POINT('Origin',(-8.00000011920929,9.,-32.0000004768372));
#1764=CARTESIAN_POINT('',(-8.0935300029547,9.,-36.4990283897142));
#1765=CARTESIAN_POINT('',(-3.99720084224809,9.,-36.4980091281934));
#1766=CARTESIAN_POINT('',(-11.9978062787355,9.,-34.0658044149819));
#1767=CARTESIAN_POINT('Origin',(-8.00000011920929,9.,-32.0000004768372));
#1768=CARTESIAN_POINT('',(-11.9994400028672,9.,-27.4999999919314));
#1769=CARTESIAN_POINT('',(-11.9994400028672,9.,-27.4999999919314));
#1770=CARTESIAN_POINT('Origin',(-12.0000009635001,9.,-8.00000096349998));
#1771=CARTESIAN_POINT('',(-4.00000000000656,9.,41.5615522768777));
#1772=CARTESIAN_POINT('Origin',(-7.99999982118607,9.,39.4999991171062));
#1773=CARTESIAN_POINT('',(-4.00000000000656,9.,34.9999999999965));
#1774=CARTESIAN_POINT('',(-4.00000000000656,9.,34.9999999999965));
#1775=CARTESIAN_POINT('',(-3.74999999999874,9.,34.9999999999983));
#1776=CARTESIAN_POINT('',(14.7499997206007,9.,-4.14205732681171));
#1777=CARTESIAN_POINT('Origin',(21.0000009634899,9.,-8.00000096349995));
#1778=CARTESIAN_POINT('Origin',(17.5000002607703,9.,-32.0000004768372));
#1779=CARTESIAN_POINT('Origin',(-11.9994400028672,0.,-27.4999999919314));
#1780=CARTESIAN_POINT('',(-11.9978062787355,9.,-34.0658044149819));
#1781=CARTESIAN_POINT('',(-11.9994400028672,-1.2490016507502E-16,-27.4999999919314));
#1782=CARTESIAN_POINT('',(-11.9978062787355,9.,-34.0658044149819));
#1783=CARTESIAN_POINT('Origin',(-7.99720071842217,4.5,-36.4990044207582));
#1784=CARTESIAN_POINT('',(-7.90423132259675,9.,-36.4989812878204));
#1785=CARTESIAN_POINT('',(-8.09353000295719,9.,-36.4990283897141));
#1786=CARTESIAN_POINT('Origin',(13.5707013301563,5.55113919137266E-17,-27.4936375488467));
#1787=CARTESIAN_POINT('',(13.5723691067094,9.,-34.196295884484));
#1788=CARTESIAN_POINT('',(13.5707013301563,5.55113919137246E-17,-27.4936375488467));
#1789=CARTESIAN_POINT('',(13.5723691067094,9.,-34.196295884484));
#1790=CARTESIAN_POINT('Origin',(20.9999997109454,0.,34.9999999999965));
#1791=CARTESIAN_POINT('',(20.9999997109454,9.,41.5615544537651));
#1792=CARTESIAN_POINT('',(20.9999997109454,9.,41.5615544537651));
#1793=CARTESIAN_POINT('Origin',(-4.00000000000656,0.,34.9999999999965));
#1794=CARTESIAN_POINT('',(-4.00000000000656,9.,41.5615522768777));
#1795=CARTESIAN_POINT('',(-4.00000000000656,-6.24500451351605E-17,34.9999999999984));
#1796=CARTESIAN_POINT('',(-4.00000000000656,9.,41.5615522768777));
#1797=CARTESIAN_POINT('Origin',(17.5000002607703,9.,-32.0000004768372));
#1798=CARTESIAN_POINT('Origin',(-8.00000011920929,9.,-32.0000004768372));
#1799=CARTESIAN_POINT('Origin',(-8.00000011920929,9.,-32.0000004768372));
#1800=CARTESIAN_POINT('Origin',(17.5000002607703,9.,-32.0000004768372));
#1801=CARTESIAN_POINT('Origin',(17.0000002533197,9.,39.5000005885959));
#1802=CARTESIAN_POINT('Origin',(-7.99999982118607,9.,39.4999991171062));
#1803=CARTESIAN_POINT('Origin',(24.9999994412065,11.,-4.14205732681171));
#1804=CARTESIAN_POINT('Origin',(21.0000009634899,5.55113919137266E-17,-8.00000096349995));
#1805=CARTESIAN_POINT('Origin',(21.5707010825044,5.55113919137228E-17,-27.491646963717));
#1806=CARTESIAN_POINT('Origin',(-11.9999999999991,-1.24900090270321E-16,
35.0000000000001));
#1807=CARTESIAN_POINT('Origin',(-12.0000009635001,5.55113919137266E-17,
-8.00000096349998));
#1808=UNCERTAINTY_MEASURE_WITH_UNIT(LENGTH_MEASURE(0.01),#1812,
'DISTANCE_ACCURACY_VALUE',
'Maximum model space distance between geometric entities at asserted c
onnectivities');
#1809=UNCERTAINTY_MEASURE_WITH_UNIT(LENGTH_MEASURE(0.01),#1812,
'DISTANCE_ACCURACY_VALUE',
'Maximum model space distance between geometric entities at asserted c
onnectivities');
#1810=(
GEOMETRIC_REPRESENTATION_CONTEXT(3)
GLOBAL_UNCERTAINTY_ASSIGNED_CONTEXT((#1808))
GLOBAL_UNIT_ASSIGNED_CONTEXT((#1812,#1814,#1815))
REPRESENTATION_CONTEXT('','3D')
);
#1811=(
GEOMETRIC_REPRESENTATION_CONTEXT(3)
GLOBAL_UNCERTAINTY_ASSIGNED_CONTEXT((#1809))
GLOBAL_UNIT_ASSIGNED_CONTEXT((#1812,#1814,#1815))
REPRESENTATION_CONTEXT('','3D')
);
#1812=(
LENGTH_UNIT()
NAMED_UNIT(*)
SI_UNIT(.MILLI.,.METRE.)
);
#1813=(
LENGTH_UNIT()
NAMED_UNIT(*)
SI_UNIT($,.METRE.)
);
#1814=(
NAMED_UNIT(*)
PLANE_ANGLE_UNIT()
SI_UNIT($,.RADIAN.)
);
#1815=(
NAMED_UNIT(*)
SI_UNIT($,.STERADIAN.)
SOLID_ANGLE_UNIT()
);
#1816=SHAPE_DEFINITION_REPRESENTATION(#1817,#1818);
#1817=PRODUCT_DEFINITION_SHAPE('',$,#1820);
#1818=SHAPE_REPRESENTATION('',(#1044),#1810);
#1819=PRODUCT_DEFINITION_CONTEXT('part definition',#1824,'design');
#1820=PRODUCT_DEFINITION('Pod Copy','Pod Copy v1',#1821,#1819);
#1821=PRODUCT_DEFINITION_FORMATION('',$,#1826);
#1822=PRODUCT_RELATED_PRODUCT_CATEGORY('Pod Copy v1','Pod Copy v1',(#1826));
#1823=APPLICATION_PROTOCOL_DEFINITION('international standard',
'automotive_design',2009,#1824);
#1824=APPLICATION_CONTEXT(
'Core Data for Automotive Mechanical Design Process');
#1825=PRODUCT_CONTEXT('part definition',#1824,'mechanical');
#1826=PRODUCT('Pod Copy','Pod Copy v1',$,(#1825));
#1827=PRESENTATION_STYLE_ASSIGNMENT((#1828));
#1828=SURFACE_STYLE_USAGE(.BOTH.,#1829);
#1829=SURFACE_SIDE_STYLE('',(#1830));
#1830=SURFACE_STYLE_FILL_AREA(#1831);
#1831=FILL_AREA_STYLE('Steel - Satin',(#1832));
#1832=FILL_AREA_STYLE_COLOUR('Steel - Satin',#1833);
#1833=COLOUR_RGB('Steel - Satin',0.627450980392157,0.627450980392157,0.627450980392157);
ENDSEC;
END-ISO-10303-21;
