ISO-10303-21;
HEADER;
/* Generated by software containing ST-Developer
 * from STEP Tools, Inc. (www.steptools.com) 
 */

FILE_DESCRIPTION(
/* description */ (''),
/* implementation_level */ '2;1');

FILE_NAME(
/* name */ 'Top.step',
/* time_stamp */ '2026-08-02T22:43:50-04:00',
/* author */ (''),
/* organization */ (''),
/* preprocessor_version */ 'ST-DEVELOPER v20.1',
/* originating_system */ 'Autodesk Translation Framework v15.8.0.0',
/* authorisation */ '');

FILE_SCHEMA (('AUTOMOTIVE_DESIGN { 1 0 10303 214 3 1 1 }'));
ENDSEC;

DATA;
#10=MECHANICAL_DESIGN_GEOMETRIC_PRESENTATION_REPRESENTATION('',(#13),#1266);
#11=SHAPE_REPRESENTATION_RELATIONSHIP('SRR','None',#1273,#12);
#12=ADVANCED_BREP_SHAPE_REPRESENTATION('',(#14),#1265);
#13=STYLED_ITEM('',(#1282),#14);
#14=MANIFOLD_SOLID_BREP('Top',#750);
#15=CYLINDRICAL_SURFACE('',#777,19.499999036503);
#16=CYLINDRICAL_SURFACE('',#779,19.499999036503);
#17=CYLINDRICAL_SURFACE('',#784,1.5);
#18=CYLINDRICAL_SURFACE('',#786,1.5);
#19=CYLINDRICAL_SURFACE('',#788,1.5);
#20=CYLINDRICAL_SURFACE('',#790,1.5);
#21=CYLINDRICAL_SURFACE('',#792,1.5);
#22=CYLINDRICAL_SURFACE('',#794,1.5);
#23=CYLINDRICAL_SURFACE('',#799,0.5);
#24=CYLINDRICAL_SURFACE('',#802,0.499999999999998);
#25=CYLINDRICAL_SURFACE('',#805,0.5);
#26=CYLINDRICAL_SURFACE('',#808,0.5);
#27=CYLINDRICAL_SURFACE('',#811,0.5);
#28=CYLINDRICAL_SURFACE('',#814,0.499999999999998);
#29=CYLINDRICAL_SURFACE('',#817,0.5);
#30=CYLINDRICAL_SURFACE('',#820,0.499999999999998);
#31=CYLINDRICAL_SURFACE('',#823,0.5);
#32=CYLINDRICAL_SURFACE('',#828,7.50000011175871);
#33=CYLINDRICAL_SURFACE('',#832,7.00000265169571);
#34=CYLINDRICAL_SURFACE('',#841,19.499999036503);
#35=CYLINDRICAL_SURFACE('',#842,19.4999990365);
#36=FACE_BOUND('',#108,.T.);
#37=FACE_BOUND('',#109,.T.);
#38=FACE_BOUND('',#110,.T.);
#39=FACE_BOUND('',#111,.T.);
#40=FACE_BOUND('',#112,.T.);
#41=FACE_BOUND('',#113,.T.);
#42=FACE_BOUND('',#114,.T.);
#43=FACE_BOUND('',#115,.T.);
#44=FACE_BOUND('',#141,.T.);
#45=FACE_BOUND('',#142,.T.);
#46=FACE_BOUND('',#143,.T.);
#47=FACE_BOUND('',#144,.T.);
#48=FACE_BOUND('',#145,.T.);
#49=FACE_BOUND('',#146,.T.);
#50=FACE_BOUND('',#147,.T.);
#51=FACE_BOUND('',#148,.T.);
#52=FACE_BOUND('',#149,.T.);
#53=FACE_BOUND('',#152,.T.);
#54=FACE_BOUND('',#153,.T.);
#55=FACE_BOUND('',#154,.T.);
#56=FACE_BOUND('',#155,.T.);
#57=FACE_BOUND('',#156,.T.);
#58=FACE_BOUND('',#157,.T.);
#59=FACE_BOUND('',#158,.T.);
#60=FACE_BOUND('',#159,.T.);
#61=FACE_BOUND('',#160,.T.);
#62=FACE_BOUND('',#167,.T.);
#63=FACE_BOUND('',#168,.T.);
#64=FACE_BOUND('',#169,.T.);
#65=FACE_BOUND('',#170,.T.);
#66=FACE_BOUND('',#171,.T.);
#67=FACE_BOUND('',#172,.T.);
#68=FACE_BOUND('',#173,.T.);
#69=FACE_BOUND('',#174,.T.);
#70=FACE_OUTER_BOUND('',#107,.T.);
#71=FACE_OUTER_BOUND('',#116,.T.);
#72=FACE_OUTER_BOUND('',#117,.T.);
#73=FACE_OUTER_BOUND('',#118,.T.);
#74=FACE_OUTER_BOUND('',#119,.T.);
#75=FACE_OUTER_BOUND('',#120,.T.);
#76=FACE_OUTER_BOUND('',#121,.T.);
#77=FACE_OUTER_BOUND('',#122,.T.);
#78=FACE_OUTER_BOUND('',#123,.T.);
#79=FACE_OUTER_BOUND('',#124,.T.);
#80=FACE_OUTER_BOUND('',#125,.T.);
#81=FACE_OUTER_BOUND('',#126,.T.);
#82=FACE_OUTER_BOUND('',#127,.T.);
#83=FACE_OUTER_BOUND('',#128,.T.);
#84=FACE_OUTER_BOUND('',#129,.T.);
#85=FACE_OUTER_BOUND('',#130,.T.);
#86=FACE_OUTER_BOUND('',#131,.T.);
#87=FACE_OUTER_BOUND('',#132,.T.);
#88=FACE_OUTER_BOUND('',#133,.T.);
#89=FACE_OUTER_BOUND('',#134,.T.);
#90=FACE_OUTER_BOUND('',#135,.T.);
#91=FACE_OUTER_BOUND('',#136,.T.);
#92=FACE_OUTER_BOUND('',#137,.T.);
#93=FACE_OUTER_BOUND('',#138,.T.);
#94=FACE_OUTER_BOUND('',#139,.T.);
#95=FACE_OUTER_BOUND('',#140,.T.);
#96=FACE_OUTER_BOUND('',#150,.T.);
#97=FACE_OUTER_BOUND('',#151,.T.);
#98=FACE_OUTER_BOUND('',#161,.T.);
#99=FACE_OUTER_BOUND('',#162,.T.);
#100=FACE_OUTER_BOUND('',#163,.T.);
#101=FACE_OUTER_BOUND('',#164,.T.);
#102=FACE_OUTER_BOUND('',#165,.T.);
#103=FACE_OUTER_BOUND('',#166,.T.);
#104=FACE_OUTER_BOUND('',#175,.T.);
#105=FACE_OUTER_BOUND('',#176,.T.);
#106=FACE_OUTER_BOUND('',#177,.T.);
#107=EDGE_LOOP('',(#499,#500,#501,#502,#503,#504,#505,#506,#507,#508,#509,
#510));
#108=EDGE_LOOP('',(#511,#512,#513,#514));
#109=EDGE_LOOP('',(#515));
#110=EDGE_LOOP('',(#516));
#111=EDGE_LOOP('',(#517));
#112=EDGE_LOOP('',(#518));
#113=EDGE_LOOP('',(#519));
#114=EDGE_LOOP('',(#520));
#115=EDGE_LOOP('',(#521));
#116=EDGE_LOOP('',(#522,#523,#524,#525));
#117=EDGE_LOOP('',(#526,#527,#528,#529));
#118=EDGE_LOOP('',(#530,#531,#532,#533));
#119=EDGE_LOOP('',(#534,#535,#536,#537));
#120=EDGE_LOOP('',(#538,#539,#540,#541));
#121=EDGE_LOOP('',(#542,#543,#544,#545));
#122=EDGE_LOOP('',(#546,#547,#548,#549));
#123=EDGE_LOOP('',(#550,#551,#552,#553));
#124=EDGE_LOOP('',(#554,#555,#556,#557));
#125=EDGE_LOOP('',(#558,#559,#560,#561));
#126=EDGE_LOOP('',(#562,#563,#564,#565));
#127=EDGE_LOOP('',(#566,#567,#568,#569));
#128=EDGE_LOOP('',(#570,#571,#572,#573));
#129=EDGE_LOOP('',(#574,#575,#576,#577));
#130=EDGE_LOOP('',(#578,#579,#580,#581));
#131=EDGE_LOOP('',(#582,#583,#584,#585));
#132=EDGE_LOOP('',(#586,#587,#588,#589));
#133=EDGE_LOOP('',(#590,#591,#592,#593));
#134=EDGE_LOOP('',(#594,#595,#596,#597));
#135=EDGE_LOOP('',(#598,#599,#600,#601));
#136=EDGE_LOOP('',(#602,#603,#604,#605));
#137=EDGE_LOOP('',(#606,#607,#608,#609));
#138=EDGE_LOOP('',(#610,#611,#612,#613));
#139=EDGE_LOOP('',(#614,#615,#616,#617));
#140=EDGE_LOOP('',(#618));
#141=EDGE_LOOP('',(#619));
#142=EDGE_LOOP('',(#620));
#143=EDGE_LOOP('',(#621));
#144=EDGE_LOOP('',(#622));
#145=EDGE_LOOP('',(#623));
#146=EDGE_LOOP('',(#624));
#147=EDGE_LOOP('',(#625));
#148=EDGE_LOOP('',(#626));
#149=EDGE_LOOP('',(#627));
#150=EDGE_LOOP('',(#628,#629,#630,#631));
#151=EDGE_LOOP('',(#632));
#152=EDGE_LOOP('',(#633));
#153=EDGE_LOOP('',(#634));
#154=EDGE_LOOP('',(#635));
#155=EDGE_LOOP('',(#636));
#156=EDGE_LOOP('',(#637));
#157=EDGE_LOOP('',(#638));
#158=EDGE_LOOP('',(#639));
#159=EDGE_LOOP('',(#640));
#160=EDGE_LOOP('',(#641));
#161=EDGE_LOOP('',(#642,#643,#644,#645));
#162=EDGE_LOOP('',(#646,#647,#648,#649));
#163=EDGE_LOOP('',(#650,#651,#652,#653));
#164=EDGE_LOOP('',(#654,#655,#656,#657));
#165=EDGE_LOOP('',(#658,#659,#660,#661));
#166=EDGE_LOOP('',(#662,#663,#664,#665,#666,#667,#668,#669,#670,#671,#672,
#673));
#167=EDGE_LOOP('',(#674,#675,#676,#677));
#168=EDGE_LOOP('',(#678));
#169=EDGE_LOOP('',(#679));
#170=EDGE_LOOP('',(#680));
#171=EDGE_LOOP('',(#681));
#172=EDGE_LOOP('',(#682));
#173=EDGE_LOOP('',(#683));
#174=EDGE_LOOP('',(#684));
#175=EDGE_LOOP('',(#685,#686,#687,#688));
#176=EDGE_LOOP('',(#689,#690,#691,#692));
#177=EDGE_LOOP('',(#693,#694,#695,#696));
#178=CIRCLE('',#765,19.499999036503);
#179=CIRCLE('',#766,19.4999990365);
#180=CIRCLE('',#767,19.499999036503);
#181=CIRCLE('',#768,19.499999036503);
#182=CIRCLE('',#769,7.00000265169571);
#183=CIRCLE('',#770,1.5);
#184=CIRCLE('',#771,1.5);
#185=CIRCLE('',#772,1.5);
#186=CIRCLE('',#773,1.5);
#187=CIRCLE('',#774,1.5);
#188=CIRCLE('',#775,1.5);
#189=CIRCLE('',#778,19.499999036503);
#190=CIRCLE('',#780,19.499999036503);
#191=CIRCLE('',#785,1.5);
#192=CIRCLE('',#787,1.5);
#193=CIRCLE('',#789,1.5);
#194=CIRCLE('',#791,1.5);
#195=CIRCLE('',#793,1.5);
#196=CIRCLE('',#795,1.5);
#197=CIRCLE('',#800,0.5);
#198=CIRCLE('',#801,0.5);
#199=CIRCLE('',#803,0.499999999999998);
#200=CIRCLE('',#804,0.499999999999998);
#201=CIRCLE('',#806,0.5);
#202=CIRCLE('',#807,0.5);
#203=CIRCLE('',#809,0.5);
#204=CIRCLE('',#810,0.5);
#205=CIRCLE('',#812,0.5);
#206=CIRCLE('',#813,0.5);
#207=CIRCLE('',#815,0.499999999999998);
#208=CIRCLE('',#816,0.499999999999998);
#209=CIRCLE('',#818,0.5);
#210=CIRCLE('',#819,0.5);
#211=CIRCLE('',#821,0.499999999999998);
#212=CIRCLE('',#822,0.499999999999998);
#213=CIRCLE('',#824,0.5);
#214=CIRCLE('',#825,0.5);
#215=CIRCLE('',#827,7.00000265169571);
#216=CIRCLE('',#829,7.50000011175871);
#217=CIRCLE('',#830,7.50000011175871);
#218=CIRCLE('',#838,19.499999036503);
#219=CIRCLE('',#839,19.4999990365);
#220=LINE('',#1064,#277);
#221=LINE('',#1068,#278);
#222=LINE('',#1072,#279);
#223=LINE('',#1076,#280);
#224=LINE('',#1078,#281);
#225=LINE('',#1080,#282);
#226=LINE('',#1082,#283);
#227=LINE('',#1084,#284);
#228=LINE('',#1088,#285);
#229=LINE('',#1090,#286);
#230=LINE('',#1092,#287);
#231=LINE('',#1093,#288);
#232=LINE('',#1110,#289);
#233=LINE('',#1112,#290);
#234=LINE('',#1113,#291);
#235=LINE('',#1116,#292);
#236=LINE('',#1120,#293);
#237=LINE('',#1123,#294);
#238=LINE('',#1126,#295);
#239=LINE('',#1128,#296);
#240=LINE('',#1129,#297);
#241=LINE('',#1132,#298);
#242=LINE('',#1134,#299);
#243=LINE('',#1135,#300);
#244=LINE('',#1137,#301);
#245=LINE('',#1141,#302);
#246=LINE('',#1145,#303);
#247=LINE('',#1149,#304);
#248=LINE('',#1153,#305);
#249=LINE('',#1157,#306);
#250=LINE('',#1161,#307);
#251=LINE('',#1163,#308);
#252=LINE('',#1166,#309);
#253=LINE('',#1168,#310);
#254=LINE('',#1169,#311);
#255=LINE('',#1172,#312);
#256=LINE('',#1173,#313);
#257=LINE('',#1178,#314);
#258=LINE('',#1184,#315);
#259=LINE('',#1190,#316);
#260=LINE('',#1196,#317);
#261=LINE('',#1202,#318);
#262=LINE('',#1208,#319);
#263=LINE('',#1214,#320);
#264=LINE('',#1220,#321);
#265=LINE('',#1226,#322);
#266=LINE('',#1235,#323);
#267=LINE('',#1239,#324);
#268=LINE('',#1242,#325);
#269=LINE('',#1244,#326);
#270=LINE('',#1245,#327);
#271=LINE('',#1248,#328);
#272=LINE('',#1249,#329);
#273=LINE('',#1252,#330);
#274=LINE('',#1253,#331);
#275=LINE('',#1255,#332);
#276=LINE('',#1257,#333);
#277=VECTOR('',#847,10.);
#278=VECTOR('',#850,10.);
#279=VECTOR('',#853,10.);
#280=VECTOR('',#856,10.);
#281=VECTOR('',#857,10.);
#282=VECTOR('',#858,10.);
#283=VECTOR('',#859,10.);
#284=VECTOR('',#860,10.);
#285=VECTOR('',#863,10.);
#286=VECTOR('',#864,10.);
#287=VECTOR('',#865,10.);
#288=VECTOR('',#866,10.);
#289=VECTOR('',#883,10.);
#290=VECTOR('',#884,10.);
#291=VECTOR('',#885,10.);
#292=VECTOR('',#888,10.);
#293=VECTOR('',#893,10.);
#294=VECTOR('',#896,10.);
#295=VECTOR('',#899,10.);
#296=VECTOR('',#900,10.);
#297=VECTOR('',#901,10.);
#298=VECTOR('',#904,10.);
#299=VECTOR('',#905,10.);
#300=VECTOR('',#906,10.);
#301=VECTOR('',#909,10.);
#302=VECTOR('',#914,1.5);
#303=VECTOR('',#919,1.5);
#304=VECTOR('',#924,1.5);
#305=VECTOR('',#929,1.5);
#306=VECTOR('',#934,1.5);
#307=VECTOR('',#939,1.5);
#308=VECTOR('',#942,10.);
#309=VECTOR('',#945,10.);
#310=VECTOR('',#946,10.);
#311=VECTOR('',#947,10.);
#312=VECTOR('',#950,10.);
#313=VECTOR('',#951,10.);
#314=VECTOR('',#956,0.5);
#315=VECTOR('',#963,0.499999999999998);
#316=VECTOR('',#970,0.5);
#317=VECTOR('',#977,0.5);
#318=VECTOR('',#984,0.5);
#319=VECTOR('',#991,0.499999999999998);
#320=VECTOR('',#998,0.5);
#321=VECTOR('',#1005,0.499999999999998);
#322=VECTOR('',#1012,0.5);
#323=VECTOR('',#1023,7.50000011175871);
#324=VECTOR('',#1030,7.00000265169571);
#325=VECTOR('',#1033,10.);
#326=VECTOR('',#1034,10.);
#327=VECTOR('',#1035,10.);
#328=VECTOR('',#1038,10.);
#329=VECTOR('',#1039,10.);
#330=VECTOR('',#1042,10.);
#331=VECTOR('',#1043,10.);
#332=VECTOR('',#1046,10.);
#333=VECTOR('',#1049,10.);
#334=VERTEX_POINT('',#1062);
#335=VERTEX_POINT('',#1063);
#336=VERTEX_POINT('',#1065);
#337=VERTEX_POINT('',#1067);
#338=VERTEX_POINT('',#1069);
#339=VERTEX_POINT('',#1071);
#340=VERTEX_POINT('',#1073);
#341=VERTEX_POINT('',#1075);
#342=VERTEX_POINT('',#1077);
#343=VERTEX_POINT('',#1079);
#344=VERTEX_POINT('',#1081);
#345=VERTEX_POINT('',#1083);
#346=VERTEX_POINT('',#1086);
#347=VERTEX_POINT('',#1087);
#348=VERTEX_POINT('',#1089);
#349=VERTEX_POINT('',#1091);
#350=VERTEX_POINT('',#1094);
#351=VERTEX_POINT('',#1096);
#352=VERTEX_POINT('',#1098);
#353=VERTEX_POINT('',#1100);
#354=VERTEX_POINT('',#1102);
#355=VERTEX_POINT('',#1104);
#356=VERTEX_POINT('',#1106);
#357=VERTEX_POINT('',#1109);
#358=VERTEX_POINT('',#1111);
#359=VERTEX_POINT('',#1115);
#360=VERTEX_POINT('',#1119);
#361=VERTEX_POINT('',#1121);
#362=VERTEX_POINT('',#1125);
#363=VERTEX_POINT('',#1127);
#364=VERTEX_POINT('',#1131);
#365=VERTEX_POINT('',#1133);
#366=VERTEX_POINT('',#1139);
#367=VERTEX_POINT('',#1143);
#368=VERTEX_POINT('',#1147);
#369=VERTEX_POINT('',#1151);
#370=VERTEX_POINT('',#1155);
#371=VERTEX_POINT('',#1159);
#372=VERTEX_POINT('',#1165);
#373=VERTEX_POINT('',#1167);
#374=VERTEX_POINT('',#1171);
#375=VERTEX_POINT('',#1175);
#376=VERTEX_POINT('',#1177);
#377=VERTEX_POINT('',#1181);
#378=VERTEX_POINT('',#1183);
#379=VERTEX_POINT('',#1187);
#380=VERTEX_POINT('',#1189);
#381=VERTEX_POINT('',#1193);
#382=VERTEX_POINT('',#1195);
#383=VERTEX_POINT('',#1199);
#384=VERTEX_POINT('',#1201);
#385=VERTEX_POINT('',#1205);
#386=VERTEX_POINT('',#1207);
#387=VERTEX_POINT('',#1211);
#388=VERTEX_POINT('',#1213);
#389=VERTEX_POINT('',#1217);
#390=VERTEX_POINT('',#1219);
#391=VERTEX_POINT('',#1223);
#392=VERTEX_POINT('',#1225);
#393=VERTEX_POINT('',#1229);
#394=VERTEX_POINT('',#1232);
#395=VERTEX_POINT('',#1234);
#396=VERTEX_POINT('',#1241);
#397=VERTEX_POINT('',#1243);
#398=VERTEX_POINT('',#1247);
#399=VERTEX_POINT('',#1251);
#400=EDGE_CURVE('',#334,#335,#220,.T.);
#401=EDGE_CURVE('',#336,#334,#178,.T.);
#402=EDGE_CURVE('',#337,#336,#221,.T.);
#403=EDGE_CURVE('',#338,#337,#179,.T.);
#404=EDGE_CURVE('',#339,#338,#222,.T.);
#405=EDGE_CURVE('',#340,#339,#180,.T.);
#406=EDGE_CURVE('',#341,#340,#223,.T.);
#407=EDGE_CURVE('',#341,#342,#224,.T.);
#408=EDGE_CURVE('',#342,#343,#225,.T.);
#409=EDGE_CURVE('',#344,#343,#226,.T.);
#410=EDGE_CURVE('',#345,#344,#227,.T.);
#411=EDGE_CURVE('',#335,#345,#181,.T.);
#412=EDGE_CURVE('',#346,#347,#228,.T.);
#413=EDGE_CURVE('',#347,#348,#229,.T.);
#414=EDGE_CURVE('',#348,#349,#230,.T.);
#415=EDGE_CURVE('',#349,#346,#231,.T.);
#416=EDGE_CURVE('',#350,#350,#182,.T.);
#417=EDGE_CURVE('',#351,#351,#183,.T.);
#418=EDGE_CURVE('',#352,#352,#184,.T.);
#419=EDGE_CURVE('',#353,#353,#185,.T.);
#420=EDGE_CURVE('',#354,#354,#186,.T.);
#421=EDGE_CURVE('',#355,#355,#187,.T.);
#422=EDGE_CURVE('',#356,#356,#188,.T.);
#423=EDGE_CURVE('',#336,#357,#232,.T.);
#424=EDGE_CURVE('',#358,#357,#233,.T.);
#425=EDGE_CURVE('',#337,#358,#234,.T.);
#426=EDGE_CURVE('',#334,#359,#235,.T.);
#427=EDGE_CURVE('',#357,#359,#189,.T.);
#428=EDGE_CURVE('',#345,#360,#236,.T.);
#429=EDGE_CURVE('',#361,#360,#190,.T.);
#430=EDGE_CURVE('',#335,#361,#237,.T.);
#431=EDGE_CURVE('',#362,#343,#238,.T.);
#432=EDGE_CURVE('',#363,#362,#239,.T.);
#433=EDGE_CURVE('',#344,#363,#240,.T.);
#434=EDGE_CURVE('',#340,#364,#241,.T.);
#435=EDGE_CURVE('',#365,#364,#242,.T.);
#436=EDGE_CURVE('',#365,#341,#243,.T.);
#437=EDGE_CURVE('',#360,#363,#244,.T.);
#438=EDGE_CURVE('',#366,#366,#191,.T.);
#439=EDGE_CURVE('',#366,#356,#245,.T.);
#440=EDGE_CURVE('',#367,#367,#192,.T.);
#441=EDGE_CURVE('',#367,#355,#246,.T.);
#442=EDGE_CURVE('',#368,#368,#193,.T.);
#443=EDGE_CURVE('',#368,#354,#247,.T.);
#444=EDGE_CURVE('',#369,#369,#194,.T.);
#445=EDGE_CURVE('',#369,#353,#248,.T.);
#446=EDGE_CURVE('',#370,#370,#195,.T.);
#447=EDGE_CURVE('',#370,#352,#249,.T.);
#448=EDGE_CURVE('',#371,#371,#196,.T.);
#449=EDGE_CURVE('',#371,#351,#250,.T.);
#450=EDGE_CURVE('',#359,#361,#251,.T.);
#451=EDGE_CURVE('',#338,#372,#252,.T.);
#452=EDGE_CURVE('',#373,#372,#253,.T.);
#453=EDGE_CURVE('',#339,#373,#254,.T.);
#454=EDGE_CURVE('',#374,#342,#255,.T.);
#455=EDGE_CURVE('',#362,#374,#256,.T.);
#456=EDGE_CURVE('',#375,#375,#197,.T.);
#457=EDGE_CURVE('',#375,#376,#257,.T.);
#458=EDGE_CURVE('',#376,#376,#198,.T.);
#459=EDGE_CURVE('',#377,#377,#199,.T.);
#460=EDGE_CURVE('',#377,#378,#258,.T.);
#461=EDGE_CURVE('',#378,#378,#200,.T.);
#462=EDGE_CURVE('',#379,#379,#201,.T.);
#463=EDGE_CURVE('',#379,#380,#259,.T.);
#464=EDGE_CURVE('',#380,#380,#202,.T.);
#465=EDGE_CURVE('',#381,#381,#203,.T.);
#466=EDGE_CURVE('',#381,#382,#260,.T.);
#467=EDGE_CURVE('',#382,#382,#204,.T.);
#468=EDGE_CURVE('',#383,#383,#205,.T.);
#469=EDGE_CURVE('',#383,#384,#261,.T.);
#470=EDGE_CURVE('',#384,#384,#206,.T.);
#471=EDGE_CURVE('',#385,#385,#207,.T.);
#472=EDGE_CURVE('',#385,#386,#262,.T.);
#473=EDGE_CURVE('',#386,#386,#208,.T.);
#474=EDGE_CURVE('',#387,#387,#209,.T.);
#475=EDGE_CURVE('',#387,#388,#263,.T.);
#476=EDGE_CURVE('',#388,#388,#210,.T.);
#477=EDGE_CURVE('',#389,#389,#211,.T.);
#478=EDGE_CURVE('',#389,#390,#264,.T.);
#479=EDGE_CURVE('',#390,#390,#212,.T.);
#480=EDGE_CURVE('',#391,#391,#213,.T.);
#481=EDGE_CURVE('',#391,#392,#265,.T.);
#482=EDGE_CURVE('',#392,#392,#214,.T.);
#483=EDGE_CURVE('',#393,#393,#215,.T.);
#484=EDGE_CURVE('',#394,#394,#216,.T.);
#485=EDGE_CURVE('',#394,#395,#266,.T.);
#486=EDGE_CURVE('',#395,#395,#217,.T.);
#487=EDGE_CURVE('',#393,#350,#267,.T.);
#488=EDGE_CURVE('',#396,#348,#268,.T.);
#489=EDGE_CURVE('',#397,#396,#269,.T.);
#490=EDGE_CURVE('',#397,#349,#270,.T.);
#491=EDGE_CURVE('',#398,#397,#271,.T.);
#492=EDGE_CURVE('',#398,#346,#272,.T.);
#493=EDGE_CURVE('',#399,#398,#273,.T.);
#494=EDGE_CURVE('',#399,#347,#274,.T.);
#495=EDGE_CURVE('',#396,#399,#275,.T.);
#496=EDGE_CURVE('',#374,#365,#276,.T.);
#497=EDGE_CURVE('',#364,#373,#218,.T.);
#498=EDGE_CURVE('',#372,#358,#219,.T.);
#499=ORIENTED_EDGE('',*,*,#400,.F.);
#500=ORIENTED_EDGE('',*,*,#401,.F.);
#501=ORIENTED_EDGE('',*,*,#402,.F.);
#502=ORIENTED_EDGE('',*,*,#403,.F.);
#503=ORIENTED_EDGE('',*,*,#404,.F.);
#504=ORIENTED_EDGE('',*,*,#405,.F.);
#505=ORIENTED_EDGE('',*,*,#406,.F.);
#506=ORIENTED_EDGE('',*,*,#407,.T.);
#507=ORIENTED_EDGE('',*,*,#408,.T.);
#508=ORIENTED_EDGE('',*,*,#409,.F.);
#509=ORIENTED_EDGE('',*,*,#410,.F.);
#510=ORIENTED_EDGE('',*,*,#411,.F.);
#511=ORIENTED_EDGE('',*,*,#412,.T.);
#512=ORIENTED_EDGE('',*,*,#413,.T.);
#513=ORIENTED_EDGE('',*,*,#414,.T.);
#514=ORIENTED_EDGE('',*,*,#415,.T.);
#515=ORIENTED_EDGE('',*,*,#416,.T.);
#516=ORIENTED_EDGE('',*,*,#417,.T.);
#517=ORIENTED_EDGE('',*,*,#418,.T.);
#518=ORIENTED_EDGE('',*,*,#419,.T.);
#519=ORIENTED_EDGE('',*,*,#420,.T.);
#520=ORIENTED_EDGE('',*,*,#421,.T.);
#521=ORIENTED_EDGE('',*,*,#422,.T.);
#522=ORIENTED_EDGE('',*,*,#402,.T.);
#523=ORIENTED_EDGE('',*,*,#423,.T.);
#524=ORIENTED_EDGE('',*,*,#424,.F.);
#525=ORIENTED_EDGE('',*,*,#425,.F.);
#526=ORIENTED_EDGE('',*,*,#401,.T.);
#527=ORIENTED_EDGE('',*,*,#426,.T.);
#528=ORIENTED_EDGE('',*,*,#427,.F.);
#529=ORIENTED_EDGE('',*,*,#423,.F.);
#530=ORIENTED_EDGE('',*,*,#411,.T.);
#531=ORIENTED_EDGE('',*,*,#428,.T.);
#532=ORIENTED_EDGE('',*,*,#429,.F.);
#533=ORIENTED_EDGE('',*,*,#430,.F.);
#534=ORIENTED_EDGE('',*,*,#409,.T.);
#535=ORIENTED_EDGE('',*,*,#431,.F.);
#536=ORIENTED_EDGE('',*,*,#432,.F.);
#537=ORIENTED_EDGE('',*,*,#433,.F.);
#538=ORIENTED_EDGE('',*,*,#406,.T.);
#539=ORIENTED_EDGE('',*,*,#434,.T.);
#540=ORIENTED_EDGE('',*,*,#435,.F.);
#541=ORIENTED_EDGE('',*,*,#436,.T.);
#542=ORIENTED_EDGE('',*,*,#410,.T.);
#543=ORIENTED_EDGE('',*,*,#433,.T.);
#544=ORIENTED_EDGE('',*,*,#437,.F.);
#545=ORIENTED_EDGE('',*,*,#428,.F.);
#546=ORIENTED_EDGE('',*,*,#438,.F.);
#547=ORIENTED_EDGE('',*,*,#439,.T.);
#548=ORIENTED_EDGE('',*,*,#422,.F.);
#549=ORIENTED_EDGE('',*,*,#439,.F.);
#550=ORIENTED_EDGE('',*,*,#440,.F.);
#551=ORIENTED_EDGE('',*,*,#441,.T.);
#552=ORIENTED_EDGE('',*,*,#421,.F.);
#553=ORIENTED_EDGE('',*,*,#441,.F.);
#554=ORIENTED_EDGE('',*,*,#442,.F.);
#555=ORIENTED_EDGE('',*,*,#443,.T.);
#556=ORIENTED_EDGE('',*,*,#420,.F.);
#557=ORIENTED_EDGE('',*,*,#443,.F.);
#558=ORIENTED_EDGE('',*,*,#444,.F.);
#559=ORIENTED_EDGE('',*,*,#445,.T.);
#560=ORIENTED_EDGE('',*,*,#419,.F.);
#561=ORIENTED_EDGE('',*,*,#445,.F.);
#562=ORIENTED_EDGE('',*,*,#446,.F.);
#563=ORIENTED_EDGE('',*,*,#447,.T.);
#564=ORIENTED_EDGE('',*,*,#418,.F.);
#565=ORIENTED_EDGE('',*,*,#447,.F.);
#566=ORIENTED_EDGE('',*,*,#448,.F.);
#567=ORIENTED_EDGE('',*,*,#449,.T.);
#568=ORIENTED_EDGE('',*,*,#417,.F.);
#569=ORIENTED_EDGE('',*,*,#449,.F.);
#570=ORIENTED_EDGE('',*,*,#400,.T.);
#571=ORIENTED_EDGE('',*,*,#430,.T.);
#572=ORIENTED_EDGE('',*,*,#450,.F.);
#573=ORIENTED_EDGE('',*,*,#426,.F.);
#574=ORIENTED_EDGE('',*,*,#404,.T.);
#575=ORIENTED_EDGE('',*,*,#451,.T.);
#576=ORIENTED_EDGE('',*,*,#452,.F.);
#577=ORIENTED_EDGE('',*,*,#453,.F.);
#578=ORIENTED_EDGE('',*,*,#408,.F.);
#579=ORIENTED_EDGE('',*,*,#454,.F.);
#580=ORIENTED_EDGE('',*,*,#455,.F.);
#581=ORIENTED_EDGE('',*,*,#431,.T.);
#582=ORIENTED_EDGE('',*,*,#456,.F.);
#583=ORIENTED_EDGE('',*,*,#457,.T.);
#584=ORIENTED_EDGE('',*,*,#458,.F.);
#585=ORIENTED_EDGE('',*,*,#457,.F.);
#586=ORIENTED_EDGE('',*,*,#459,.F.);
#587=ORIENTED_EDGE('',*,*,#460,.T.);
#588=ORIENTED_EDGE('',*,*,#461,.F.);
#589=ORIENTED_EDGE('',*,*,#460,.F.);
#590=ORIENTED_EDGE('',*,*,#462,.F.);
#591=ORIENTED_EDGE('',*,*,#463,.T.);
#592=ORIENTED_EDGE('',*,*,#464,.F.);
#593=ORIENTED_EDGE('',*,*,#463,.F.);
#594=ORIENTED_EDGE('',*,*,#465,.F.);
#595=ORIENTED_EDGE('',*,*,#466,.T.);
#596=ORIENTED_EDGE('',*,*,#467,.F.);
#597=ORIENTED_EDGE('',*,*,#466,.F.);
#598=ORIENTED_EDGE('',*,*,#468,.F.);
#599=ORIENTED_EDGE('',*,*,#469,.T.);
#600=ORIENTED_EDGE('',*,*,#470,.F.);
#601=ORIENTED_EDGE('',*,*,#469,.F.);
#602=ORIENTED_EDGE('',*,*,#471,.F.);
#603=ORIENTED_EDGE('',*,*,#472,.T.);
#604=ORIENTED_EDGE('',*,*,#473,.F.);
#605=ORIENTED_EDGE('',*,*,#472,.F.);
#606=ORIENTED_EDGE('',*,*,#474,.F.);
#607=ORIENTED_EDGE('',*,*,#475,.T.);
#608=ORIENTED_EDGE('',*,*,#476,.F.);
#609=ORIENTED_EDGE('',*,*,#475,.F.);
#610=ORIENTED_EDGE('',*,*,#477,.F.);
#611=ORIENTED_EDGE('',*,*,#478,.T.);
#612=ORIENTED_EDGE('',*,*,#479,.F.);
#613=ORIENTED_EDGE('',*,*,#478,.F.);
#614=ORIENTED_EDGE('',*,*,#480,.F.);
#615=ORIENTED_EDGE('',*,*,#481,.T.);
#616=ORIENTED_EDGE('',*,*,#482,.F.);
#617=ORIENTED_EDGE('',*,*,#481,.F.);
#618=ORIENTED_EDGE('',*,*,#483,.T.);
#619=ORIENTED_EDGE('',*,*,#482,.T.);
#620=ORIENTED_EDGE('',*,*,#479,.T.);
#621=ORIENTED_EDGE('',*,*,#476,.T.);
#622=ORIENTED_EDGE('',*,*,#473,.T.);
#623=ORIENTED_EDGE('',*,*,#470,.T.);
#624=ORIENTED_EDGE('',*,*,#467,.T.);
#625=ORIENTED_EDGE('',*,*,#464,.T.);
#626=ORIENTED_EDGE('',*,*,#461,.T.);
#627=ORIENTED_EDGE('',*,*,#458,.T.);
#628=ORIENTED_EDGE('',*,*,#484,.F.);
#629=ORIENTED_EDGE('',*,*,#485,.T.);
#630=ORIENTED_EDGE('',*,*,#486,.F.);
#631=ORIENTED_EDGE('',*,*,#485,.F.);
#632=ORIENTED_EDGE('',*,*,#484,.T.);
#633=ORIENTED_EDGE('',*,*,#480,.T.);
#634=ORIENTED_EDGE('',*,*,#477,.T.);
#635=ORIENTED_EDGE('',*,*,#474,.T.);
#636=ORIENTED_EDGE('',*,*,#471,.T.);
#637=ORIENTED_EDGE('',*,*,#468,.T.);
#638=ORIENTED_EDGE('',*,*,#465,.T.);
#639=ORIENTED_EDGE('',*,*,#462,.T.);
#640=ORIENTED_EDGE('',*,*,#459,.T.);
#641=ORIENTED_EDGE('',*,*,#456,.T.);
#642=ORIENTED_EDGE('',*,*,#483,.F.);
#643=ORIENTED_EDGE('',*,*,#487,.T.);
#644=ORIENTED_EDGE('',*,*,#416,.F.);
#645=ORIENTED_EDGE('',*,*,#487,.F.);
#646=ORIENTED_EDGE('',*,*,#414,.F.);
#647=ORIENTED_EDGE('',*,*,#488,.F.);
#648=ORIENTED_EDGE('',*,*,#489,.F.);
#649=ORIENTED_EDGE('',*,*,#490,.T.);
#650=ORIENTED_EDGE('',*,*,#415,.F.);
#651=ORIENTED_EDGE('',*,*,#490,.F.);
#652=ORIENTED_EDGE('',*,*,#491,.F.);
#653=ORIENTED_EDGE('',*,*,#492,.T.);
#654=ORIENTED_EDGE('',*,*,#412,.F.);
#655=ORIENTED_EDGE('',*,*,#492,.F.);
#656=ORIENTED_EDGE('',*,*,#493,.F.);
#657=ORIENTED_EDGE('',*,*,#494,.T.);
#658=ORIENTED_EDGE('',*,*,#413,.F.);
#659=ORIENTED_EDGE('',*,*,#494,.F.);
#660=ORIENTED_EDGE('',*,*,#495,.F.);
#661=ORIENTED_EDGE('',*,*,#488,.T.);
#662=ORIENTED_EDGE('',*,*,#496,.T.);
#663=ORIENTED_EDGE('',*,*,#435,.T.);
#664=ORIENTED_EDGE('',*,*,#497,.T.);
#665=ORIENTED_EDGE('',*,*,#452,.T.);
#666=ORIENTED_EDGE('',*,*,#498,.T.);
#667=ORIENTED_EDGE('',*,*,#424,.T.);
#668=ORIENTED_EDGE('',*,*,#427,.T.);
#669=ORIENTED_EDGE('',*,*,#450,.T.);
#670=ORIENTED_EDGE('',*,*,#429,.T.);
#671=ORIENTED_EDGE('',*,*,#437,.T.);
#672=ORIENTED_EDGE('',*,*,#432,.T.);
#673=ORIENTED_EDGE('',*,*,#455,.T.);
#674=ORIENTED_EDGE('',*,*,#493,.T.);
#675=ORIENTED_EDGE('',*,*,#491,.T.);
#676=ORIENTED_EDGE('',*,*,#489,.T.);
#677=ORIENTED_EDGE('',*,*,#495,.T.);
#678=ORIENTED_EDGE('',*,*,#486,.T.);
#679=ORIENTED_EDGE('',*,*,#448,.T.);
#680=ORIENTED_EDGE('',*,*,#446,.T.);
#681=ORIENTED_EDGE('',*,*,#444,.T.);
#682=ORIENTED_EDGE('',*,*,#442,.T.);
#683=ORIENTED_EDGE('',*,*,#440,.T.);
#684=ORIENTED_EDGE('',*,*,#438,.T.);
#685=ORIENTED_EDGE('',*,*,#407,.F.);
#686=ORIENTED_EDGE('',*,*,#436,.F.);
#687=ORIENTED_EDGE('',*,*,#496,.F.);
#688=ORIENTED_EDGE('',*,*,#454,.T.);
#689=ORIENTED_EDGE('',*,*,#405,.T.);
#690=ORIENTED_EDGE('',*,*,#453,.T.);
#691=ORIENTED_EDGE('',*,*,#497,.F.);
#692=ORIENTED_EDGE('',*,*,#434,.F.);
#693=ORIENTED_EDGE('',*,*,#403,.T.);
#694=ORIENTED_EDGE('',*,*,#425,.T.);
#695=ORIENTED_EDGE('',*,*,#498,.F.);
#696=ORIENTED_EDGE('',*,*,#451,.F.);
#697=PLANE('',#764);
#698=PLANE('',#776);
#699=PLANE('',#781);
#700=PLANE('',#782);
#701=PLANE('',#783);
#702=PLANE('',#796);
#703=PLANE('',#797);
#704=PLANE('',#798);
#705=PLANE('',#826);
#706=PLANE('',#831);
#707=PLANE('',#833);
#708=PLANE('',#834);
#709=PLANE('',#835);
#710=PLANE('',#836);
#711=PLANE('',#837);
#712=PLANE('',#840);
#713=ADVANCED_FACE('',(#70,#36,#37,#38,#39,#40,#41,#42,#43),#697,.F.);
#714=ADVANCED_FACE('',(#71),#698,.T.);
#715=ADVANCED_FACE('',(#72),#15,.T.);
#716=ADVANCED_FACE('',(#73),#16,.T.);
#717=ADVANCED_FACE('',(#74),#699,.F.);
#718=ADVANCED_FACE('',(#75),#700,.T.);
#719=ADVANCED_FACE('',(#76),#701,.T.);
#720=ADVANCED_FACE('',(#77),#17,.F.);
#721=ADVANCED_FACE('',(#78),#18,.F.);
#722=ADVANCED_FACE('',(#79),#19,.F.);
#723=ADVANCED_FACE('',(#80),#20,.F.);
#724=ADVANCED_FACE('',(#81),#21,.F.);
#725=ADVANCED_FACE('',(#82),#22,.F.);
#726=ADVANCED_FACE('',(#83),#702,.T.);
#727=ADVANCED_FACE('',(#84),#703,.T.);
#728=ADVANCED_FACE('',(#85),#704,.F.);
#729=ADVANCED_FACE('',(#86),#23,.F.);
#730=ADVANCED_FACE('',(#87),#24,.F.);
#731=ADVANCED_FACE('',(#88),#25,.F.);
#732=ADVANCED_FACE('',(#89),#26,.F.);
#733=ADVANCED_FACE('',(#90),#27,.F.);
#734=ADVANCED_FACE('',(#91),#28,.F.);
#735=ADVANCED_FACE('',(#92),#29,.F.);
#736=ADVANCED_FACE('',(#93),#30,.F.);
#737=ADVANCED_FACE('',(#94),#31,.F.);
#738=ADVANCED_FACE('',(#95,#44,#45,#46,#47,#48,#49,#50,#51,#52),#705,.F.);
#739=ADVANCED_FACE('',(#96),#32,.T.);
#740=ADVANCED_FACE('',(#97,#53,#54,#55,#56,#57,#58,#59,#60,#61),#706,.T.);
#741=ADVANCED_FACE('',(#98),#33,.F.);
#742=ADVANCED_FACE('',(#99),#707,.F.);
#743=ADVANCED_FACE('',(#100),#708,.F.);
#744=ADVANCED_FACE('',(#101),#709,.F.);
#745=ADVANCED_FACE('',(#102),#710,.F.);
#746=ADVANCED_FACE('',(#103,#62,#63,#64,#65,#66,#67,#68,#69),#711,.T.);
#747=ADVANCED_FACE('',(#104),#712,.F.);
#748=ADVANCED_FACE('',(#105),#34,.T.);
#749=ADVANCED_FACE('',(#106),#35,.T.);
#750=CLOSED_SHELL('',(#713,#714,#715,#716,#717,#718,#719,#720,#721,#722,
#723,#724,#725,#726,#727,#728,#729,#730,#731,#732,#733,#734,#735,#736,#737,
#738,#739,#740,#741,#742,#743,#744,#745,#746,#747,#748,#749));
#751=DERIVED_UNIT_ELEMENT(#753,1.);
#752=DERIVED_UNIT_ELEMENT(#1268,-3.);
#753=(
MASS_UNIT()
NAMED_UNIT(*)
SI_UNIT(.KILO.,.GRAM.)
);
#754=DERIVED_UNIT((#751,#752));
#755=MEASURE_REPRESENTATION_ITEM('density measure',
POSITIVE_RATIO_MEASURE(7850.),#754);
#756=PROPERTY_DEFINITION_REPRESENTATION(#761,#758);
#757=PROPERTY_DEFINITION_REPRESENTATION(#762,#759);
#758=REPRESENTATION('material name',(#760),#1265);
#759=REPRESENTATION('density',(#755),#1265);
#760=DESCRIPTIVE_REPRESENTATION_ITEM('Steel','Steel');
#761=PROPERTY_DEFINITION('material property','material name',#1275);
#762=PROPERTY_DEFINITION('material property','density of part',#1275);
#763=AXIS2_PLACEMENT_3D('',#1060,#843,#844);
#764=AXIS2_PLACEMENT_3D('',#1061,#845,#846);
#765=AXIS2_PLACEMENT_3D('',#1066,#848,#849);
#766=AXIS2_PLACEMENT_3D('',#1070,#851,#852);
#767=AXIS2_PLACEMENT_3D('',#1074,#854,#855);
#768=AXIS2_PLACEMENT_3D('',#1085,#861,#862);
#769=AXIS2_PLACEMENT_3D('',#1095,#867,#868);
#770=AXIS2_PLACEMENT_3D('',#1097,#869,#870);
#771=AXIS2_PLACEMENT_3D('',#1099,#871,#872);
#772=AXIS2_PLACEMENT_3D('',#1101,#873,#874);
#773=AXIS2_PLACEMENT_3D('',#1103,#875,#876);
#774=AXIS2_PLACEMENT_3D('',#1105,#877,#878);
#775=AXIS2_PLACEMENT_3D('',#1107,#879,#880);
#776=AXIS2_PLACEMENT_3D('',#1108,#881,#882);
#777=AXIS2_PLACEMENT_3D('',#1114,#886,#887);
#778=AXIS2_PLACEMENT_3D('',#1117,#889,#890);
#779=AXIS2_PLACEMENT_3D('',#1118,#891,#892);
#780=AXIS2_PLACEMENT_3D('',#1122,#894,#895);
#781=AXIS2_PLACEMENT_3D('',#1124,#897,#898);
#782=AXIS2_PLACEMENT_3D('',#1130,#902,#903);
#783=AXIS2_PLACEMENT_3D('',#1136,#907,#908);
#784=AXIS2_PLACEMENT_3D('',#1138,#910,#911);
#785=AXIS2_PLACEMENT_3D('',#1140,#912,#913);
#786=AXIS2_PLACEMENT_3D('',#1142,#915,#916);
#787=AXIS2_PLACEMENT_3D('',#1144,#917,#918);
#788=AXIS2_PLACEMENT_3D('',#1146,#920,#921);
#789=AXIS2_PLACEMENT_3D('',#1148,#922,#923);
#790=AXIS2_PLACEMENT_3D('',#1150,#925,#926);
#791=AXIS2_PLACEMENT_3D('',#1152,#927,#928);
#792=AXIS2_PLACEMENT_3D('',#1154,#930,#931);
#793=AXIS2_PLACEMENT_3D('',#1156,#932,#933);
#794=AXIS2_PLACEMENT_3D('',#1158,#935,#936);
#795=AXIS2_PLACEMENT_3D('',#1160,#937,#938);
#796=AXIS2_PLACEMENT_3D('',#1162,#940,#941);
#797=AXIS2_PLACEMENT_3D('',#1164,#943,#944);
#798=AXIS2_PLACEMENT_3D('',#1170,#948,#949);
#799=AXIS2_PLACEMENT_3D('',#1174,#952,#953);
#800=AXIS2_PLACEMENT_3D('',#1176,#954,#955);
#801=AXIS2_PLACEMENT_3D('',#1179,#957,#958);
#802=AXIS2_PLACEMENT_3D('',#1180,#959,#960);
#803=AXIS2_PLACEMENT_3D('',#1182,#961,#962);
#804=AXIS2_PLACEMENT_3D('',#1185,#964,#965);
#805=AXIS2_PLACEMENT_3D('',#1186,#966,#967);
#806=AXIS2_PLACEMENT_3D('',#1188,#968,#969);
#807=AXIS2_PLACEMENT_3D('',#1191,#971,#972);
#808=AXIS2_PLACEMENT_3D('',#1192,#973,#974);
#809=AXIS2_PLACEMENT_3D('',#1194,#975,#976);
#810=AXIS2_PLACEMENT_3D('',#1197,#978,#979);
#811=AXIS2_PLACEMENT_3D('',#1198,#980,#981);
#812=AXIS2_PLACEMENT_3D('',#1200,#982,#983);
#813=AXIS2_PLACEMENT_3D('',#1203,#985,#986);
#814=AXIS2_PLACEMENT_3D('',#1204,#987,#988);
#815=AXIS2_PLACEMENT_3D('',#1206,#989,#990);
#816=AXIS2_PLACEMENT_3D('',#1209,#992,#993);
#817=AXIS2_PLACEMENT_3D('',#1210,#994,#995);
#818=AXIS2_PLACEMENT_3D('',#1212,#996,#997);
#819=AXIS2_PLACEMENT_3D('',#1215,#999,#1000);
#820=AXIS2_PLACEMENT_3D('',#1216,#1001,#1002);
#821=AXIS2_PLACEMENT_3D('',#1218,#1003,#1004);
#822=AXIS2_PLACEMENT_3D('',#1221,#1006,#1007);
#823=AXIS2_PLACEMENT_3D('',#1222,#1008,#1009);
#824=AXIS2_PLACEMENT_3D('',#1224,#1010,#1011);
#825=AXIS2_PLACEMENT_3D('',#1227,#1013,#1014);
#826=AXIS2_PLACEMENT_3D('',#1228,#1015,#1016);
#827=AXIS2_PLACEMENT_3D('',#1230,#1017,#1018);
#828=AXIS2_PLACEMENT_3D('',#1231,#1019,#1020);
#829=AXIS2_PLACEMENT_3D('',#1233,#1021,#1022);
#830=AXIS2_PLACEMENT_3D('',#1236,#1024,#1025);
#831=AXIS2_PLACEMENT_3D('',#1237,#1026,#1027);
#832=AXIS2_PLACEMENT_3D('',#1238,#1028,#1029);
#833=AXIS2_PLACEMENT_3D('',#1240,#1031,#1032);
#834=AXIS2_PLACEMENT_3D('',#1246,#1036,#1037);
#835=AXIS2_PLACEMENT_3D('',#1250,#1040,#1041);
#836=AXIS2_PLACEMENT_3D('',#1254,#1044,#1045);
#837=AXIS2_PLACEMENT_3D('',#1256,#1047,#1048);
#838=AXIS2_PLACEMENT_3D('',#1258,#1050,#1051);
#839=AXIS2_PLACEMENT_3D('',#1259,#1052,#1053);
#840=AXIS2_PLACEMENT_3D('',#1260,#1054,#1055);
#841=AXIS2_PLACEMENT_3D('',#1261,#1056,#1057);
#842=AXIS2_PLACEMENT_3D('',#1262,#1058,#1059);
#843=DIRECTION('axis',(0.,0.,1.));
#844=DIRECTION('refdir',(1.,0.,0.));
#845=DIRECTION('center_axis',(0.,1.,0.));
#846=DIRECTION('ref_axis',(0.,0.,1.));
#847=DIRECTION('',(1.,0.,-2.13566540062166E-13));
#848=DIRECTION('center_axis',(0.,1.,0.));
#849=DIRECTION('ref_axis',(-0.999999999194724,0.,-4.01316770946476E-5));
#850=DIRECTION('',(-0.000347314748100092,0.,0.999999939686231));
#851=DIRECTION('center_axis',(0.,1.,0.));
#852=DIRECTION('ref_axis',(2.87672133651222E-5,0.,-0.999999999586224));
#853=DIRECTION('',(-0.999999969043522,0.,-0.000248823141213036));
#854=DIRECTION('center_axis',(0.,1.,0.));
#855=DIRECTION('ref_axis',(0.999999999194724,0.,4.01316776721914E-5));
#856=DIRECTION('',(0.000347314747989951,0.,-0.999999939686231));
#857=DIRECTION('',(-1.,2.6615066717227E-22,0.));
#858=DIRECTION('',(0.,9.25187517068093E-18,1.));
#859=DIRECTION('',(-1.,0.,0.));
#860=DIRECTION('',(0.000347314747989951,0.,-0.999999939686231));
#861=DIRECTION('center_axis',(0.,1.,0.));
#862=DIRECTION('ref_axis',(-6.42326718164044E-8,0.,0.999999999999998));
#863=DIRECTION('',(-1.3236582328244E-16,-9.25187517068093E-18,-1.));
#864=DIRECTION('',(-1.,2.6615066717227E-22,0.));
#865=DIRECTION('',(0.,9.25187517068093E-18,1.));
#866=DIRECTION('',(1.,-2.6615066717227E-22,0.));
#867=DIRECTION('center_axis',(2.6615066717227E-22,1.,-9.25187517068093E-18));
#868=DIRECTION('ref_axis',(-1.,0.,0.));
#869=DIRECTION('center_axis',(2.6615066717227E-22,1.,-9.25187517068093E-18));
#870=DIRECTION('ref_axis',(-1.,0.,0.));
#871=DIRECTION('center_axis',(2.6615066717227E-22,1.,-9.25187517068093E-18));
#872=DIRECTION('ref_axis',(-1.,0.,0.));
#873=DIRECTION('center_axis',(2.6615066717227E-22,1.,-9.25187517068093E-18));
#874=DIRECTION('ref_axis',(-1.,0.,0.));
#875=DIRECTION('center_axis',(2.6615066717227E-22,1.,-9.25187517068093E-18));
#876=DIRECTION('ref_axis',(-1.,0.,0.));
#877=DIRECTION('center_axis',(2.6615066717227E-22,1.,-9.25187517068093E-18));
#878=DIRECTION('ref_axis',(-1.,0.,0.));
#879=DIRECTION('center_axis',(2.6615066717227E-22,1.,-9.25187517068093E-18));
#880=DIRECTION('ref_axis',(-1.,0.,0.));
#881=DIRECTION('center_axis',(-0.999999939686231,0.,-0.000347314748100092));
#882=DIRECTION('ref_axis',(-0.000347314748100092,-1.51023655613526E-18,
0.999999939686231));
#883=DIRECTION('',(0.,1.,0.));
#884=DIRECTION('',(-0.000347314748100092,-1.51023655613526E-18,0.999999939686231));
#885=DIRECTION('',(0.,1.,0.));
#886=DIRECTION('center_axis',(0.,1.,0.));
#887=DIRECTION('ref_axis',(-0.999999999194724,0.,-4.01316770946476E-5));
#888=DIRECTION('',(0.,1.,0.));
#889=DIRECTION('center_axis',(-9.87656429741912E-34,1.,-3.96363089507731E-38));
#890=DIRECTION('ref_axis',(-0.999999999194724,-9.87656430537248E-34,-4.01316770946476E-5));
#891=DIRECTION('center_axis',(0.,1.,0.));
#892=DIRECTION('ref_axis',(-6.42326718164044E-8,0.,0.999999999999998));
#893=DIRECTION('',(0.,1.,0.));
#894=DIRECTION('center_axis',(1.26625863494641E-38,1.,-1.97136223535235E-31));
#895=DIRECTION('ref_axis',(-6.42326718164044E-8,1.97136223535235E-31,0.999999999999998));
#896=DIRECTION('',(0.,1.,0.));
#897=DIRECTION('center_axis',(0.,0.,1.));
#898=DIRECTION('ref_axis',(-1.,0.,0.));
#899=DIRECTION('',(0.,-1.,0.));
#900=DIRECTION('',(-1.,2.6615066717227E-22,0.));
#901=DIRECTION('',(0.,1.,0.));
#902=DIRECTION('center_axis',(0.999999939686231,0.,0.000347314747989951));
#903=DIRECTION('ref_axis',(0.000347314747989951,1.72968732980242E-18,-0.999999939686231));
#904=DIRECTION('',(0.,1.,0.));
#905=DIRECTION('',(0.000347314747989951,1.72968732980242E-18,-0.999999939686231));
#906=DIRECTION('',(0.,-1.,0.));
#907=DIRECTION('center_axis',(0.999999939686231,0.,0.000347314747989951));
#908=DIRECTION('ref_axis',(0.000347314747989951,1.72968732980242E-18,-0.999999939686231));
#909=DIRECTION('',(0.000347314747989951,1.72968732980242E-18,-0.999999939686231));
#910=DIRECTION('center_axis',(0.,-1.,0.));
#911=DIRECTION('ref_axis',(-1.,0.,0.));
#912=DIRECTION('center_axis',(-2.6615066717227E-22,-1.,9.25187517068093E-18));
#913=DIRECTION('ref_axis',(-1.,0.,0.));
#914=DIRECTION('',(0.,-1.,0.));
#915=DIRECTION('center_axis',(0.,-1.,0.));
#916=DIRECTION('ref_axis',(-1.,0.,0.));
#917=DIRECTION('center_axis',(-2.6615066717227E-22,-1.,9.25187517068093E-18));
#918=DIRECTION('ref_axis',(-1.,0.,0.));
#919=DIRECTION('',(0.,-1.,0.));
#920=DIRECTION('center_axis',(0.,-1.,0.));
#921=DIRECTION('ref_axis',(-1.,0.,0.));
#922=DIRECTION('center_axis',(-2.6615066717227E-22,-1.,9.25187517068093E-18));
#923=DIRECTION('ref_axis',(-1.,0.,0.));
#924=DIRECTION('',(0.,-1.,0.));
#925=DIRECTION('center_axis',(0.,-1.,0.));
#926=DIRECTION('ref_axis',(-1.,0.,0.));
#927=DIRECTION('center_axis',(-2.6615066717227E-22,-1.,9.25187517068093E-18));
#928=DIRECTION('ref_axis',(-1.,0.,0.));
#929=DIRECTION('',(0.,-1.,0.));
#930=DIRECTION('center_axis',(0.,-1.,0.));
#931=DIRECTION('ref_axis',(-1.,0.,0.));
#932=DIRECTION('center_axis',(-2.6615066717227E-22,-1.,9.25187517068093E-18));
#933=DIRECTION('ref_axis',(-1.,0.,0.));
#934=DIRECTION('',(0.,-1.,0.));
#935=DIRECTION('center_axis',(0.,-1.,0.));
#936=DIRECTION('ref_axis',(-1.,0.,0.));
#937=DIRECTION('center_axis',(-2.6615066717227E-22,-1.,9.25187517068093E-18));
#938=DIRECTION('ref_axis',(-1.,0.,0.));
#939=DIRECTION('',(0.,-1.,0.));
#940=DIRECTION('center_axis',(2.13566540062166E-13,0.,1.));
#941=DIRECTION('ref_axis',(1.,4.20538298829469E-18,-2.13566540062166E-13));
#942=DIRECTION('',(1.,4.20538298829469E-18,-2.13566540062166E-13));
#943=DIRECTION('center_axis',(0.000248823141213036,0.,-0.999999969043522));
#944=DIRECTION('ref_axis',(-0.999999969043522,-5.37416720844381E-18,-0.000248823141213036));
#945=DIRECTION('',(0.,1.,0.));
#946=DIRECTION('',(-0.999999969043522,-5.37416720844381E-18,-0.000248823141213036));
#947=DIRECTION('',(0.,1.,0.));
#948=DIRECTION('center_axis',(-1.,0.,0.));
#949=DIRECTION('ref_axis',(0.,0.,-1.));
#950=DIRECTION('',(0.,-1.,0.));
#951=DIRECTION('',(0.,-9.25187517068093E-18,-1.));
#952=DIRECTION('center_axis',(0.,-1.,0.));
#953=DIRECTION('ref_axis',(-1.,0.,0.));
#954=DIRECTION('center_axis',(0.,-1.,0.));
#955=DIRECTION('ref_axis',(-1.,0.,0.));
#956=DIRECTION('',(0.,-1.,0.));
#957=DIRECTION('center_axis',(0.,1.,0.));
#958=DIRECTION('ref_axis',(-1.,0.,0.));
#959=DIRECTION('center_axis',(0.,-1.,0.));
#960=DIRECTION('ref_axis',(-1.,0.,0.));
#961=DIRECTION('center_axis',(0.,-1.,0.));
#962=DIRECTION('ref_axis',(-1.,0.,0.));
#963=DIRECTION('',(0.,-1.,0.));
#964=DIRECTION('center_axis',(0.,1.,0.));
#965=DIRECTION('ref_axis',(-1.,0.,0.));
#966=DIRECTION('center_axis',(0.,-1.,0.));
#967=DIRECTION('ref_axis',(-1.,0.,0.));
#968=DIRECTION('center_axis',(0.,-1.,0.));
#969=DIRECTION('ref_axis',(-1.,0.,0.));
#970=DIRECTION('',(0.,-1.,0.));
#971=DIRECTION('center_axis',(0.,1.,0.));
#972=DIRECTION('ref_axis',(-1.,0.,0.));
#973=DIRECTION('center_axis',(0.,-1.,0.));
#974=DIRECTION('ref_axis',(-1.,0.,0.));
#975=DIRECTION('center_axis',(0.,-1.,0.));
#976=DIRECTION('ref_axis',(-1.,0.,0.));
#977=DIRECTION('',(0.,-1.,0.));
#978=DIRECTION('center_axis',(0.,1.,0.));
#979=DIRECTION('ref_axis',(-1.,0.,0.));
#980=DIRECTION('center_axis',(0.,-1.,0.));
#981=DIRECTION('ref_axis',(-1.,0.,0.));
#982=DIRECTION('center_axis',(0.,-1.,0.));
#983=DIRECTION('ref_axis',(-1.,0.,0.));
#984=DIRECTION('',(0.,-1.,0.));
#985=DIRECTION('center_axis',(0.,1.,0.));
#986=DIRECTION('ref_axis',(-1.,0.,0.));
#987=DIRECTION('center_axis',(0.,-1.,0.));
#988=DIRECTION('ref_axis',(-1.,0.,0.));
#989=DIRECTION('center_axis',(0.,-1.,0.));
#990=DIRECTION('ref_axis',(-1.,0.,0.));
#991=DIRECTION('',(0.,-1.,0.));
#992=DIRECTION('center_axis',(0.,1.,0.));
#993=DIRECTION('ref_axis',(-1.,0.,0.));
#994=DIRECTION('center_axis',(0.,-1.,0.));
#995=DIRECTION('ref_axis',(-1.,0.,0.));
#996=DIRECTION('center_axis',(0.,-1.,0.));
#997=DIRECTION('ref_axis',(-1.,0.,0.));
#998=DIRECTION('',(0.,-1.,0.));
#999=DIRECTION('center_axis',(0.,1.,0.));
#1000=DIRECTION('ref_axis',(-1.,0.,0.));
#1001=DIRECTION('center_axis',(0.,-1.,0.));
#1002=DIRECTION('ref_axis',(-1.,0.,0.));
#1003=DIRECTION('center_axis',(0.,-1.,0.));
#1004=DIRECTION('ref_axis',(-1.,0.,0.));
#1005=DIRECTION('',(0.,-1.,0.));
#1006=DIRECTION('center_axis',(0.,1.,0.));
#1007=DIRECTION('ref_axis',(-1.,0.,0.));
#1008=DIRECTION('center_axis',(0.,-1.,0.));
#1009=DIRECTION('ref_axis',(-1.,0.,0.));
#1010=DIRECTION('center_axis',(0.,-1.,0.));
#1011=DIRECTION('ref_axis',(-1.,0.,0.));
#1012=DIRECTION('',(0.,-1.,0.));
#1013=DIRECTION('center_axis',(0.,1.,0.));
#1014=DIRECTION('ref_axis',(-1.,0.,0.));
#1015=DIRECTION('center_axis',(0.,1.,0.));
#1016=DIRECTION('ref_axis',(-1.,0.,0.));
#1017=DIRECTION('center_axis',(-2.6615066717227E-22,-1.,9.25187517068093E-18));
#1018=DIRECTION('ref_axis',(-1.,0.,0.));
#1019=DIRECTION('center_axis',(0.,1.,0.));
#1020=DIRECTION('ref_axis',(-1.,0.,0.));
#1021=DIRECTION('center_axis',(0.,1.,0.));
#1022=DIRECTION('ref_axis',(-1.,0.,0.));
#1023=DIRECTION('',(0.,-1.,0.));
#1024=DIRECTION('center_axis',(-2.6615066717227E-22,-1.,9.25187517068093E-18));
#1025=DIRECTION('ref_axis',(-1.,0.,0.));
#1026=DIRECTION('center_axis',(0.,1.,0.));
#1027=DIRECTION('ref_axis',(-1.,0.,0.));
#1028=DIRECTION('center_axis',(0.,-1.,0.));
#1029=DIRECTION('ref_axis',(-1.,0.,0.));
#1030=DIRECTION('',(0.,-1.,0.));
#1031=DIRECTION('center_axis',(-1.,0.,0.));
#1032=DIRECTION('ref_axis',(0.,0.,-1.));
#1033=DIRECTION('',(0.,-1.,0.));
#1034=DIRECTION('',(0.,-9.25187517068093E-18,-1.));
#1035=DIRECTION('',(0.,-1.,0.));
#1036=DIRECTION('center_axis',(0.,0.,1.));
#1037=DIRECTION('ref_axis',(-1.,0.,0.));
#1038=DIRECTION('',(-1.,2.6615066717227E-22,0.));
#1039=DIRECTION('',(0.,-1.,0.));
#1040=DIRECTION('center_axis',(1.,0.,-1.3236582328244E-16));
#1041=DIRECTION('ref_axis',(1.3236582328244E-16,0.,1.));
#1042=DIRECTION('',(1.3236582328244E-16,9.25187517068093E-18,1.));
#1043=DIRECTION('',(0.,-1.,0.));
#1044=DIRECTION('center_axis',(0.,0.,-1.));
#1045=DIRECTION('ref_axis',(1.,0.,0.));
#1046=DIRECTION('',(1.,-2.6615066717227E-22,0.));
#1047=DIRECTION('center_axis',(2.6615066717227E-22,1.,-9.25187517068093E-18));
#1048=DIRECTION('ref_axis',(1.,-2.6615066717227E-22,0.));
#1049=DIRECTION('',(1.,-2.6615066717227E-22,0.));
#1050=DIRECTION('center_axis',(-1.18518771569029E-33,1.,-4.75635714254255E-38));
#1051=DIRECTION('ref_axis',(0.999999999194724,1.1851877166447E-33,4.01316776721914E-5));
#1052=DIRECTION('center_axis',(2.66150667172582E-22,1.,-9.25187517068093E-18));
#1053=DIRECTION('ref_axis',(2.87672133651222E-5,-9.25187517450914E-18,-0.999999999586224));
#1054=DIRECTION('center_axis',(0.,0.,-1.));
#1055=DIRECTION('ref_axis',(1.,0.,0.));
#1056=DIRECTION('center_axis',(0.,1.,0.));
#1057=DIRECTION('ref_axis',(0.999999999194724,0.,4.01316776721914E-5));
#1058=DIRECTION('center_axis',(0.,1.,0.));
#1059=DIRECTION('ref_axis',(2.87672133651222E-5,0.,-0.999999999586224));
#1060=CARTESIAN_POINT('',(0.,0.,0.));
#1061=CARTESIAN_POINT('Origin',(4.49999999999494,9.,3.75048609944084));
#1062=CARTESIAN_POINT('',(-12.0000000000066,9.,34.9999999999965));
#1063=CARTESIAN_POINT('',(20.9999997109454,9.,34.9999999999965));
#1064=CARTESIAN_POINT('',(-8.00000000000283,9.,34.9999999999992));
#1065=CARTESIAN_POINT('',(-31.4999999843002,9.,15.4992183958254));
#1066=CARTESIAN_POINT('Origin',(-12.0000009635,9.,15.50000096349));
#1067=CARTESIAN_POINT('',(-31.4916400639463,9.,-8.57093668795287));
#1068=CARTESIAN_POINT('',(-31.4937775989517,9.,-2.41647625073173));
#1069=CARTESIAN_POINT('',(-11.9994400028672,9.,-27.4999999919314));
#1070=CARTESIAN_POINT('Origin',(-12.0000009635001,9.,-8.00000096349998));
#1071=CARTESIAN_POINT('',(21.5707010825044,9.,-27.491646963717));
#1072=CARTESIAN_POINT('',(13.0392379524216,9.,-27.4937697892378));
#1073=CARTESIAN_POINT('',(40.4999999842901,9.,-7.99921839582401));
#1074=CARTESIAN_POINT('Origin',(21.0000009634899,9.,-8.00000096349995));
#1075=CARTESIAN_POINT('',(40.4986603352846,9.,-4.1420573268117));
#1076=CARTESIAN_POINT('',(40.4937774301141,9.,9.91696235011248));
#1077=CARTESIAN_POINT('',(24.9999994412065,9.,-4.14205732681171));
#1078=CARTESIAN_POINT('',(14.7499997206007,9.,-4.14205732681171));
#1079=CARTESIAN_POINT('',(24.9999994412065,9.,1.8579426731883));
#1080=CARTESIAN_POINT('',(24.9999994412065,9.,2.80397133659417));
#1081=CARTESIAN_POINT('',(40.496576446671,9.,1.8579426731883));
#1082=CARTESIAN_POINT('',(22.498288223333,9.,1.8579426731883));
#1083=CARTESIAN_POINT('',(40.4916400639389,9.,16.0709366879539));
#1084=CARTESIAN_POINT('',(40.4937774301141,9.,9.91696235011248));
#1085=CARTESIAN_POINT('Origin',(21.00000096349,9.,15.5000009634901));
#1086=CARTESIAN_POINT('',(13.5000002011657,9.,0.));
#1087=CARTESIAN_POINT('',(13.5000002011657,9.,-16.7750707409749));
#1088=CARTESIAN_POINT('',(13.5000002011657,9.,-6.51253537048741));
#1089=CARTESIAN_POINT('',(-11.3406091399494,9.,-16.7750707409749));
#1090=CARTESIAN_POINT('',(-3.42030456997721,9.,-16.7750707409749));
#1091=CARTESIAN_POINT('',(-11.3406091399494,9.,0.));
#1092=CARTESIAN_POINT('',(-11.3406091399494,9.,1.87500000000002));
#1093=CARTESIAN_POINT('',(9.00000010058031,9.,0.));
#1094=CARTESIAN_POINT('',(-9.99999760162403,9.,14.0000002086163));
#1095=CARTESIAN_POINT('Origin',(-17.0000002533197,9.,14.0000002086163));
#1096=CARTESIAN_POINT('',(-15.5000002533197,9.,-17.0000002533197));
#1097=CARTESIAN_POINT('Origin',(-17.0000002533197,9.,-17.0000002533197));
#1098=CARTESIAN_POINT('',(20.5000002831221,9.,-7.00000010430813));
#1099=CARTESIAN_POINT('Origin',(19.0000002831221,9.,-7.00000010430813));
#1100=CARTESIAN_POINT('',(20.5000002831221,9.,3.00000004470348));
#1101=CARTESIAN_POINT('Origin',(19.0000002831221,9.,3.00000004470348));
#1102=CARTESIAN_POINT('',(-15.5000002533197,9.,-7.00000010430813));
#1103=CARTESIAN_POINT('Origin',(-17.0000002533197,9.,-7.00000010430813));
#1104=CARTESIAN_POINT('',(20.5000002831221,9.,-17.0000002533197));
#1105=CARTESIAN_POINT('Origin',(19.0000002831221,9.,-17.0000002533197));
#1106=CARTESIAN_POINT('',(-15.5000002533197,9.,3.00000004470348));
#1107=CARTESIAN_POINT('Origin',(-17.0000002533197,9.,3.00000004470348));
#1108=CARTESIAN_POINT('Origin',(-31.4916400639463,5.02291774397131E-17,
-8.57093668795287));
#1109=CARTESIAN_POINT('',(-31.4999999843002,11.,15.4992183958253));
#1110=CARTESIAN_POINT('',(-31.4999999843002,1.38775471278424E-17,15.4992183958254));
#1111=CARTESIAN_POINT('',(-31.4916400639463,11.,-8.57093668795287));
#1112=CARTESIAN_POINT('',(-31.4999999843002,11.,15.4992183958254));
#1113=CARTESIAN_POINT('',(-31.4916400639463,5.0234353573357E-17,-8.57093668795287));
#1114=CARTESIAN_POINT('Origin',(-12.0000009635,1.38775471278424E-17,15.50000096349));
#1115=CARTESIAN_POINT('',(-11.9999999999991,11.,34.999999999993));
#1116=CARTESIAN_POINT('',(-11.9999999999991,1.38775471278424E-17,34.999999999993));
#1117=CARTESIAN_POINT('Origin',(-12.0000009635,11.,15.50000096349));
#1118=CARTESIAN_POINT('Origin',(21.00000096349,1.38775471278424E-17,15.5000009634901));
#1119=CARTESIAN_POINT('',(40.4916400639389,11.,16.0709366879539));
#1120=CARTESIAN_POINT('',(40.4916400639389,1.38775471278425E-17,16.0709366879539));
#1121=CARTESIAN_POINT('',(20.9999997109529,11.,34.999999999993));
#1122=CARTESIAN_POINT('Origin',(21.00000096349,11.,15.5000009634901));
#1123=CARTESIAN_POINT('',(20.9999997109529,1.38775471278463E-17,34.999999999993));
#1124=CARTESIAN_POINT('Origin',(40.496576446671,11.,1.8579426731883));
#1125=CARTESIAN_POINT('',(24.9999994412065,11.,1.8579426731883));
#1126=CARTESIAN_POINT('',(24.9999994412065,11.,1.8579426731883));
#1127=CARTESIAN_POINT('',(40.496576446671,11.,1.8579426731883));
#1128=CARTESIAN_POINT('',(22.498288223333,11.,1.8579426731883));
#1129=CARTESIAN_POINT('',(40.496576446671,5.5,1.8579426731883));
#1130=CARTESIAN_POINT('Origin',(40.4916400639389,1.38775471278426E-17,16.0709366879539));
#1131=CARTESIAN_POINT('',(40.4999999842901,11.,-7.99921839582401));
#1132=CARTESIAN_POINT('',(40.4999999842901,5.55113919137266E-17,-7.99921839582401));
#1133=CARTESIAN_POINT('',(40.4986603352846,11.,-4.14205732681171));
#1134=CARTESIAN_POINT('',(40.4999999842901,11.,-7.99921839582401));
#1135=CARTESIAN_POINT('',(40.4986603352846,5.5,-4.1420573268117));
#1136=CARTESIAN_POINT('Origin',(40.4916400639389,1.38775471278426E-17,16.0709366879539));
#1137=CARTESIAN_POINT('',(40.4999999842901,11.,-7.99921839582401));
#1138=CARTESIAN_POINT('Origin',(-17.0000002533197,11.,3.00000004470348));
#1139=CARTESIAN_POINT('',(-15.5000002533197,11.,3.00000004470348));
#1140=CARTESIAN_POINT('Origin',(-17.0000002533197,11.,3.00000004470348));
#1141=CARTESIAN_POINT('',(-15.5000002533197,11.,3.00000004470348));
#1142=CARTESIAN_POINT('Origin',(19.0000002831221,11.,-17.0000002533197));
#1143=CARTESIAN_POINT('',(20.5000002831221,11.,-17.0000002533197));
#1144=CARTESIAN_POINT('Origin',(19.0000002831221,11.,-17.0000002533197));
#1145=CARTESIAN_POINT('',(20.5000002831221,11.,-17.0000002533197));
#1146=CARTESIAN_POINT('Origin',(-17.0000002533197,11.,-7.00000010430813));
#1147=CARTESIAN_POINT('',(-15.5000002533197,11.,-7.00000010430813));
#1148=CARTESIAN_POINT('Origin',(-17.0000002533197,11.,-7.00000010430813));
#1149=CARTESIAN_POINT('',(-15.5000002533197,11.,-7.00000010430813));
#1150=CARTESIAN_POINT('Origin',(19.0000002831221,11.,3.00000004470348));
#1151=CARTESIAN_POINT('',(20.5000002831221,11.,3.00000004470348));
#1152=CARTESIAN_POINT('Origin',(19.0000002831221,11.,3.00000004470348));
#1153=CARTESIAN_POINT('',(20.5000002831221,11.,3.00000004470348));
#1154=CARTESIAN_POINT('Origin',(19.0000002831221,11.,-7.00000010430813));
#1155=CARTESIAN_POINT('',(20.5000002831221,11.,-7.00000010430813));
#1156=CARTESIAN_POINT('Origin',(19.0000002831221,11.,-7.00000010430813));
#1157=CARTESIAN_POINT('',(20.5000002831221,11.,-7.00000010430813));
#1158=CARTESIAN_POINT('Origin',(-17.0000002533197,11.,-17.0000002533197));
#1159=CARTESIAN_POINT('',(-15.5000002533197,11.,-17.0000002533197));
#1160=CARTESIAN_POINT('Origin',(-17.0000002533197,11.,-17.0000002533197));
#1161=CARTESIAN_POINT('',(-15.5000002533197,11.,-17.0000002533197));
#1162=CARTESIAN_POINT('Origin',(-11.9999999999991,-1.24900090270321E-16,
35.0000000000001));
#1163=CARTESIAN_POINT('',(20.9999997109529,11.,34.999999999993));
#1164=CARTESIAN_POINT('Origin',(21.5707010825044,5.55113919137228E-17,-27.491646963717));
#1165=CARTESIAN_POINT('',(-11.9994400028672,11.,-27.4999999919314));
#1166=CARTESIAN_POINT('',(-11.9994400028672,-1.2490016507502E-16,-27.4999999919314));
#1167=CARTESIAN_POINT('',(21.5707010825044,11.,-27.491646963717));
#1168=CARTESIAN_POINT('',(-11.9994400028672,11.,-27.4999999919314));
#1169=CARTESIAN_POINT('',(21.5707010825044,5.55113919137266E-17,-27.491646963717));
#1170=CARTESIAN_POINT('Origin',(24.9999994412065,11.,1.8579426731883));
#1171=CARTESIAN_POINT('',(24.9999994412065,11.,-4.14205732681171));
#1172=CARTESIAN_POINT('',(24.9999994412065,11.,-4.14205732681171));
#1173=CARTESIAN_POINT('',(24.9999994412065,11.,2.80397133659417));
#1174=CARTESIAN_POINT('Origin',(-13.8180196905651,12.,10.8180196458616));
#1175=CARTESIAN_POINT('',(-13.3180196905651,12.,10.8180196458616));
#1176=CARTESIAN_POINT('Origin',(-13.8180196905651,12.,10.8180196458616));
#1177=CARTESIAN_POINT('',(-13.3180196905651,11.,10.8180196458616));
#1178=CARTESIAN_POINT('',(-13.3180196905651,12.,10.8180196458616));
#1179=CARTESIAN_POINT('Origin',(-13.8180196905651,11.,10.8180196458616));
#1180=CARTESIAN_POINT('Origin',(-20.1819808160744,12.,17.1819807713709));
#1181=CARTESIAN_POINT('',(-19.6819808160744,12.,17.1819807713709));
#1182=CARTESIAN_POINT('Origin',(-20.1819808160744,12.,17.1819807713709));
#1183=CARTESIAN_POINT('',(-19.6819808160744,11.,17.1819807713709));
#1184=CARTESIAN_POINT('',(-19.6819808160744,12.,17.1819807713709));
#1185=CARTESIAN_POINT('Origin',(-20.1819808160744,11.,17.1819807713709));
#1186=CARTESIAN_POINT('Origin',(-17.0000002533197,12.,18.5000002756715));
#1187=CARTESIAN_POINT('',(-16.5000002533197,12.,18.5000002756715));
#1188=CARTESIAN_POINT('Origin',(-17.0000002533197,12.,18.5000002756715));
#1189=CARTESIAN_POINT('',(-16.5000002533197,11.,18.5000002756715));
#1190=CARTESIAN_POINT('',(-16.5000002533197,12.,18.5000002756715));
#1191=CARTESIAN_POINT('Origin',(-17.0000002533197,11.,18.5000002756715));
#1192=CARTESIAN_POINT('Origin',(-17.0000002533197,12.,9.50000014156103));
#1193=CARTESIAN_POINT('',(-16.5000002533197,12.,9.50000014156103));
#1194=CARTESIAN_POINT('Origin',(-17.0000002533197,12.,9.50000014156103));
#1195=CARTESIAN_POINT('',(-16.5000002533197,11.,9.50000014156103));
#1196=CARTESIAN_POINT('',(-16.5000002533197,12.,9.50000014156103));
#1197=CARTESIAN_POINT('Origin',(-17.0000002533197,11.,9.50000014156103));
#1198=CARTESIAN_POINT('Origin',(-12.5000001862645,12.,14.0000002086163));
#1199=CARTESIAN_POINT('',(-12.0000001862645,12.,14.0000002086163));
#1200=CARTESIAN_POINT('Origin',(-12.5000001862645,12.,14.0000002086163));
#1201=CARTESIAN_POINT('',(-12.0000001862645,11.,14.0000002086163));
#1202=CARTESIAN_POINT('',(-12.0000001862645,12.,14.0000002086163));
#1203=CARTESIAN_POINT('Origin',(-12.5000001862645,11.,14.0000002086163));
#1204=CARTESIAN_POINT('Origin',(-21.500000320375,12.,14.0000002086163));
#1205=CARTESIAN_POINT('',(-21.000000320375,12.,14.0000002086163));
#1206=CARTESIAN_POINT('Origin',(-21.500000320375,12.,14.0000002086163));
#1207=CARTESIAN_POINT('',(-21.000000320375,11.,14.0000002086163));
#1208=CARTESIAN_POINT('',(-21.000000320375,12.,14.0000002086163));
#1209=CARTESIAN_POINT('Origin',(-21.500000320375,11.,14.0000002086163));
#1210=CARTESIAN_POINT('Origin',(-17.0000002533197,12.,14.0000002086163));
#1211=CARTESIAN_POINT('',(-16.5000002533197,12.,14.0000002086163));
#1212=CARTESIAN_POINT('Origin',(-17.0000002533197,12.,14.0000002086163));
#1213=CARTESIAN_POINT('',(-16.5000002533197,11.,14.0000002086163));
#1214=CARTESIAN_POINT('',(-16.5000002533197,12.,14.0000002086163));
#1215=CARTESIAN_POINT('Origin',(-17.0000002533197,11.,14.0000002086163));
#1216=CARTESIAN_POINT('Origin',(-20.1819808160744,12.,10.8180196458616));
#1217=CARTESIAN_POINT('',(-19.6819808160744,12.,10.8180196458616));
#1218=CARTESIAN_POINT('Origin',(-20.1819808160744,12.,10.8180196458616));
#1219=CARTESIAN_POINT('',(-19.6819808160744,11.,10.8180196458616));
#1220=CARTESIAN_POINT('',(-19.6819808160744,12.,10.8180196458616));
#1221=CARTESIAN_POINT('Origin',(-20.1819808160744,11.,10.8180196458616));
#1222=CARTESIAN_POINT('Origin',(-13.8180196905651,12.,17.1819807713709));
#1223=CARTESIAN_POINT('',(-13.3180196905651,12.,17.1819807713709));
#1224=CARTESIAN_POINT('Origin',(-13.8180196905651,12.,17.1819807713709));
#1225=CARTESIAN_POINT('',(-13.3180196905651,11.,17.1819807713709));
#1226=CARTESIAN_POINT('',(-13.3180196905651,12.,17.1819807713709));
#1227=CARTESIAN_POINT('Origin',(-13.8180196905651,11.,17.1819807713709));
#1228=CARTESIAN_POINT('Origin',(-17.0000002533197,11.,14.0000002086163));
#1229=CARTESIAN_POINT('',(-9.99999760162403,11.,14.0000002086163));
#1230=CARTESIAN_POINT('Origin',(-17.0000002533197,11.,14.0000002086163));
#1231=CARTESIAN_POINT('Origin',(-17.0000002533197,11.,14.0000002086163));
#1232=CARTESIAN_POINT('',(-9.50000014156103,12.,14.0000002086163));
#1233=CARTESIAN_POINT('Origin',(-17.0000002533197,12.,14.0000002086163));
#1234=CARTESIAN_POINT('',(-9.50000014156103,11.,14.0000002086163));
#1235=CARTESIAN_POINT('',(-9.50000014156103,11.,14.0000002086163));
#1236=CARTESIAN_POINT('Origin',(-17.0000002533197,11.,14.0000002086163));
#1237=CARTESIAN_POINT('Origin',(-17.0000002533197,12.,14.0000002086163));
#1238=CARTESIAN_POINT('Origin',(-17.0000002533197,11.,14.0000002086163));
#1239=CARTESIAN_POINT('',(-9.99999760162403,11.,14.0000002086163));
#1240=CARTESIAN_POINT('Origin',(-11.3406091399494,11.,0.));
#1241=CARTESIAN_POINT('',(-11.3406091399494,11.,-16.7750707409749));
#1242=CARTESIAN_POINT('',(-11.3406091399494,11.,-16.7750707409749));
#1243=CARTESIAN_POINT('',(-11.3406091399494,11.,0.));
#1244=CARTESIAN_POINT('',(-11.3406091399494,11.,1.87500000000002));
#1245=CARTESIAN_POINT('',(-11.3406091399494,11.,0.));
#1246=CARTESIAN_POINT('Origin',(13.5000002011657,11.,0.));
#1247=CARTESIAN_POINT('',(13.5000002011657,11.,0.));
#1248=CARTESIAN_POINT('',(9.00000010058031,11.,0.));
#1249=CARTESIAN_POINT('',(13.5000002011657,11.,0.));
#1250=CARTESIAN_POINT('Origin',(13.5000002011657,11.,-16.7750707409749));
#1251=CARTESIAN_POINT('',(13.5000002011657,11.,-16.7750707409749));
#1252=CARTESIAN_POINT('',(13.5000002011657,11.,-6.51253537048741));
#1253=CARTESIAN_POINT('',(13.5000002011657,11.,-16.7750707409749));
#1254=CARTESIAN_POINT('Origin',(-11.3406091399494,11.,-16.7750707409749));
#1255=CARTESIAN_POINT('',(-3.42030456997721,11.,-16.7750707409749));
#1256=CARTESIAN_POINT('Origin',(4.49999999999495,11.,3.75000000000004));
#1257=CARTESIAN_POINT('',(14.7499997206007,11.,-4.14205732681171));
#1258=CARTESIAN_POINT('Origin',(21.0000009634899,11.,-8.00000096349995));
#1259=CARTESIAN_POINT('Origin',(-12.0000009635001,11.,-8.00000096349998));
#1260=CARTESIAN_POINT('Origin',(24.9999994412065,11.,-4.14205732681171));
#1261=CARTESIAN_POINT('Origin',(21.0000009634899,5.55113919137266E-17,-8.00000096349995));
#1262=CARTESIAN_POINT('Origin',(-12.0000009635001,5.55113919137266E-17,
-8.00000096349998));
#1263=UNCERTAINTY_MEASURE_WITH_UNIT(LENGTH_MEASURE(0.01),#1267,
'DISTANCE_ACCURACY_VALUE',
'Maximum model space distance between geometric entities at asserted c
onnectivities');
#1264=UNCERTAINTY_MEASURE_WITH_UNIT(LENGTH_MEASURE(0.01),#1267,
'DISTANCE_ACCURACY_VALUE',
'Maximum model space distance between geometric entities at asserted c
onnectivities');
#1265=(
GEOMETRIC_REPRESENTATION_CONTEXT(3)
GLOBAL_UNCERTAINTY_ASSIGNED_CONTEXT((#1263))
GLOBAL_UNIT_ASSIGNED_CONTEXT((#1267,#1269,#1270))
REPRESENTATION_CONTEXT('','3D')
);
#1266=(
GEOMETRIC_REPRESENTATION_CONTEXT(3)
GLOBAL_UNCERTAINTY_ASSIGNED_CONTEXT((#1264))
GLOBAL_UNIT_ASSIGNED_CONTEXT((#1267,#1269,#1270))
REPRESENTATION_CONTEXT('','3D')
);
#1267=(
LENGTH_UNIT()
NAMED_UNIT(*)
SI_UNIT(.MILLI.,.METRE.)
);
#1268=(
LENGTH_UNIT()
NAMED_UNIT(*)
SI_UNIT($,.METRE.)
);
#1269=(
NAMED_UNIT(*)
PLANE_ANGLE_UNIT()
SI_UNIT($,.RADIAN.)
);
#1270=(
NAMED_UNIT(*)
SI_UNIT($,.STERADIAN.)
SOLID_ANGLE_UNIT()
);
#1271=SHAPE_DEFINITION_REPRESENTATION(#1272,#1273);
#1272=PRODUCT_DEFINITION_SHAPE('',$,#1275);
#1273=SHAPE_REPRESENTATION('',(#763),#1265);
#1274=PRODUCT_DEFINITION_CONTEXT('part definition',#1279,'design');
#1275=PRODUCT_DEFINITION('Pod Copy','Pod Copy v1',#1276,#1274);
#1276=PRODUCT_DEFINITION_FORMATION('',$,#1281);
#1277=PRODUCT_RELATED_PRODUCT_CATEGORY('Pod Copy v1','Pod Copy v1',(#1281));
#1278=APPLICATION_PROTOCOL_DEFINITION('international standard',
'automotive_design',2009,#1279);
#1279=APPLICATION_CONTEXT(
'Core Data for Automotive Mechanical Design Process');
#1280=PRODUCT_CONTEXT('part definition',#1279,'mechanical');
#1281=PRODUCT('Pod Copy','Pod Copy v1',$,(#1280));
#1282=PRESENTATION_STYLE_ASSIGNMENT((#1283));
#1283=SURFACE_STYLE_USAGE(.BOTH.,#1284);
#1284=SURFACE_SIDE_STYLE('',(#1285));
#1285=SURFACE_STYLE_FILL_AREA(#1286);
#1286=FILL_AREA_STYLE('Steel - Satin',(#1287));
#1287=FILL_AREA_STYLE_COLOUR('Steel - Satin',#1288);
#1288=COLOUR_RGB('Steel - Satin',0.627450980392157,0.627450980392157,0.627450980392157);
ENDSEC;
END-ISO-10303-21;
